<svg height="512pt" viewBox="0 -20 512 512" width="512pt" xmlns="http://www.w3.org/2000/svg"><path d="m278.691406 202.921875c-4.792968-2.75-10.902344-1.089844-13.648437 3.703125l-.132813.226562c-2.742187 4.792969-1.085937 10.902344 3.703125 13.648438 1.570313.902344 3.277344 1.328125 4.964844 1.328125 3.46875 0 6.839844-1.804687 8.6875-5.027344l.128906-.230469c2.746094-4.792968 1.089844-10.902343-3.703125-13.648437zm0 0"/><path d="m474 76c10.148438 0 19.691406-3.953125 26.871094-11.128906 7.175781-7.175782 11.128906-16.71875 11.128906-26.871094 0-10.148438-3.953125-19.691406-11.128906-26.871094-7.179688-7.175781-16.722656-11.128906-26.871094-11.128906-10.152344 0-19.691406 3.953125-26.871094 11.128906-7.175781 7.179688-11.128906 16.722656-11.128906 26.871094 0 6.722656 1.742188 13.175781 5 18.855469l-25.757812 25.761719c-18.863282-9.363282-40.011719-14.617188-62.339844-14.617188-36.386719 0-70.417969 13.625-96.902344 38.589844-26.480469-24.964844-60.515625-38.589844-96.902344-38.589844-22.324218 0-43.476562 5.253906-62.335937 14.617188l-25.761719-25.761719c3.257812-5.679688 5-12.132813 5-18.855469 0-10.148438-3.953125-19.691406-11.128906-26.871094-7.179688-7.175781-16.71875-11.128906-26.871094-11.128906-10.148438 0-19.691406 3.953125-26.871094 11.128906-7.175781 7.179688-11.128906 16.722656-11.128906 26.871094 0 10.152344 3.953125 19.695312 11.128906 26.871094 7.179688 7.179687 16.722656 11.128906 26.871094 11.128906 6.722656 0 13.175781-1.742188 18.855469-5l22.117187 22.113281c-14.289062 9.894531-26.753906 22.359375-36.75 36.734375-.484375.5625-.898437 1.179688-1.246094 1.835938-15.929687 23.652344-25.273437 52.296875-25.273437 83.136718 0 34.929688 22.476563 78.140626 66.804687 128.429688 11.136719 12.640625 23.0625 25.042969 35.171876 36.925781l-46.566407 46.570313c-3.90625 3.902344-3.90625 10.234375 0 14.140625 1.953125 1.953125 4.511719 2.929687 7.070313 2.929687s5.117187-.976562 7.070312-2.929687l46.859375-46.859375c17.386719 16.332031 34.660157 31.34375 50.074219 44.179687.046875.042969.097656.082031.144531.121094 5.824219 4.847656 11.382813 9.390625 16.578125 13.566406 16.117188 12.96875 36.394532 20.109375 57.089844 20.109375s40.972656-7.140625 57.089844-20.109375c18.96875-15.257812 42.777344-35.3125 66.796875-57.867187l75.046875 75.046875c1.953125 1.953125 4.511718 2.929687 7.070312 2.929687s5.117188-.976562 7.070313-2.929687c3.90625-3.902344 3.90625-10.234375 0-14.140625l-74.753907-74.757813c12.109376-11.882812 24.035157-24.285156 35.171876-36.925781 44.328124-50.289062 66.804687-93.5 66.804687-128.429688 0-50.59375-25.125-95.292968-63.269531-121.707031l22.117187-22.117187c5.679688 3.261718 12.132813 5.003906 18.855469 5.003906zm-448.726562-25.269531c-7.019532-7.019531-7.019532-18.4375 0-25.457031 3.398437-3.402344 7.917968-5.273438 12.726562-5.273438s9.328125 1.871094 12.730469 5.273438c7.015625 7.015624 7.015625 18.4375 0 25.453124 0 0-.003907.003907-.003907.003907-3.398437 3.398437-7.917968 5.269531-12.726562 5.269531s-9.328125-1.871094-12.726562-5.269531zm436-25.457031c3.398437-3.402344 7.917968-5.273438 12.726562-5.273438s9.328125 1.871094 12.730469 5.273438c7.015625 7.015624 7.015625 18.4375 0 25.457031-3.402344 3.398437-7.921875 5.269531-12.730469 5.269531-4.804688 0-9.324219-1.871094-12.722656-5.269531-.003906 0-.003906 0-.003906 0-7.019532-7.019531-7.019532-18.4375 0-25.457031zm-216.757813 98.035156c-6.21875 7.21875-12.089844 14.675781-17.613281 22.347656-20.097656-12.988281-35.710938-32.144531-44.316406-54.621094-.105469-.269531-.195313-.546875-.296876-.816406 23.34375 4.515625 44.792969 15.855469 62.226563 33.089844zm-50.253906 78.800781c-32.972657-20.464844-58.5625-51.371094-72.503907-87.785156-2.289062-5.980469-4.261718-12.105469-5.902343-18.277344 13.464843-5.195313 28.035156-8.046875 43.242187-8.046875.464844 0 .925782.015625 1.390625.019531 1.007813 3.429688 2.140625 6.832031 3.417969 10.167969 10.078125 26.316406 28.308594 48.792969 51.800781 64.074219-8.082031 12.8125-15.238281 26.132812-21.445312 39.847656zm-96.699219-97.183594c1.601562 5.585938 3.441406 11.121094 5.519531 16.550781 15.890625 41.503907 45.394531 76.566407 83.398438 99.300782-5.492188 14.433594-9.964844 29.234375-13.382813 44.285156-51.433594-27.585938-90.980468-72.355469-112.042968-127.148438 9.910156-13.3125 22.316406-24.5625 36.507812-32.988281zm-49.300781 54.199219c24.71875 54.777344 67.058593 99.15625 120.867187 126.425781-2.550781 15.796875-3.964844 31.804688-4.1875 47.894531-51.207031-22.320312-95.089844-57.742187-127.523437-103.074218-1.132813-5.421875-1.710938-10.609375-1.710938-15.550782-.003906-19.96875 4.519531-38.871093 12.554688-55.695312zm49.25 170.902344c-10.09375-11.449219-18.957031-22.429688-26.59375-32.921875 27.75 24.449219 59.597656 44.136719 94.453125 58.207031.835937 15.800781 2.820312 31.617188 5.992187 47.332031-10-8.78125-20.351562-18.191406-30.671875-28.027343-.402344-.660157-.878906-1.285157-1.449218-1.855469-.675782-.675781-1.429688-1.226563-2.226563-1.671875-13.605469-13.121094-27.070313-26.953125-39.503906-41.0625zm226.488281-47.441406c14.75-45.316407 46.265625-82.175782 88.738281-103.789063 16.53125-8.410156 34.074219-14.160156 52.183594-17.121094 6.113281 13.554688 9.960937 28.390625 11.050781 44-14.871094 1.984375-29.222656 6.453125-42.765625 13.34375-58.386719 29.710938-86.492187 97.933594-66.375 159.839844-12.203125 11.476563-24.371093 22.308594-35.875 32.183594-18.3125-40.5625-20.828125-85.851563-6.957031-128.457031zm134.246094-11.835938c-23.042969 20.089844-48.675782 36.476562-76.375 48.871094 5.707031-34.605469 27.347656-65.953125 60.40625-82.773438 10.53125-5.359375 21.632812-8.996094 33.113281-10.867187-2.089844 13.417969-7.820313 28.367187-17.144531 44.769531zm-75.054688 92.3125c-1.601562-6.996094-2.511718-14.042969-2.757812-21.058594 14.324218-5.867187 28.148437-12.726562 41.433594-20.519531-2.382813 2.816406-4.839844 5.664063-7.378907 8.542969-9.925781 11.261718-20.507812 22.347656-31.296875 33.035156zm71.5-219.84375c-17.664062 3.546875-34.785156 9.492188-51.023437 17.753906-47.234375 24.035156-82.28125 65.023438-98.6875 115.421875-16.011719 49.191407-12.378907 101.597657 10.15625 148-5.101563 4.234375-9.988281 8.222657-14.582031 11.917969-7.164063 5.761719-15.226563 9.917969-23.6875 12.484375-.089844-.179687-.1875-.359375-.277344-.539063-31.015625-60.953124-34.925782-132.625-10.726563-196.636718 1.953125-5.167969-.648437-10.9375-5.816406-12.890625-5.164063-1.953125-10.9375.652343-12.890625 5.816406-12.847656 33.980469-18.503906 69.539063-16.820312 105.683594 1.648437 35.410156 10.316406 69.578125 25.75 101.65625-15.851563.019531-31.710938-5.171875-44.640626-15.574219-4.410156-3.546875-9.097656-7.367188-13.976562-11.410156-33.835938-114.582032 1.996094-239.300782 91.773438-318.488282.292968-.261718.5625-.535156.816406-.816406 18.785156-11.480468 40.292968-17.59375 62.84375-17.59375 13.722656 0 26.933594 2.316406 39.273437 6.585938-6.109375 2.554687-12.140625 5.332031-18.042969 8.335937-33.433593 17.011719-62.230468 40.328125-85.597656 69.304688-3.46875 4.296875-2.792968 10.59375 1.507813 14.0625 1.847656 1.488281 4.066406 2.214843 6.269531 2.214843 2.921875 0 5.816406-1.273437 7.792969-3.722656 21.582031-26.765625 48.195312-48.3125 79.097656-64.035156 10.945313-5.570312 22.335937-10.328125 33.917969-14.179688 14.894531 9.367188 27.707031 21.886719 37.570312 36.648438zm0 0"/><path d="m49.996094 452.003906c-2.628906 0-5.207032 1.070313-7.070313 2.929688-1.859375 1.863281-2.929687 4.441406-2.929687 7.070312 0 2.632813 1.070312 5.210938 2.929687 7.070313 1.863281 1.859375 4.441407 2.929687 7.070313 2.929687 2.632812 0 5.210937-1.070312 7.070312-2.929687s2.929688-4.4375 2.929688-7.070313c0-2.628906-1.070313-5.207031-2.929688-7.070312-1.859375-1.859375-4.4375-2.929688-7.070312-2.929688zm0 0"/></svg>