<svg width="130" height="130" viewBox="0 0 130 130" fill="none" xmlns="http://www.w3.org/2000/svg">
<rect width="130" height="130" fill="#E5E5E5"/>
<g clip-path="url(#clip0)">
<rect width="595" height="842" transform="translate(-264 -584)" fill="white"/>
<rect width="130" height="130" fill="#222121"/>
<path d="M21.2568 99.4292C20.9492 99.8247 20.6108 100.194 20.2417 100.537C19.8813 100.879 19.4858 101.178 19.0552 101.433C18.6333 101.688 18.1851 101.89 17.7104 102.04C17.2358 102.189 16.7437 102.264 16.2339 102.264C15.5835 102.264 14.9858 102.149 14.4409 101.921C13.896 101.684 13.4258 101.363 13.0303 100.958C12.6348 100.545 12.3271 100.062 12.1074 99.5083C11.8877 98.9458 11.7778 98.3438 11.7778 97.7021C11.7778 97.1748 11.8525 96.6562 12.002 96.1465C12.1514 95.6367 12.3623 95.1577 12.6348 94.7095C12.9072 94.2612 13.228 93.8481 13.5972 93.4702C13.9751 93.0835 14.3882 92.7539 14.8364 92.4814C15.2847 92.209 15.7593 91.998 16.2603 91.8486C16.7612 91.6904 17.2754 91.6113 17.8027 91.6113C18.1719 91.6113 18.519 91.6553 18.8442 91.7432C19.1782 91.8311 19.4727 91.9717 19.7275 92.165C19.9824 92.3496 20.1846 92.5913 20.334 92.8901C20.4834 93.1802 20.5581 93.5273 20.5581 93.9316C20.5581 94.2656 20.457 94.6172 20.2549 94.9863C20.0615 95.3555 19.8022 95.7246 19.4771 96.0938C19.1606 96.4629 18.8003 96.8276 18.396 97.188C17.9917 97.5396 17.5786 97.8691 17.1567 98.1768C16.7437 98.4756 16.3438 98.7393 15.957 98.9678C15.5703 99.1963 15.2319 99.3721 14.9419 99.4951C15.2671 99.8994 15.645 100.229 16.0757 100.484C16.5063 100.739 16.9634 100.866 17.4468 100.866C17.7544 100.866 18.0664 100.809 18.3828 100.695C18.6992 100.572 19.0024 100.418 19.2925 100.233C19.5913 100.049 19.8726 99.8467 20.1362 99.627C20.4087 99.4072 20.6504 99.2007 20.8613 99.0073L21.2568 99.4292ZM18.0796 94.4194C18.0796 94.2173 18.0444 94.0239 17.9741 93.8394C17.9126 93.6548 17.8203 93.4966 17.6973 93.3647C17.5742 93.2241 17.4248 93.1143 17.249 93.0352C17.082 92.9473 16.8887 92.9033 16.6689 92.9033C16.2734 92.9033 15.9087 93.0439 15.5747 93.3252C15.2407 93.5977 14.9507 93.936 14.7046 94.3403C14.4673 94.7446 14.2783 95.1753 14.1377 95.6323C14.0059 96.0806 13.9399 96.4761 13.9399 96.8188C13.9399 97.1528 13.9927 97.4956 14.0981 97.8472C14.2036 98.1987 14.3486 98.5371 14.5332 98.8623C14.8848 98.6689 15.2671 98.4009 15.6802 98.0581C16.0933 97.7153 16.4756 97.3418 16.8271 96.9375C17.1875 96.5244 17.4863 96.0981 17.7236 95.6587C17.9609 95.2192 18.0796 94.8062 18.0796 94.4194ZM37.6572 100.458C37.4551 100.888 37.2178 101.218 36.9453 101.446C36.6729 101.675 36.4136 101.842 36.1675 101.947C35.8774 102.07 35.583 102.141 35.2842 102.158C34.8887 102.158 34.5635 102.097 34.3086 101.974C34.0625 101.851 33.8647 101.688 33.7153 101.486C33.5659 101.284 33.4604 101.055 33.3989 100.8C33.3462 100.545 33.3198 100.286 33.3198 100.022V94.4985C33.3198 94.3579 33.2935 94.2349 33.2407 94.1294C33.188 94.0151 33.1177 93.9492 33.0298 93.9316C32.9419 93.9141 32.8364 93.958 32.7134 94.0635C32.5903 94.1689 32.4585 94.3579 32.3179 94.6304C32.0806 95.3335 31.8652 96.0718 31.6719 96.8452C31.5049 97.5132 31.3511 98.269 31.2104 99.1128C31.0786 99.9478 31.0039 100.809 30.9863 101.697L28.5605 102.541V94.4985C28.5605 94.3579 28.5342 94.2349 28.4814 94.1294C28.4287 94.0151 28.354 93.9492 28.2573 93.9316C28.1694 93.9141 28.064 93.958 27.9409 94.0635C27.8179 94.1689 27.6904 94.3579 27.5586 94.6304C27.2949 95.3687 27.0664 96.1377 26.873 96.9375C26.7852 97.2803 26.7017 97.645 26.6226 98.0317C26.5435 98.4185 26.4731 98.8184 26.4116 99.2314C26.3589 99.6357 26.3149 100.049 26.2798 100.471C26.2446 100.884 26.2314 101.292 26.2402 101.697L23.8408 102.541V93.6812C23.8408 93.4702 23.7925 93.3032 23.6958 93.1802C23.5991 93.0571 23.4717 92.9956 23.3135 92.9956C23.1641 92.9868 22.9971 93.0396 22.8125 93.1538C22.6279 93.2681 22.4478 93.4526 22.272 93.7075L21.916 93.312C22.1182 92.8901 22.3511 92.5649 22.6147 92.3364C22.8872 92.0991 23.1509 91.9277 23.4058 91.8223C23.6958 91.6992 23.9946 91.6289 24.3022 91.6113C24.689 91.6113 25.0054 91.6729 25.2515 91.7959C25.5063 91.9189 25.7041 92.0815 25.8447 92.2837C25.9941 92.4771 26.0952 92.7012 26.1479 92.9561C26.2095 93.2109 26.2402 93.4702 26.2402 93.7339V96.5156C26.3984 95.7246 26.6357 95.0259 26.9521 94.4194C27.2686 93.813 27.5981 93.3032 27.9409 92.8901C28.2925 92.4683 28.6353 92.1519 28.9692 91.9409C29.3032 91.7212 29.5713 91.6113 29.7734 91.6113C30.0283 91.6113 30.2349 91.6553 30.3931 91.7432C30.5513 91.8223 30.6743 91.9453 30.7622 92.1123C30.8501 92.2793 30.9072 92.4858 30.9336 92.7319C30.9688 92.9692 30.9863 93.2505 30.9863 93.5757V96.5156C31.1533 95.7246 31.3906 95.0259 31.6982 94.4194C32.0146 93.813 32.3486 93.3032 32.7002 92.8901C33.0518 92.4683 33.3945 92.1519 33.7285 91.9409C34.0625 91.7212 34.3306 91.6113 34.5327 91.6113C35.0337 91.6113 35.3589 91.7783 35.5083 92.1123C35.6665 92.4375 35.7456 92.9253 35.7456 93.5757V100.088C35.7456 100.299 35.7939 100.466 35.8906 100.589C35.9873 100.712 36.1104 100.778 36.2598 100.787C36.4092 100.787 36.5718 100.73 36.7476 100.616C36.9321 100.501 37.1123 100.317 37.2881 100.062L37.6572 100.458ZM41.9419 84.7954L41.2432 89.6074L39.9512 90.0161L39.1602 85.7446L41.9419 84.7954ZM43.7612 100.458C43.5591 100.888 43.3218 101.218 43.0493 101.446C42.7856 101.675 42.5308 101.842 42.2847 101.947C41.9946 102.07 41.7002 102.141 41.4014 102.158C41.0146 102.158 40.6938 102.097 40.439 101.974C40.1841 101.851 39.9819 101.688 39.8325 101.486C39.6831 101.284 39.5776 101.055 39.5161 100.8C39.4634 100.545 39.437 100.286 39.437 100.022V92.6265L41.8628 91.7959V100.088C41.8628 100.299 41.9111 100.466 42.0078 100.589C42.1045 100.712 42.2275 100.778 42.377 100.787C42.5352 100.787 42.7021 100.73 42.8779 100.616C43.0625 100.501 43.2383 100.317 43.4053 100.062L43.7612 100.458ZM49.9575 100.458C49.8521 100.686 49.7158 100.901 49.5488 101.104C49.3906 101.306 49.2104 101.486 49.0083 101.644C48.8062 101.802 48.582 101.925 48.3359 102.013C48.0986 102.11 47.8525 102.158 47.5977 102.158C46.9121 102.158 46.4111 101.969 46.0947 101.591C45.7871 101.205 45.6333 100.682 45.6333 100.022V83.9385L48.0591 83.0947V100.088C48.0591 100.264 48.0986 100.427 48.1777 100.576C48.2568 100.717 48.3975 100.787 48.5996 100.787C48.8018 100.787 48.9907 100.708 49.1665 100.55C49.3511 100.383 49.4961 100.22 49.6016 100.062L49.9575 100.458ZM54.2817 84.7954L53.583 89.6074L52.291 90.0161L51.5 85.7446L54.2817 84.7954ZM56.1011 100.458C55.8989 100.888 55.6616 101.218 55.3892 101.446C55.1255 101.675 54.8706 101.842 54.6245 101.947C54.3345 102.07 54.04 102.141 53.7412 102.158C53.3545 102.158 53.0337 102.097 52.7788 101.974C52.5239 101.851 52.3218 101.688 52.1724 101.486C52.0229 101.284 51.9175 101.055 51.856 100.8C51.8032 100.545 51.7769 100.286 51.7769 100.022V92.6265L54.2026 91.7959V100.088C54.2026 100.299 54.251 100.466 54.3477 100.589C54.4443 100.712 54.5674 100.778 54.7168 100.787C54.875 100.787 55.042 100.73 55.2178 100.616C55.4023 100.501 55.5781 100.317 55.7451 100.062L56.1011 100.458ZM68.0718 100.431C67.9663 100.66 67.8345 100.875 67.6763 101.077C67.5181 101.279 67.3335 101.459 67.1226 101.618C66.9204 101.776 66.6963 101.903 66.4502 102C66.2129 102.088 65.9624 102.132 65.6987 102.132C65.0044 102.132 64.5034 101.943 64.1958 101.565C63.897 101.178 63.7476 100.655 63.7476 99.9961V99.7588C63.5894 100.058 63.4092 100.356 63.207 100.655C63.0137 100.954 62.7896 101.222 62.5347 101.459C62.2886 101.697 62.0117 101.89 61.7041 102.04C61.3965 102.189 61.0537 102.264 60.6758 102.264C60.1045 102.264 59.5991 102.154 59.1597 101.934C58.7202 101.714 58.3511 101.42 58.0522 101.051C57.7534 100.673 57.5293 100.233 57.3799 99.7324C57.2305 99.2314 57.1558 98.6997 57.1558 98.1372C57.1558 97.3726 57.2876 96.6123 57.5513 95.8564C57.8237 95.0918 58.2017 94.4106 58.6851 93.813C59.1772 93.2153 59.7617 92.7319 60.4385 92.3628C61.124 91.9849 61.8843 91.7959 62.7192 91.7959C63.0532 91.7959 63.3872 91.8267 63.7212 91.8882C64.0552 91.9497 64.3716 92.0508 64.6704 92.1914C64.978 92.3232 65.2549 92.499 65.501 92.7188C65.7559 92.9385 65.9624 93.2065 66.1206 93.5229L64.1562 94.3535C64.0508 94.1865 63.9277 94.0283 63.7871 93.8789C63.6553 93.7207 63.5059 93.5845 63.3389 93.4702C63.1807 93.356 63.0093 93.2637 62.8247 93.1934C62.6401 93.123 62.4468 93.0879 62.2446 93.0879C61.7876 93.0879 61.3789 93.2285 61.0186 93.5098C60.667 93.791 60.3638 94.1382 60.1089 94.5513C59.8628 94.9644 59.6738 95.4038 59.542 95.8696C59.4102 96.3354 59.3442 96.7573 59.3442 97.1353C59.3442 97.4692 59.375 97.8472 59.4365 98.269C59.5068 98.6821 59.6255 99.0732 59.7925 99.4424C59.9595 99.8115 60.1792 100.124 60.4517 100.378C60.7241 100.633 61.0669 100.761 61.48 100.761C61.8052 100.761 62.0864 100.69 62.3237 100.55C62.561 100.4 62.7632 100.211 62.9302 99.9829C63.0972 99.7456 63.2334 99.4775 63.3389 99.1787C63.4531 98.8711 63.5366 98.5591 63.5894 98.2427C63.6509 97.9263 63.6904 97.6143 63.708 97.3066C63.7344 96.9902 63.7476 96.709 63.7476 96.4629V95.5532L66.147 94.7095V100.062C66.147 100.238 66.1909 100.4 66.2788 100.55C66.3667 100.69 66.5029 100.761 66.6875 100.761C66.9072 100.761 67.105 100.682 67.2808 100.523C67.4653 100.356 67.6104 100.189 67.7158 100.022L68.0718 100.431ZM80.7412 103.938L79.937 106.074H70.9194L71.75 103.938H80.7412ZM87.0825 84.7954L86.3574 89.6074L85.0918 90.0161L84.314 85.7446L87.0825 84.7954ZM86.9771 100.919C86.9771 101.534 86.9023 102.114 86.7529 102.659C86.6123 103.204 86.4146 103.714 86.1597 104.188C85.9136 104.663 85.6191 105.103 85.2764 105.507C84.9336 105.92 84.5645 106.289 84.1689 106.614C83.5977 107.054 83.0088 107.392 82.4023 107.629C82.1475 107.735 81.875 107.818 81.585 107.88C81.2949 107.95 81.0049 107.985 80.7148 107.985C80.416 107.985 80.1172 107.941 79.8184 107.854C79.5107 107.766 79.2163 107.616 78.9351 107.405L80.4248 105.533C80.8818 105.902 81.3125 106.126 81.7168 106.206C82.1123 106.293 82.4595 106.315 82.7583 106.271C83.1099 106.219 83.4263 106.1 83.7075 105.916C83.9536 105.731 84.1382 105.454 84.2612 105.085C84.3843 104.725 84.4634 104.32 84.4985 103.872C84.5425 103.424 84.5601 102.958 84.5513 102.475C84.5513 102 84.5513 101.552 84.5513 101.13V92.6265L86.9771 91.7959V100.919ZM98.8027 99.4292C98.4951 99.8247 98.1567 100.194 97.7876 100.537C97.4272 100.879 97.0317 101.178 96.6011 101.433C96.1792 101.688 95.731 101.89 95.2563 102.04C94.7817 102.189 94.2896 102.264 93.7798 102.264C93.1294 102.264 92.5317 102.149 91.9868 101.921C91.4419 101.684 90.9717 101.363 90.5762 100.958C90.1807 100.545 89.873 100.062 89.6533 99.5083C89.4336 98.9458 89.3237 98.3438 89.3237 97.7021C89.3237 97.1748 89.3984 96.6562 89.5479 96.1465C89.6973 95.6367 89.9082 95.1577 90.1807 94.7095C90.4531 94.2612 90.7739 93.8481 91.1431 93.4702C91.521 93.0835 91.9341 92.7539 92.3823 92.4814C92.8306 92.209 93.3052 91.998 93.8062 91.8486C94.3071 91.6904 94.8213 91.6113 95.3486 91.6113C95.7178 91.6113 96.0649 91.6553 96.3901 91.7432C96.7241 91.8311 97.0186 91.9717 97.2734 92.165C97.5283 92.3496 97.7305 92.5913 97.8799 92.8901C98.0293 93.1802 98.104 93.5273 98.104 93.9316C98.104 94.2656 98.0029 94.6172 97.8008 94.9863C97.6074 95.3555 97.3481 95.7246 97.0229 96.0938C96.7065 96.4629 96.3462 96.8276 95.9419 97.188C95.5376 97.5396 95.1245 97.8691 94.7026 98.1768C94.2896 98.4756 93.8896 98.7393 93.5029 98.9678C93.1162 99.1963 92.7778 99.3721 92.4878 99.4951C92.813 99.8994 93.1909 100.229 93.6216 100.484C94.0522 100.739 94.5093 100.866 94.9927 100.866C95.3003 100.866 95.6123 100.809 95.9287 100.695C96.2451 100.572 96.5483 100.418 96.8384 100.233C97.1372 100.049 97.4185 99.8467 97.6821 99.627C97.9546 99.4072 98.1963 99.2007 98.4072 99.0073L98.8027 99.4292ZM95.6255 94.4194C95.6255 94.2173 95.5903 94.0239 95.52 93.8394C95.4585 93.6548 95.3662 93.4966 95.2432 93.3647C95.1201 93.2241 94.9707 93.1143 94.7949 93.0352C94.6279 92.9473 94.4346 92.9033 94.2148 92.9033C93.8193 92.9033 93.4546 93.0439 93.1206 93.3252C92.7866 93.5977 92.4966 93.936 92.2505 94.3403C92.0132 94.7446 91.8242 95.1753 91.6836 95.6323C91.5518 96.0806 91.4858 96.4761 91.4858 96.8188C91.4858 97.1528 91.5386 97.4956 91.644 97.8472C91.7495 98.1987 91.8945 98.5371 92.0791 98.8623C92.4307 98.6689 92.813 98.4009 93.2261 98.0581C93.6392 97.7153 94.0215 97.3418 94.373 96.9375C94.7334 96.5244 95.0322 96.0981 95.2695 95.6587C95.5068 95.2192 95.6255 94.8062 95.6255 94.4194ZM111.591 100.458C111.485 100.686 111.349 100.901 111.182 101.104C111.015 101.306 110.826 101.486 110.615 101.644C110.413 101.802 110.193 101.925 109.956 102.013C109.719 102.11 109.473 102.158 109.218 102.158C108.523 102.158 108.018 101.969 107.702 101.591C107.394 101.205 107.24 100.682 107.24 100.022V94.6567C107.24 94.5952 107.236 94.5249 107.227 94.4458C107.227 94.3579 107.214 94.2788 107.188 94.2085C107.161 94.1294 107.126 94.0635 107.082 94.0107C107.038 93.958 106.977 93.9316 106.897 93.9316C106.651 93.9316 106.401 94.0811 106.146 94.3799C105.9 94.6787 105.658 95.0654 105.421 95.54C105.192 96.0146 104.977 96.5464 104.775 97.1353C104.582 97.7241 104.41 98.3086 104.261 98.8887C104.111 99.46 103.993 99.9961 103.905 100.497C103.826 100.998 103.786 101.398 103.786 101.697L101.387 102.541V93.6812C101.387 93.5054 101.343 93.3472 101.255 93.2065C101.167 93.0571 101.031 92.9824 100.846 92.9824C100.626 92.9824 100.424 93.0659 100.24 93.2329C100.064 93.3911 99.9233 93.5493 99.8179 93.7075L99.4619 93.312C99.5674 93.0923 99.6992 92.8813 99.8574 92.6792C100.024 92.4683 100.209 92.2837 100.411 92.1255C100.622 91.9673 100.846 91.8442 101.083 91.7563C101.33 91.6597 101.584 91.6113 101.848 91.6113C102.534 91.6113 103.026 91.8047 103.325 92.1914C103.632 92.5693 103.786 93.0835 103.786 93.7339V98.0317C103.865 97.6714 103.971 97.2627 104.103 96.8057C104.243 96.3398 104.41 95.8696 104.604 95.395C104.797 94.9204 105.012 94.459 105.25 94.0107C105.496 93.5537 105.764 93.1494 106.054 92.7979C106.344 92.4375 106.66 92.1519 107.003 91.9409C107.346 91.7212 107.715 91.6113 108.11 91.6113C108.523 91.6113 108.835 91.7036 109.046 91.8882C109.257 92.064 109.407 92.2925 109.495 92.5737C109.591 92.8462 109.644 93.1494 109.653 93.4834C109.662 93.8174 109.666 94.1382 109.666 94.4458V100.088C109.666 100.264 109.71 100.427 109.798 100.576C109.886 100.717 110.022 100.787 110.207 100.787C110.409 100.787 110.598 100.708 110.773 100.55C110.958 100.383 111.103 100.22 111.208 100.062L111.591 100.458ZM124.062 100.458C123.957 100.686 123.821 100.901 123.654 101.104C123.487 101.306 123.298 101.486 123.087 101.644C122.885 101.802 122.665 101.925 122.428 102.013C122.19 102.11 121.944 102.158 121.689 102.158C120.995 102.158 120.49 101.969 120.173 101.591C119.866 101.205 119.712 100.682 119.712 100.022V94.6567C119.712 94.5952 119.708 94.5249 119.699 94.4458C119.699 94.3579 119.686 94.2788 119.659 94.2085C119.633 94.1294 119.598 94.0635 119.554 94.0107C119.51 93.958 119.448 93.9316 119.369 93.9316C119.123 93.9316 118.873 94.0811 118.618 94.3799C118.372 94.6787 118.13 95.0654 117.893 95.54C117.664 96.0146 117.449 96.5464 117.247 97.1353C117.053 97.7241 116.882 98.3086 116.732 98.8887C116.583 99.46 116.464 99.9961 116.376 100.497C116.297 100.998 116.258 101.398 116.258 101.697L113.858 102.541V93.6812C113.858 93.5054 113.814 93.3472 113.727 93.2065C113.639 93.0571 113.502 92.9824 113.318 92.9824C113.098 92.9824 112.896 93.0659 112.711 93.2329C112.536 93.3911 112.395 93.5493 112.29 93.7075L111.934 93.312C112.039 93.0923 112.171 92.8813 112.329 92.6792C112.496 92.4683 112.681 92.2837 112.883 92.1255C113.094 91.9673 113.318 91.8442 113.555 91.7563C113.801 91.6597 114.056 91.6113 114.32 91.6113C115.005 91.6113 115.498 91.8047 115.796 92.1914C116.104 92.5693 116.258 93.0835 116.258 93.7339V98.0317C116.337 97.6714 116.442 97.2627 116.574 96.8057C116.715 96.3398 116.882 95.8696 117.075 95.395C117.269 94.9204 117.484 94.459 117.721 94.0107C117.967 93.5537 118.235 93.1494 118.525 92.7979C118.815 92.4375 119.132 92.1519 119.475 91.9409C119.817 91.7212 120.187 91.6113 120.582 91.6113C120.995 91.6113 121.307 91.7036 121.518 91.8882C121.729 92.064 121.878 92.2925 121.966 92.5737C122.063 92.8462 122.116 93.1494 122.125 93.4834C122.133 93.8174 122.138 94.1382 122.138 94.4458V100.088C122.138 100.264 122.182 100.427 122.27 100.576C122.357 100.717 122.494 100.787 122.678 100.787C122.88 100.787 123.069 100.708 123.245 100.55C123.43 100.383 123.575 100.22 123.68 100.062L124.062 100.458ZM128.321 84.7954L127.622 89.6074L126.33 90.0161L125.539 85.7446L128.321 84.7954ZM130.14 100.458C129.938 100.888 129.701 101.218 129.428 101.446C129.165 101.675 128.91 101.842 128.664 101.947C128.374 102.07 128.079 102.141 127.78 102.158C127.394 102.158 127.073 102.097 126.818 101.974C126.563 101.851 126.361 101.688 126.211 101.486C126.062 101.284 125.957 101.055 125.895 100.8C125.842 100.545 125.816 100.286 125.816 100.022V92.6265L128.242 91.7959V100.088C128.242 100.299 128.29 100.466 128.387 100.589C128.483 100.712 128.606 100.778 128.756 100.787C128.914 100.787 129.081 100.73 129.257 100.616C129.441 100.501 129.617 100.317 129.784 100.062L130.14 100.458Z" fill="#F5D4FE"/>
<path d="M49.0781 107.477C48.8958 107.711 48.6953 107.93 48.4766 108.133C48.263 108.336 48.0286 108.513 47.7734 108.664C47.5234 108.815 47.2578 108.935 46.9766 109.023C46.6953 109.112 46.4036 109.156 46.1016 109.156C45.7161 109.156 45.362 109.089 45.0391 108.953C44.7161 108.812 44.4375 108.622 44.2031 108.383C43.9688 108.138 43.7865 107.852 43.6562 107.523C43.526 107.19 43.4609 106.833 43.4609 106.453C43.4609 106.141 43.5052 105.833 43.5938 105.531C43.6823 105.229 43.8073 104.945 43.9688 104.68C44.1302 104.414 44.3203 104.169 44.5391 103.945C44.763 103.716 45.0078 103.521 45.2734 103.359C45.5391 103.198 45.8203 103.073 46.1172 102.984C46.4141 102.891 46.7188 102.844 47.0312 102.844C47.25 102.844 47.4557 102.87 47.6484 102.922C47.8464 102.974 48.0208 103.057 48.1719 103.172C48.3229 103.281 48.4427 103.424 48.5312 103.602C48.6198 103.773 48.6641 103.979 48.6641 104.219C48.6641 104.417 48.6042 104.625 48.4844 104.844C48.3698 105.062 48.2161 105.281 48.0234 105.5C47.8359 105.719 47.6224 105.935 47.3828 106.148C47.1432 106.357 46.8984 106.552 46.6484 106.734C46.4036 106.911 46.1667 107.068 45.9375 107.203C45.7083 107.339 45.5078 107.443 45.3359 107.516C45.5286 107.755 45.7526 107.951 46.0078 108.102C46.263 108.253 46.5339 108.328 46.8203 108.328C47.0026 108.328 47.1875 108.294 47.375 108.227C47.5625 108.154 47.7422 108.062 47.9141 107.953C48.0911 107.844 48.2578 107.724 48.4141 107.594C48.5755 107.464 48.7188 107.341 48.8438 107.227L49.0781 107.477ZM47.1953 104.508C47.1953 104.388 47.1745 104.273 47.1328 104.164C47.0964 104.055 47.0417 103.961 46.9688 103.883C46.8958 103.799 46.8073 103.734 46.7031 103.688C46.6042 103.635 46.4896 103.609 46.3594 103.609C46.125 103.609 45.9089 103.693 45.7109 103.859C45.513 104.021 45.3411 104.221 45.1953 104.461C45.0547 104.701 44.9427 104.956 44.8594 105.227C44.7812 105.492 44.7422 105.727 44.7422 105.93C44.7422 106.128 44.7734 106.331 44.8359 106.539C44.8984 106.747 44.9844 106.948 45.0938 107.141C45.3021 107.026 45.5286 106.867 45.7734 106.664C46.0182 106.461 46.2448 106.24 46.4531 106C46.6667 105.755 46.8438 105.503 46.9844 105.242C47.125 104.982 47.1953 104.737 47.1953 104.508ZM58.7969 108.086C58.6771 108.341 58.5365 108.536 58.375 108.672C58.2135 108.807 58.0599 108.906 57.9141 108.969C57.7422 109.042 57.5677 109.083 57.3906 109.094C57.1562 109.094 56.9635 109.057 56.8125 108.984C56.6667 108.911 56.5495 108.815 56.4609 108.695C56.3724 108.576 56.3099 108.44 56.2734 108.289C56.2422 108.138 56.2266 107.984 56.2266 107.828V104.555C56.2266 104.471 56.2109 104.398 56.1797 104.336C56.1484 104.268 56.1068 104.229 56.0547 104.219C56.0026 104.208 55.9401 104.234 55.8672 104.297C55.7943 104.359 55.7161 104.471 55.6328 104.633C55.4922 105.049 55.3646 105.487 55.25 105.945C55.151 106.341 55.0599 106.789 54.9766 107.289C54.8984 107.784 54.8542 108.294 54.8438 108.82L53.4062 109.32V104.555C53.4062 104.471 53.3906 104.398 53.3594 104.336C53.3281 104.268 53.2839 104.229 53.2266 104.219C53.1745 104.208 53.112 104.234 53.0391 104.297C52.9661 104.359 52.8906 104.471 52.8125 104.633C52.6562 105.07 52.5208 105.526 52.4062 106C52.3542 106.203 52.3047 106.419 52.2578 106.648C52.2109 106.878 52.1693 107.115 52.1328 107.359C52.1016 107.599 52.0755 107.844 52.0547 108.094C52.0339 108.339 52.026 108.581 52.0312 108.82L50.6094 109.32V104.07C50.6094 103.945 50.5807 103.846 50.5234 103.773C50.4661 103.701 50.3906 103.664 50.2969 103.664C50.2083 103.659 50.1094 103.69 50 103.758C49.8906 103.826 49.7839 103.935 49.6797 104.086L49.4688 103.852C49.5885 103.602 49.7266 103.409 49.8828 103.273C50.0443 103.133 50.2005 103.031 50.3516 102.969C50.5234 102.896 50.7005 102.854 50.8828 102.844C51.112 102.844 51.2995 102.88 51.4453 102.953C51.5964 103.026 51.7135 103.122 51.7969 103.242C51.8854 103.357 51.9453 103.49 51.9766 103.641C52.013 103.792 52.0312 103.945 52.0312 104.102V105.75C52.125 105.281 52.2656 104.867 52.4531 104.508C52.6406 104.148 52.8359 103.846 53.0391 103.602C53.2474 103.352 53.4505 103.164 53.6484 103.039C53.8464 102.909 54.0052 102.844 54.125 102.844C54.276 102.844 54.3984 102.87 54.4922 102.922C54.5859 102.969 54.6589 103.042 54.7109 103.141C54.763 103.24 54.7969 103.362 54.8125 103.508C54.8333 103.648 54.8438 103.815 54.8438 104.008V105.75C54.9427 105.281 55.0833 104.867 55.2656 104.508C55.4531 104.148 55.651 103.846 55.8594 103.602C56.0677 103.352 56.2708 103.164 56.4688 103.039C56.6667 102.909 56.8255 102.844 56.9453 102.844C57.2422 102.844 57.4349 102.943 57.5234 103.141C57.6172 103.333 57.6641 103.622 57.6641 104.008V107.867C57.6641 107.992 57.6927 108.091 57.75 108.164C57.8073 108.237 57.8802 108.276 57.9688 108.281C58.0573 108.281 58.1536 108.247 58.2578 108.18C58.3672 108.112 58.474 108.003 58.5781 107.852L58.7969 108.086ZM61.3359 98.8047L60.9219 101.656L60.1562 101.898L59.6875 99.3672L61.3359 98.8047ZM62.4141 108.086C62.2943 108.341 62.1536 108.536 61.9922 108.672C61.8359 108.807 61.6849 108.906 61.5391 108.969C61.3672 109.042 61.1927 109.083 61.0156 109.094C60.7865 109.094 60.5964 109.057 60.4453 108.984C60.2943 108.911 60.1745 108.815 60.0859 108.695C59.9974 108.576 59.9349 108.44 59.8984 108.289C59.8672 108.138 59.8516 107.984 59.8516 107.828V103.445L61.2891 102.953V107.867C61.2891 107.992 61.3177 108.091 61.375 108.164C61.4323 108.237 61.5052 108.276 61.5938 108.281C61.6875 108.281 61.7865 108.247 61.8906 108.18C62 108.112 62.1042 108.003 62.2031 107.852L62.4141 108.086ZM66.0859 108.086C66.0234 108.221 65.9427 108.349 65.8438 108.469C65.75 108.589 65.6432 108.695 65.5234 108.789C65.4036 108.883 65.2708 108.956 65.125 109.008C64.9844 109.065 64.8385 109.094 64.6875 109.094C64.2812 109.094 63.9844 108.982 63.7969 108.758C63.6146 108.529 63.5234 108.219 63.5234 107.828V98.2969L64.9609 97.7969V107.867C64.9609 107.971 64.9844 108.068 65.0312 108.156C65.0781 108.24 65.1615 108.281 65.2812 108.281C65.401 108.281 65.513 108.234 65.6172 108.141C65.7266 108.042 65.8125 107.945 65.875 107.852L66.0859 108.086ZM68.6484 98.8047L68.2344 101.656L67.4688 101.898L67 99.3672L68.6484 98.8047ZM69.7266 108.086C69.6068 108.341 69.4661 108.536 69.3047 108.672C69.1484 108.807 68.9974 108.906 68.8516 108.969C68.6797 109.042 68.5052 109.083 68.3281 109.094C68.099 109.094 67.9089 109.057 67.7578 108.984C67.6068 108.911 67.487 108.815 67.3984 108.695C67.3099 108.576 67.2474 108.44 67.2109 108.289C67.1797 108.138 67.1641 107.984 67.1641 107.828V103.445L68.6016 102.953V107.867C68.6016 107.992 68.6302 108.091 68.6875 108.164C68.7448 108.237 68.8177 108.276 68.9062 108.281C69 108.281 69.099 108.247 69.2031 108.18C69.3125 108.112 69.4167 108.003 69.5156 107.852L69.7266 108.086ZM76.8203 108.07C76.7578 108.206 76.6797 108.333 76.5859 108.453C76.4922 108.573 76.3828 108.68 76.2578 108.773C76.138 108.867 76.0052 108.943 75.8594 109C75.7188 109.052 75.5703 109.078 75.4141 109.078C75.0026 109.078 74.7057 108.966 74.5234 108.742C74.3464 108.513 74.2578 108.203 74.2578 107.812V107.672C74.1641 107.849 74.0573 108.026 73.9375 108.203C73.8229 108.38 73.6901 108.539 73.5391 108.68C73.3932 108.82 73.2292 108.935 73.0469 109.023C72.8646 109.112 72.6615 109.156 72.4375 109.156C72.099 109.156 71.7995 109.091 71.5391 108.961C71.2786 108.831 71.0599 108.656 70.8828 108.438C70.7057 108.214 70.5729 107.953 70.4844 107.656C70.3958 107.359 70.3516 107.044 70.3516 106.711C70.3516 106.258 70.4297 105.807 70.5859 105.359C70.7474 104.906 70.9714 104.503 71.2578 104.148C71.5495 103.794 71.8958 103.508 72.2969 103.289C72.7031 103.065 73.1536 102.953 73.6484 102.953C73.8464 102.953 74.0443 102.971 74.2422 103.008C74.4401 103.044 74.6276 103.104 74.8047 103.188C74.987 103.266 75.151 103.37 75.2969 103.5C75.4479 103.63 75.5703 103.789 75.6641 103.977L74.5 104.469C74.4375 104.37 74.3646 104.276 74.2812 104.188C74.2031 104.094 74.1146 104.013 74.0156 103.945C73.9219 103.878 73.8203 103.823 73.7109 103.781C73.6016 103.74 73.487 103.719 73.3672 103.719C73.0964 103.719 72.8542 103.802 72.6406 103.969C72.4323 104.135 72.2526 104.341 72.1016 104.586C71.9557 104.831 71.8438 105.091 71.7656 105.367C71.6875 105.643 71.6484 105.893 71.6484 106.117C71.6484 106.315 71.6667 106.539 71.7031 106.789C71.7448 107.034 71.8151 107.266 71.9141 107.484C72.013 107.703 72.1432 107.888 72.3047 108.039C72.4661 108.19 72.6693 108.266 72.9141 108.266C73.1068 108.266 73.2734 108.224 73.4141 108.141C73.5547 108.052 73.6745 107.94 73.7734 107.805C73.8724 107.664 73.9531 107.505 74.0156 107.328C74.0833 107.146 74.1328 106.961 74.1641 106.773C74.2005 106.586 74.224 106.401 74.2344 106.219C74.25 106.031 74.2578 105.865 74.2578 105.719V105.18L75.6797 104.68V107.852C75.6797 107.956 75.7057 108.052 75.7578 108.141C75.8099 108.224 75.8906 108.266 76 108.266C76.1302 108.266 76.2474 108.219 76.3516 108.125C76.4609 108.026 76.5469 107.927 76.6094 107.828L76.8203 108.07ZM84.3281 110.148L83.8516 111.414H78.5078L79 110.148H84.3281ZM88.0859 98.8047L87.6562 101.656L86.9062 101.898L86.4453 99.3672L88.0859 98.8047ZM88.0234 108.359C88.0234 108.724 87.9792 109.068 87.8906 109.391C87.8073 109.714 87.6901 110.016 87.5391 110.297C87.3932 110.578 87.2188 110.839 87.0156 111.078C86.8125 111.323 86.5938 111.542 86.3594 111.734C86.0208 111.995 85.6719 112.195 85.3125 112.336C85.1615 112.398 85 112.448 84.8281 112.484C84.6562 112.526 84.4844 112.547 84.3125 112.547C84.1354 112.547 83.9583 112.521 83.7812 112.469C83.599 112.417 83.4245 112.328 83.2578 112.203L84.1406 111.094C84.4115 111.312 84.6667 111.445 84.9062 111.492C85.1406 111.544 85.3464 111.557 85.5234 111.531C85.7318 111.5 85.9193 111.43 86.0859 111.32C86.2318 111.211 86.3411 111.047 86.4141 110.828C86.487 110.615 86.5339 110.375 86.5547 110.109C86.5807 109.844 86.5911 109.568 86.5859 109.281C86.5859 109 86.5859 108.734 86.5859 108.484V103.445L88.0234 102.953V108.359ZM95.0312 107.477C94.849 107.711 94.6484 107.93 94.4297 108.133C94.2161 108.336 93.9818 108.513 93.7266 108.664C93.4766 108.815 93.2109 108.935 92.9297 109.023C92.6484 109.112 92.3568 109.156 92.0547 109.156C91.6693 109.156 91.3151 109.089 90.9922 108.953C90.6693 108.812 90.3906 108.622 90.1562 108.383C89.9219 108.138 89.7396 107.852 89.6094 107.523C89.4792 107.19 89.4141 106.833 89.4141 106.453C89.4141 106.141 89.4583 105.833 89.5469 105.531C89.6354 105.229 89.7604 104.945 89.9219 104.68C90.0833 104.414 90.2734 104.169 90.4922 103.945C90.7161 103.716 90.9609 103.521 91.2266 103.359C91.4922 103.198 91.7734 103.073 92.0703 102.984C92.3672 102.891 92.6719 102.844 92.9844 102.844C93.2031 102.844 93.4089 102.87 93.6016 102.922C93.7995 102.974 93.974 103.057 94.125 103.172C94.276 103.281 94.3958 103.424 94.4844 103.602C94.5729 103.773 94.6172 103.979 94.6172 104.219C94.6172 104.417 94.5573 104.625 94.4375 104.844C94.3229 105.062 94.1693 105.281 93.9766 105.5C93.7891 105.719 93.5755 105.935 93.3359 106.148C93.0964 106.357 92.8516 106.552 92.6016 106.734C92.3568 106.911 92.1198 107.068 91.8906 107.203C91.6615 107.339 91.4609 107.443 91.2891 107.516C91.4818 107.755 91.7057 107.951 91.9609 108.102C92.2161 108.253 92.487 108.328 92.7734 108.328C92.9557 108.328 93.1406 108.294 93.3281 108.227C93.5156 108.154 93.6953 108.062 93.8672 107.953C94.0443 107.844 94.2109 107.724 94.3672 107.594C94.5286 107.464 94.6719 107.341 94.7969 107.227L95.0312 107.477ZM93.1484 104.508C93.1484 104.388 93.1276 104.273 93.0859 104.164C93.0495 104.055 92.9948 103.961 92.9219 103.883C92.849 103.799 92.7604 103.734 92.6562 103.688C92.5573 103.635 92.4427 103.609 92.3125 103.609C92.0781 103.609 91.862 103.693 91.6641 103.859C91.4661 104.021 91.2943 104.221 91.1484 104.461C91.0078 104.701 90.8958 104.956 90.8125 105.227C90.7344 105.492 90.6953 105.727 90.6953 105.93C90.6953 106.128 90.7266 106.331 90.7891 106.539C90.8516 106.747 90.9375 106.948 91.0469 107.141C91.2552 107.026 91.4818 106.867 91.7266 106.664C91.9714 106.461 92.1979 106.24 92.4062 106C92.6198 105.755 92.7969 105.503 92.9375 105.242C93.0781 104.982 93.1484 104.737 93.1484 104.508ZM102.609 108.086C102.547 108.221 102.466 108.349 102.367 108.469C102.268 108.589 102.156 108.695 102.031 108.789C101.911 108.883 101.781 108.956 101.641 109.008C101.5 109.065 101.354 109.094 101.203 109.094C100.792 109.094 100.492 108.982 100.305 108.758C100.122 108.529 100.031 108.219 100.031 107.828V104.648C100.031 104.612 100.029 104.57 100.023 104.523C100.023 104.471 100.016 104.424 100 104.383C99.9844 104.336 99.9635 104.297 99.9375 104.266C99.9115 104.234 99.875 104.219 99.8281 104.219C99.6823 104.219 99.5339 104.307 99.3828 104.484C99.237 104.661 99.0938 104.891 98.9531 105.172C98.8177 105.453 98.6901 105.768 98.5703 106.117C98.4557 106.466 98.3542 106.812 98.2656 107.156C98.1771 107.495 98.1068 107.812 98.0547 108.109C98.0078 108.406 97.9844 108.643 97.9844 108.82L96.5625 109.32V104.07C96.5625 103.966 96.5365 103.872 96.4844 103.789C96.4323 103.701 96.3516 103.656 96.2422 103.656C96.112 103.656 95.9922 103.706 95.8828 103.805C95.7786 103.898 95.6953 103.992 95.6328 104.086L95.4219 103.852C95.4844 103.721 95.5625 103.596 95.6562 103.477C95.7552 103.352 95.8646 103.242 95.9844 103.148C96.1094 103.055 96.2422 102.982 96.3828 102.93C96.5286 102.872 96.6797 102.844 96.8359 102.844C97.2422 102.844 97.5339 102.958 97.7109 103.188C97.8932 103.411 97.9844 103.716 97.9844 104.102V106.648C98.0312 106.435 98.0938 106.193 98.1719 105.922C98.2552 105.646 98.3542 105.367 98.4688 105.086C98.5833 104.805 98.7109 104.531 98.8516 104.266C98.9974 103.995 99.1562 103.755 99.3281 103.547C99.5 103.333 99.6875 103.164 99.8906 103.039C100.094 102.909 100.312 102.844 100.547 102.844C100.792 102.844 100.977 102.898 101.102 103.008C101.227 103.112 101.315 103.247 101.367 103.414C101.424 103.576 101.456 103.755 101.461 103.953C101.466 104.151 101.469 104.341 101.469 104.523V107.867C101.469 107.971 101.495 108.068 101.547 108.156C101.599 108.24 101.68 108.281 101.789 108.281C101.909 108.281 102.021 108.234 102.125 108.141C102.234 108.042 102.32 107.945 102.383 107.852L102.609 108.086ZM110 108.086C109.938 108.221 109.857 108.349 109.758 108.469C109.659 108.589 109.547 108.695 109.422 108.789C109.302 108.883 109.172 108.956 109.031 109.008C108.891 109.065 108.745 109.094 108.594 109.094C108.182 109.094 107.883 108.982 107.695 108.758C107.513 108.529 107.422 108.219 107.422 107.828V104.648C107.422 104.612 107.419 104.57 107.414 104.523C107.414 104.471 107.406 104.424 107.391 104.383C107.375 104.336 107.354 104.297 107.328 104.266C107.302 104.234 107.266 104.219 107.219 104.219C107.073 104.219 106.924 104.307 106.773 104.484C106.628 104.661 106.484 104.891 106.344 105.172C106.208 105.453 106.081 105.768 105.961 106.117C105.846 106.466 105.745 106.812 105.656 107.156C105.568 107.495 105.497 107.812 105.445 108.109C105.398 108.406 105.375 108.643 105.375 108.82L103.953 109.32V104.07C103.953 103.966 103.927 103.872 103.875 103.789C103.823 103.701 103.742 103.656 103.633 103.656C103.503 103.656 103.383 103.706 103.273 103.805C103.169 103.898 103.086 103.992 103.023 104.086L102.812 103.852C102.875 103.721 102.953 103.596 103.047 103.477C103.146 103.352 103.255 103.242 103.375 103.148C103.5 103.055 103.633 102.982 103.773 102.93C103.919 102.872 104.07 102.844 104.227 102.844C104.633 102.844 104.924 102.958 105.102 103.188C105.284 103.411 105.375 103.716 105.375 104.102V106.648C105.422 106.435 105.484 106.193 105.562 105.922C105.646 105.646 105.745 105.367 105.859 105.086C105.974 104.805 106.102 104.531 106.242 104.266C106.388 103.995 106.547 103.755 106.719 103.547C106.891 103.333 107.078 103.164 107.281 103.039C107.484 102.909 107.703 102.844 107.938 102.844C108.182 102.844 108.367 102.898 108.492 103.008C108.617 103.112 108.706 103.247 108.758 103.414C108.815 103.576 108.846 103.755 108.852 103.953C108.857 104.151 108.859 104.341 108.859 104.523V107.867C108.859 107.971 108.885 108.068 108.938 108.156C108.99 108.24 109.07 108.281 109.18 108.281C109.299 108.281 109.411 108.234 109.516 108.141C109.625 108.042 109.711 107.945 109.773 107.852L110 108.086ZM112.523 98.8047L112.109 101.656L111.344 101.898L110.875 99.3672L112.523 98.8047ZM113.602 108.086C113.482 108.341 113.341 108.536 113.18 108.672C113.023 108.807 112.872 108.906 112.727 108.969C112.555 109.042 112.38 109.083 112.203 109.094C111.974 109.094 111.784 109.057 111.633 108.984C111.482 108.911 111.362 108.815 111.273 108.695C111.185 108.576 111.122 108.44 111.086 108.289C111.055 108.138 111.039 107.984 111.039 107.828V103.445L112.477 102.953V107.867C112.477 107.992 112.505 108.091 112.562 108.164C112.62 108.237 112.693 108.276 112.781 108.281C112.875 108.281 112.974 108.247 113.078 108.18C113.188 108.112 113.292 108.003 113.391 107.852L113.602 108.086Z" fill="#F8B739"/>
</g>
<defs>
<clipPath id="clip0">
<rect width="595" height="842" fill="white" transform="translate(-264 -584)"/>
</clipPath>
</defs>
</svg>
