<svg width="189" height="81" viewBox="0 0 189 81" fill="none" xmlns="http://www.w3.org/2000/svg">
<path d="M15.1953 33.1914C14.7396 33.7773 14.2383 34.3242 13.6914 34.832C13.1576 35.3398 12.5716 35.7826 11.9336 36.1602C11.3086 36.5378 10.6445 36.8372 9.94141 37.0586C9.23828 37.2799 8.50911 37.3906 7.75391 37.3906C6.79036 37.3906 5.90495 37.2214 5.09766 36.8828C4.29036 36.5312 3.59375 36.056 3.00781 35.457C2.42188 34.8451 1.96615 34.1289 1.64062 33.3086C1.3151 32.4753 1.15234 31.5833 1.15234 30.6328C1.15234 29.8516 1.26302 29.0833 1.48438 28.3281C1.70573 27.5729 2.01823 26.8633 2.42188 26.1992C2.82552 25.5352 3.30078 24.9232 3.84766 24.3633C4.40755 23.7904 5.01953 23.3021 5.68359 22.8984C6.34766 22.4948 7.05078 22.1823 7.79297 21.9609C8.53516 21.7266 9.29688 21.6094 10.0781 21.6094C10.625 21.6094 11.1393 21.6745 11.6211 21.8047C12.1159 21.9349 12.5521 22.1432 12.9297 22.4297C13.3073 22.7031 13.6068 23.0612 13.8281 23.5039C14.0495 23.9336 14.1602 24.4479 14.1602 25.0469C14.1602 25.5417 14.0104 26.0625 13.7109 26.6094C13.4245 27.1562 13.0404 27.7031 12.5586 28.25C12.0898 28.7969 11.556 29.3372 10.957 29.8711C10.3581 30.3919 9.74609 30.8802 9.12109 31.3359C8.50911 31.7786 7.91667 32.1693 7.34375 32.5078C6.77083 32.8464 6.26953 33.1068 5.83984 33.2891C6.32161 33.888 6.88151 34.3763 7.51953 34.7539C8.15755 35.1315 8.83464 35.3203 9.55078 35.3203C10.0065 35.3203 10.4688 35.2357 10.9375 35.0664C11.4062 34.8841 11.8555 34.6562 12.2852 34.3828C12.7279 34.1094 13.1445 33.8099 13.5352 33.4844C13.9388 33.1589 14.2969 32.8529 14.6094 32.5664L15.1953 33.1914ZM10.4883 25.7695C10.4883 25.4701 10.4362 25.1836 10.332 24.9102C10.2409 24.6367 10.1042 24.4023 9.92188 24.207C9.73958 23.9987 9.51823 23.8359 9.25781 23.7188C9.01042 23.5885 8.72396 23.5234 8.39844 23.5234C7.8125 23.5234 7.27214 23.7318 6.77734 24.1484C6.28255 24.5521 5.85286 25.0534 5.48828 25.6523C5.13672 26.2513 4.85677 26.8893 4.64844 27.5664C4.45312 28.2305 4.35547 28.8164 4.35547 29.3242C4.35547 29.819 4.43359 30.3268 4.58984 30.8477C4.74609 31.3685 4.96094 31.8698 5.23438 32.3516C5.75521 32.0651 6.32161 31.668 6.93359 31.1602C7.54557 30.6523 8.11198 30.099 8.63281 29.5C9.16667 28.888 9.60938 28.2565 9.96094 27.6055C10.3125 26.9544 10.4883 26.3424 10.4883 25.7695ZM39.4922 34.7148C39.1927 35.3529 38.8411 35.8411 38.4375 36.1797C38.0339 36.5182 37.6497 36.7656 37.2852 36.9219C36.8555 37.1042 36.4193 37.2083 35.9766 37.2344C35.3906 37.2344 34.9089 37.1432 34.5312 36.9609C34.1667 36.7786 33.8737 36.5378 33.6523 36.2383C33.431 35.9388 33.2747 35.6003 33.1836 35.2227C33.1055 34.8451 33.0664 34.4609 33.0664 34.0703V25.8867C33.0664 25.6784 33.0273 25.4961 32.9492 25.3398C32.8711 25.1706 32.7669 25.0729 32.6367 25.0469C32.5065 25.0208 32.3503 25.0859 32.168 25.2422C31.9857 25.3984 31.7904 25.6784 31.582 26.082C31.2305 27.1237 30.9115 28.2174 30.625 29.3633C30.3776 30.3529 30.1497 31.4727 29.9414 32.7227C29.7461 33.9596 29.6354 35.2357 29.6094 36.5508L26.0156 37.8008V25.8867C26.0156 25.6784 25.9766 25.4961 25.8984 25.3398C25.8203 25.1706 25.7096 25.0729 25.5664 25.0469C25.4362 25.0208 25.2799 25.0859 25.0977 25.2422C24.9154 25.3984 24.7266 25.6784 24.5312 26.082C24.1406 27.1758 23.8021 28.3151 23.5156 29.5C23.3854 30.0078 23.2617 30.5482 23.1445 31.1211C23.0273 31.694 22.9232 32.2865 22.832 32.8984C22.7539 33.4974 22.6888 34.1094 22.6367 34.7344C22.5846 35.3464 22.5651 35.9518 22.5781 36.5508L19.0234 37.8008V24.6758C19.0234 24.3633 18.9518 24.1159 18.8086 23.9336C18.6654 23.7513 18.4766 23.6602 18.2422 23.6602C18.0208 23.6471 17.7734 23.7253 17.5 23.8945C17.2266 24.0638 16.9596 24.3372 16.6992 24.7148L16.1719 24.1289C16.4714 23.5039 16.8164 23.0221 17.207 22.6836C17.6107 22.332 18.0013 22.0781 18.3789 21.9219C18.8086 21.7396 19.2513 21.6354 19.707 21.6094C20.2799 21.6094 20.7487 21.7005 21.1133 21.8828C21.4909 22.0651 21.7839 22.306 21.9922 22.6055C22.2135 22.8919 22.3633 23.224 22.4414 23.6016C22.5326 23.9792 22.5781 24.3633 22.5781 24.7539V28.875C22.8125 27.7031 23.1641 26.668 23.6328 25.7695C24.1016 24.8711 24.5898 24.1159 25.0977 23.5039C25.6185 22.8789 26.1263 22.4102 26.6211 22.0977C27.1159 21.7721 27.513 21.6094 27.8125 21.6094C28.1901 21.6094 28.4961 21.6745 28.7305 21.8047C28.9648 21.9219 29.1471 22.1042 29.2773 22.3516C29.4076 22.599 29.4922 22.9049 29.5312 23.2695C29.5833 23.6211 29.6094 24.0378 29.6094 24.5195V28.875C29.8568 27.7031 30.2083 26.668 30.6641 25.7695C31.1328 24.8711 31.6276 24.1159 32.1484 23.5039C32.6693 22.8789 33.1771 22.4102 33.6719 22.0977C34.1667 21.7721 34.5638 21.6094 34.8633 21.6094C35.6055 21.6094 36.0872 21.8568 36.3086 22.3516C36.543 22.8333 36.6602 23.556 36.6602 24.5195V34.168C36.6602 34.4805 36.7318 34.7279 36.875 34.9102C37.0182 35.0924 37.2005 35.1901 37.4219 35.2031C37.6432 35.2031 37.8841 35.1185 38.1445 34.9492C38.418 34.7799 38.6849 34.5065 38.9453 34.1289L39.4922 34.7148ZM45.8398 11.5117L44.8047 18.6406L42.8906 19.2461L41.7188 12.918L45.8398 11.5117ZM48.5352 34.7148C48.2357 35.3529 47.8841 35.8411 47.4805 36.1797C47.0898 36.5182 46.7122 36.7656 46.3477 36.9219C45.918 37.1042 45.4818 37.2083 45.0391 37.2344C44.4661 37.2344 43.9909 37.1432 43.6133 36.9609C43.2357 36.7786 42.9362 36.5378 42.7148 36.2383C42.4935 35.9388 42.3372 35.6003 42.2461 35.2227C42.168 34.8451 42.1289 34.4609 42.1289 34.0703V23.1133L45.7227 21.8828V34.168C45.7227 34.4805 45.7943 34.7279 45.9375 34.9102C46.0807 35.0924 46.263 35.1901 46.4844 35.2031C46.7188 35.2031 46.9661 35.1185 47.2266 34.9492C47.5 34.7799 47.7604 34.5065 48.0078 34.1289L48.5352 34.7148ZM57.7148 34.7148C57.5586 35.0534 57.3568 35.3724 57.1094 35.6719C56.875 35.9714 56.6081 36.2383 56.3086 36.4727C56.0091 36.707 55.6771 36.8893 55.3125 37.0195C54.9609 37.1628 54.5964 37.2344 54.2188 37.2344C53.2031 37.2344 52.4609 36.9544 51.9922 36.3945C51.5365 35.8216 51.3086 35.0469 51.3086 34.0703V10.2422L54.9023 8.99219V34.168C54.9023 34.4284 54.9609 34.6693 55.0781 34.8906C55.1953 35.099 55.4036 35.2031 55.7031 35.2031C56.0026 35.2031 56.2826 35.0859 56.543 34.8516C56.8164 34.6042 57.0312 34.3633 57.1875 34.1289L57.7148 34.7148ZM64.1211 11.5117L63.0859 18.6406L61.1719 19.2461L60 12.918L64.1211 11.5117ZM66.8164 34.7148C66.5169 35.3529 66.1654 35.8411 65.7617 36.1797C65.3711 36.5182 64.9935 36.7656 64.6289 36.9219C64.1992 37.1042 63.763 37.2083 63.3203 37.2344C62.7474 37.2344 62.2721 37.1432 61.8945 36.9609C61.5169 36.7786 61.2174 36.5378 60.9961 36.2383C60.7747 35.9388 60.6185 35.6003 60.5273 35.2227C60.4492 34.8451 60.4102 34.4609 60.4102 34.0703V23.1133L64.0039 21.8828V34.168C64.0039 34.4805 64.0755 34.7279 64.2188 34.9102C64.362 35.0924 64.5443 35.1901 64.7656 35.2031C65 35.2031 65.2474 35.1185 65.5078 34.9492C65.7812 34.7799 66.0417 34.5065 66.2891 34.1289L66.8164 34.7148ZM84.5508 34.6758C84.3945 35.0143 84.1992 35.3333 83.9648 35.6328C83.7305 35.9323 83.457 36.1992 83.1445 36.4336C82.8451 36.668 82.513 36.8568 82.1484 37C81.7969 37.1302 81.4258 37.1953 81.0352 37.1953C80.0065 37.1953 79.2643 36.9154 78.8086 36.3555C78.3659 35.7826 78.1445 35.0078 78.1445 34.0312V33.6797C77.9102 34.1224 77.6432 34.5651 77.3438 35.0078C77.0573 35.4505 76.7253 35.8477 76.3477 36.1992C75.9831 36.5508 75.5729 36.8372 75.1172 37.0586C74.6615 37.2799 74.1536 37.3906 73.5938 37.3906C72.7474 37.3906 71.9987 37.2279 71.3477 36.9023C70.6966 36.5768 70.1497 36.1406 69.707 35.5938C69.2643 35.0339 68.9323 34.3828 68.7109 33.6406C68.4896 32.8984 68.3789 32.1107 68.3789 31.2773C68.3789 30.1445 68.5742 29.0182 68.9648 27.8984C69.3685 26.7656 69.9284 25.7565 70.6445 24.8711C71.3737 23.9857 72.2396 23.2695 73.2422 22.7227C74.2578 22.1628 75.3841 21.8828 76.6211 21.8828C77.1159 21.8828 77.6107 21.9284 78.1055 22.0195C78.6003 22.1107 79.069 22.2604 79.5117 22.4688C79.9674 22.6641 80.3776 22.9245 80.7422 23.25C81.1198 23.5755 81.4258 23.9727 81.6602 24.4414L78.75 25.6719C78.5938 25.4245 78.4115 25.1901 78.2031 24.9688C78.0078 24.7344 77.7865 24.5326 77.5391 24.3633C77.3047 24.194 77.0508 24.0573 76.7773 23.9531C76.5039 23.849 76.2174 23.7969 75.918 23.7969C75.2409 23.7969 74.6354 24.0052 74.1016 24.4219C73.5807 24.8385 73.1315 25.3529 72.7539 25.9648C72.3893 26.5768 72.1094 27.2279 71.9141 27.918C71.7188 28.6081 71.6211 29.2331 71.6211 29.793C71.6211 30.2878 71.6667 30.8477 71.7578 31.4727C71.862 32.0846 72.0378 32.6641 72.2852 33.2109C72.5326 33.7578 72.8581 34.2201 73.2617 34.5977C73.6654 34.9753 74.1732 35.1641 74.7852 35.1641C75.2669 35.1641 75.6836 35.0599 76.0352 34.8516C76.3867 34.6302 76.6862 34.3503 76.9336 34.0117C77.181 33.6602 77.3828 33.263 77.5391 32.8203C77.7083 32.3646 77.832 31.9023 77.9102 31.4336C78.0013 30.9648 78.0599 30.5026 78.0859 30.0469C78.125 29.5781 78.1445 29.1615 78.1445 28.7969V27.4492L81.6992 26.1992V34.1289C81.6992 34.3893 81.7643 34.6302 81.8945 34.8516C82.0247 35.0599 82.2266 35.1641 82.5 35.1641C82.8255 35.1641 83.1185 35.0469 83.3789 34.8125C83.6523 34.5651 83.8672 34.3177 84.0234 34.0703L84.5508 34.6758ZM103.32 39.8711L102.129 43.0352H88.7695L90 39.8711H103.32ZM112.715 11.5117L111.641 18.6406L109.766 19.2461L108.613 12.918L112.715 11.5117ZM112.559 35.3984C112.559 36.3099 112.448 37.1693 112.227 37.9766C112.018 38.7839 111.725 39.5391 111.348 40.2422C110.983 40.9453 110.547 41.5964 110.039 42.1953C109.531 42.8073 108.984 43.3542 108.398 43.8359C107.552 44.487 106.68 44.9883 105.781 45.3398C105.404 45.4961 105 45.6198 104.57 45.7109C104.141 45.8151 103.711 45.8672 103.281 45.8672C102.839 45.8672 102.396 45.8021 101.953 45.6719C101.497 45.5417 101.061 45.3203 100.645 45.0078L102.852 42.2344C103.529 42.7812 104.167 43.1133 104.766 43.2305C105.352 43.3607 105.866 43.3932 106.309 43.3281C106.829 43.25 107.298 43.0742 107.715 42.8008C108.079 42.5273 108.353 42.1172 108.535 41.5703C108.717 41.0365 108.835 40.4375 108.887 39.7734C108.952 39.1094 108.978 38.4193 108.965 37.7031C108.965 37 108.965 36.3359 108.965 35.7109V23.1133L112.559 21.8828V35.3984ZM130.078 33.1914C129.622 33.7773 129.121 34.3242 128.574 34.832C128.04 35.3398 127.454 35.7826 126.816 36.1602C126.191 36.5378 125.527 36.8372 124.824 37.0586C124.121 37.2799 123.392 37.3906 122.637 37.3906C121.673 37.3906 120.788 37.2214 119.98 36.8828C119.173 36.5312 118.477 36.056 117.891 35.457C117.305 34.8451 116.849 34.1289 116.523 33.3086C116.198 32.4753 116.035 31.5833 116.035 30.6328C116.035 29.8516 116.146 29.0833 116.367 28.3281C116.589 27.5729 116.901 26.8633 117.305 26.1992C117.708 25.5352 118.184 24.9232 118.73 24.3633C119.29 23.7904 119.902 23.3021 120.566 22.8984C121.23 22.4948 121.934 22.1823 122.676 21.9609C123.418 21.7266 124.18 21.6094 124.961 21.6094C125.508 21.6094 126.022 21.6745 126.504 21.8047C126.999 21.9349 127.435 22.1432 127.812 22.4297C128.19 22.7031 128.49 23.0612 128.711 23.5039C128.932 23.9336 129.043 24.4479 129.043 25.0469C129.043 25.5417 128.893 26.0625 128.594 26.6094C128.307 27.1562 127.923 27.7031 127.441 28.25C126.973 28.7969 126.439 29.3372 125.84 29.8711C125.241 30.3919 124.629 30.8802 124.004 31.3359C123.392 31.7786 122.799 32.1693 122.227 32.5078C121.654 32.8464 121.152 33.1068 120.723 33.2891C121.204 33.888 121.764 34.3763 122.402 34.7539C123.04 35.1315 123.717 35.3203 124.434 35.3203C124.889 35.3203 125.352 35.2357 125.82 35.0664C126.289 34.8841 126.738 34.6562 127.168 34.3828C127.611 34.1094 128.027 33.8099 128.418 33.4844C128.822 33.1589 129.18 32.8529 129.492 32.5664L130.078 33.1914ZM125.371 25.7695C125.371 25.4701 125.319 25.1836 125.215 24.9102C125.124 24.6367 124.987 24.4023 124.805 24.207C124.622 23.9987 124.401 23.8359 124.141 23.7188C123.893 23.5885 123.607 23.5234 123.281 23.5234C122.695 23.5234 122.155 23.7318 121.66 24.1484C121.165 24.5521 120.736 25.0534 120.371 25.6523C120.02 26.2513 119.74 26.8893 119.531 27.5664C119.336 28.2305 119.238 28.8164 119.238 29.3242C119.238 29.819 119.316 30.3268 119.473 30.8477C119.629 31.3685 119.844 31.8698 120.117 32.3516C120.638 32.0651 121.204 31.668 121.816 31.1602C122.428 30.6523 122.995 30.099 123.516 29.5C124.049 28.888 124.492 28.2565 124.844 27.6055C125.195 26.9544 125.371 26.3424 125.371 25.7695ZM149.023 34.7148C148.867 35.0534 148.665 35.3724 148.418 35.6719C148.171 35.9714 147.891 36.2383 147.578 36.4727C147.279 36.707 146.953 36.8893 146.602 37.0195C146.25 37.1628 145.885 37.2344 145.508 37.2344C144.479 37.2344 143.73 36.9544 143.262 36.3945C142.806 35.8216 142.578 35.0469 142.578 34.0703V26.1211C142.578 26.0299 142.572 25.9258 142.559 25.8086C142.559 25.6784 142.539 25.5612 142.5 25.457C142.461 25.3398 142.409 25.2422 142.344 25.1641C142.279 25.0859 142.188 25.0469 142.07 25.0469C141.706 25.0469 141.335 25.2682 140.957 25.7109C140.592 26.1536 140.234 26.7266 139.883 27.4297C139.544 28.1328 139.225 28.9206 138.926 29.793C138.639 30.6654 138.385 31.5312 138.164 32.3906C137.943 33.237 137.767 34.0312 137.637 34.7734C137.52 35.5156 137.461 36.1081 137.461 36.5508L133.906 37.8008V24.6758C133.906 24.4154 133.841 24.181 133.711 23.9727C133.581 23.7513 133.379 23.6406 133.105 23.6406C132.78 23.6406 132.48 23.7643 132.207 24.0117C131.947 24.2461 131.738 24.4805 131.582 24.7148L131.055 24.1289C131.211 23.8034 131.406 23.4909 131.641 23.1914C131.888 22.8789 132.161 22.6055 132.461 22.3711C132.773 22.1367 133.105 21.9544 133.457 21.8242C133.822 21.681 134.199 21.6094 134.59 21.6094C135.605 21.6094 136.335 21.8958 136.777 22.4688C137.233 23.0286 137.461 23.7904 137.461 24.7539V31.1211C137.578 30.5872 137.734 29.9818 137.93 29.3047C138.138 28.6146 138.385 27.918 138.672 27.2148C138.958 26.5117 139.277 25.8281 139.629 25.1641C139.993 24.487 140.391 23.888 140.82 23.3672C141.25 22.8333 141.719 22.4102 142.227 22.0977C142.734 21.7721 143.281 21.6094 143.867 21.6094C144.479 21.6094 144.941 21.7461 145.254 22.0195C145.566 22.2799 145.788 22.6185 145.918 23.0352C146.061 23.4388 146.139 23.888 146.152 24.3828C146.165 24.8776 146.172 25.3529 146.172 25.8086V34.168C146.172 34.4284 146.237 34.6693 146.367 34.8906C146.497 35.099 146.699 35.2031 146.973 35.2031C147.272 35.2031 147.552 35.0859 147.812 34.8516C148.086 34.6042 148.301 34.3633 148.457 34.1289L149.023 34.7148ZM167.5 34.7148C167.344 35.0534 167.142 35.3724 166.895 35.6719C166.647 35.9714 166.367 36.2383 166.055 36.4727C165.755 36.707 165.43 36.8893 165.078 37.0195C164.727 37.1628 164.362 37.2344 163.984 37.2344C162.956 37.2344 162.207 36.9544 161.738 36.3945C161.283 35.8216 161.055 35.0469 161.055 34.0703V26.1211C161.055 26.0299 161.048 25.9258 161.035 25.8086C161.035 25.6784 161.016 25.5612 160.977 25.457C160.938 25.3398 160.885 25.2422 160.82 25.1641C160.755 25.0859 160.664 25.0469 160.547 25.0469C160.182 25.0469 159.811 25.2682 159.434 25.7109C159.069 26.1536 158.711 26.7266 158.359 27.4297C158.021 28.1328 157.702 28.9206 157.402 29.793C157.116 30.6654 156.862 31.5312 156.641 32.3906C156.419 33.237 156.243 34.0312 156.113 34.7734C155.996 35.5156 155.938 36.1081 155.938 36.5508L152.383 37.8008V24.6758C152.383 24.4154 152.318 24.181 152.188 23.9727C152.057 23.7513 151.855 23.6406 151.582 23.6406C151.257 23.6406 150.957 23.7643 150.684 24.0117C150.423 24.2461 150.215 24.4805 150.059 24.7148L149.531 24.1289C149.688 23.8034 149.883 23.4909 150.117 23.1914C150.365 22.8789 150.638 22.6055 150.938 22.3711C151.25 22.1367 151.582 21.9544 151.934 21.8242C152.298 21.681 152.676 21.6094 153.066 21.6094C154.082 21.6094 154.811 21.8958 155.254 22.4688C155.71 23.0286 155.938 23.7904 155.938 24.7539V31.1211C156.055 30.5872 156.211 29.9818 156.406 29.3047C156.615 28.6146 156.862 27.918 157.148 27.2148C157.435 26.5117 157.754 25.8281 158.105 25.1641C158.47 24.487 158.867 23.888 159.297 23.3672C159.727 22.8333 160.195 22.4102 160.703 22.0977C161.211 21.7721 161.758 21.6094 162.344 21.6094C162.956 21.6094 163.418 21.7461 163.73 22.0195C164.043 22.2799 164.264 22.6185 164.395 23.0352C164.538 23.4388 164.616 23.888 164.629 24.3828C164.642 24.8776 164.648 25.3529 164.648 25.8086V34.168C164.648 34.4284 164.714 34.6693 164.844 34.8906C164.974 35.099 165.176 35.2031 165.449 35.2031C165.749 35.2031 166.029 35.0859 166.289 34.8516C166.562 34.6042 166.777 34.3633 166.934 34.1289L167.5 34.7148ZM173.809 11.5117L172.773 18.6406L170.859 19.2461L169.688 12.918L173.809 11.5117ZM176.504 34.7148C176.204 35.3529 175.853 35.8411 175.449 36.1797C175.059 36.5182 174.681 36.7656 174.316 36.9219C173.887 37.1042 173.451 37.2083 173.008 37.2344C172.435 37.2344 171.96 37.1432 171.582 36.9609C171.204 36.7786 170.905 36.5378 170.684 36.2383C170.462 35.9388 170.306 35.6003 170.215 35.2227C170.137 34.8451 170.098 34.4609 170.098 34.0703V23.1133L173.691 21.8828V34.168C173.691 34.4805 173.763 34.7279 173.906 34.9102C174.049 35.0924 174.232 35.1901 174.453 35.2031C174.688 35.2031 174.935 35.1185 175.195 34.9492C175.469 34.7799 175.729 34.5065 175.977 34.1289L176.504 34.7148Z" fill="#222121"/>
<path d="M45.3868 49.7607C45.3868 50.0231 45.3529 50.3151 45.2852 50.6367C45.226 50.9499 45.1371 51.2292 45.0186 51.4746L42.0606 57.8223C42.0098 57.9154 41.9379 57.9746 41.8448 58C41.7602 58.0339 41.6671 58.0508 41.5655 58.0508C41.447 58.0508 41.3327 58.0296 41.2227 57.9873C41.1127 57.945 41.0365 57.8646 40.9942 57.7461L39.0137 50.751L37.2491 57.6572C37.1814 57.8011 37.084 57.9111 36.9571 57.9873C36.8386 58.0635 36.7032 58.1016 36.5508 58.1016C36.4408 58.1016 36.335 58.0804 36.2335 58.0381C36.1404 57.9958 36.0811 57.9154 36.0557 57.7969L33.8214 50.6621C33.7875 50.5605 33.7409 50.4548 33.6817 50.3447C33.6309 50.2262 33.5632 50.1204 33.4786 50.0273C33.4024 49.9258 33.3135 49.8454 33.212 49.7861C33.1189 49.7184 33.0089 49.6846 32.8819 49.6846C32.7126 49.6846 32.5561 49.7311 32.4122 49.8242C32.2768 49.9173 32.154 50.0146 32.044 50.1162L31.7901 49.7861C31.9171 49.5492 32.0779 49.3291 32.2725 49.126C32.4672 48.9144 32.683 48.7282 32.92 48.5674C33.157 48.4066 33.4066 48.2796 33.669 48.1865C33.9398 48.0934 34.2149 48.0469 34.4942 48.0469C34.7312 48.0469 34.9301 48.1146 35.0909 48.25C35.2517 48.3854 35.3871 48.5505 35.4971 48.7451C35.6072 48.9398 35.696 49.1471 35.7637 49.3672C35.8399 49.5872 35.9034 49.7861 35.9542 49.9639C36.2081 50.7594 36.4577 51.5592 36.7032 52.3633C36.9571 53.1673 37.2068 53.9629 37.4522 54.75L38.709 49.6592L38.3917 48.6436L40.5245 47.9326L42.6065 55.3213L43.7999 52.5918C43.8506 52.4648 43.893 52.304 43.9268 52.1094C43.9607 51.9062 43.9776 51.737 43.9776 51.6016C43.9776 51.0938 43.8464 50.6579 43.584 50.2939C43.3301 49.93 42.9874 49.638 42.5557 49.418L44.003 47.4121C44.4769 47.6491 44.824 47.9707 45.044 48.377C45.2725 48.7747 45.3868 49.236 45.3868 49.7607ZM55.835 55.5244C55.5388 55.9053 55.213 56.2607 54.8575 56.5908C54.5105 56.9209 54.1296 57.2087 53.7149 57.4541C53.3087 57.6995 52.877 57.8942 52.42 58.0381C51.963 58.182 51.489 58.2539 50.9981 58.2539C50.3718 58.2539 49.7963 58.1439 49.2715 57.9238C48.7468 57.6953 48.294 57.3864 47.9131 56.9971C47.5323 56.5993 47.2361 56.1338 47.0245 55.6006C46.8129 55.0589 46.7071 54.4792 46.7071 53.8613C46.7071 53.3535 46.779 52.8542 46.9229 52.3633C47.0668 51.8724 47.2699 51.4111 47.5323 50.9795C47.7947 50.5479 48.1036 50.1501 48.459 49.7861C48.823 49.4137 49.2208 49.0964 49.6524 48.834C50.084 48.5716 50.5411 48.3685 51.0235 48.2246C51.5059 48.0723 52.001 47.9961 52.5089 47.9961C52.8643 47.9961 53.1986 48.0384 53.5118 48.123C53.8334 48.2077 54.1169 48.3431 54.3624 48.5293C54.6078 48.707 54.8025 48.9398 54.9464 49.2275C55.0902 49.5068 55.1622 49.8411 55.1622 50.2305C55.1622 50.5521 55.0648 50.8906 54.8702 51.2461C54.684 51.6016 54.4343 51.957 54.1212 52.3125C53.8165 52.668 53.4695 53.0192 53.0801 53.3662C52.6908 53.7048 52.293 54.0221 51.8868 54.3184C51.489 54.6061 51.1039 54.86 50.7315 55.0801C50.3591 55.3001 50.0333 55.4694 49.754 55.5879C50.0671 55.9772 50.4311 56.2946 50.8458 56.54C51.2605 56.7855 51.7006 56.9082 52.1661 56.9082C52.4623 56.9082 52.7628 56.8532 53.0674 56.7432C53.3721 56.6247 53.6641 56.4766 53.9434 56.2988C54.2312 56.1211 54.502 55.9264 54.7559 55.7148C55.0183 55.5033 55.251 55.3044 55.4542 55.1182L55.835 55.5244ZM52.7755 50.7002C52.7755 50.5055 52.7416 50.3193 52.6739 50.1416C52.6146 49.9639 52.5258 49.8115 52.4073 49.6846C52.2888 49.5492 52.1449 49.4434 51.9756 49.3672C51.8148 49.2826 51.6286 49.2402 51.4171 49.2402C51.0362 49.2402 50.685 49.3757 50.3633 49.6465C50.0417 49.9089 49.7624 50.2347 49.5255 50.624C49.2969 51.0133 49.115 51.4281 48.9796 51.8682C48.8526 52.2998 48.7891 52.6807 48.7891 53.0107C48.7891 53.3324 48.8399 53.6624 48.9415 54.001C49.043 54.3395 49.1827 54.6654 49.3604 54.9785C49.699 54.7923 50.0671 54.5342 50.4649 54.2041C50.8627 53.874 51.2309 53.5143 51.5694 53.125C51.9164 52.7272 52.2042 52.3167 52.4327 51.8936C52.6612 51.4704 52.7755 51.0726 52.7755 50.7002ZM66.3594 52.96C66.3594 53.5609 66.2113 54.1745 65.9151 54.8008C65.6273 55.4186 65.2465 55.9857 64.7725 56.502C64.2986 57.0182 63.7569 57.4414 63.1475 57.7715C62.5466 58.0931 61.933 58.2539 61.3067 58.2539C60.7227 58.2539 60.2064 58.1566 59.7579 57.9619C59.3093 57.7588 58.9327 57.4837 58.628 57.1367C58.3233 56.7812 58.0906 56.3665 57.9297 55.8926C57.7774 55.4102 57.7012 54.8896 57.7012 54.3311V40.6074L60.0372 39.7949V54.75C60.0372 55.0378 60.0753 55.3213 60.1514 55.6006C60.2276 55.8799 60.3419 56.1338 60.4942 56.3623C60.6465 56.5824 60.837 56.7643 61.0655 56.9082C61.3025 57.0436 61.5818 57.1113 61.9034 57.1113C62.2927 57.1113 62.6312 57.0182 62.919 56.832C63.2152 56.6374 63.4607 56.3919 63.6553 56.0957C63.8585 55.791 64.0066 55.4609 64.0997 55.1055C64.2012 54.75 64.252 54.4072 64.252 54.0771C64.252 53.5863 64.1589 53.0911 63.9727 52.5918C63.795 52.084 63.5453 51.627 63.2237 51.2207C62.9021 50.8145 62.5255 50.4759 62.0938 50.2051C61.6622 49.9342 61.2009 49.7777 60.71 49.7354L62.8174 48.1738C63.2745 48.3262 63.7146 48.5674 64.1378 48.8975C64.5694 49.2191 64.9503 49.5957 65.2803 50.0273C65.6104 50.459 65.8728 50.9287 66.0674 51.4365C66.2621 51.9443 66.3594 52.4521 66.3594 52.96ZM83.9551 56.4893C83.8536 56.7093 83.7224 56.9167 83.5616 57.1113C83.4008 57.306 83.223 57.4795 83.0284 57.6318C82.8337 57.7842 82.6179 57.9069 82.3809 58C82.1524 58.0846 81.9154 58.127 81.67 58.127C81.0014 58.127 80.5147 57.945 80.21 57.5811C79.9138 57.2087 79.7657 56.7051 79.7657 56.0703V55.8418C79.6218 56.1296 79.4568 56.4173 79.2706 56.7051C79.0844 56.9928 78.8686 57.251 78.6231 57.4795C78.3861 57.708 78.1153 57.8942 77.8106 58.0381C77.5144 58.182 77.1801 58.2539 76.8077 58.2539C76.2406 58.2539 75.7413 58.1439 75.3096 57.9238C74.8865 57.6953 74.531 57.3949 74.2432 57.0225C73.9555 56.6416 73.7354 56.2015 73.5831 55.7021C73.4392 55.2028 73.3672 54.6781 73.3672 54.1279C73.3672 53.417 73.4773 52.7018 73.6973 51.9824C73.9174 51.263 74.239 50.6113 74.6622 50.0273C75.0853 49.4434 75.6059 48.9694 76.2237 48.6055C76.8415 48.2331 77.5482 48.0469 78.3438 48.0469C78.8347 48.0469 79.3087 48.1654 79.7657 48.4023V40.6074L82.1143 39.7949V56.1338C82.1143 56.3031 82.1524 56.4596 82.2286 56.6035C82.3132 56.7389 82.4486 56.8066 82.6348 56.8066C82.8295 56.8066 83.0115 56.7305 83.1807 56.5781C83.35 56.4173 83.4854 56.2565 83.587 56.0957L83.9551 56.4893ZM79.7657 52.668V49.9639C79.571 49.7692 79.351 49.6084 79.1055 49.4814C78.8686 49.3545 78.6062 49.291 78.3184 49.291C77.8191 49.291 77.3959 49.4264 77.0489 49.6973C76.7019 49.9681 76.4184 50.3066 76.1983 50.7129C75.9783 51.1191 75.8174 51.5592 75.7159 52.0332C75.6143 52.4987 75.5635 52.9346 75.5635 53.3408C75.5635 53.6624 75.5932 54.0264 75.6524 54.4326C75.7201 54.8304 75.8301 55.207 75.9825 55.5625C76.1433 55.9095 76.3506 56.2057 76.6046 56.4512C76.8669 56.6882 77.1928 56.8066 77.5821 56.8066C77.8952 56.8066 78.1661 56.7389 78.3946 56.6035C78.6316 56.4596 78.8305 56.2777 78.9913 56.0576C79.1521 55.8291 79.2833 55.571 79.3848 55.2832C79.4864 54.987 79.5626 54.6865 79.6133 54.3818C79.6726 54.0771 79.7107 53.7767 79.7276 53.4805C79.753 53.1758 79.7657 52.9049 79.7657 52.668ZM94.0225 55.5244C93.7263 55.9053 93.4005 56.2607 93.045 56.5908C92.698 56.9209 92.3171 57.2087 91.9024 57.4541C91.4962 57.6995 91.0645 57.8942 90.6075 58.0381C90.1505 58.182 89.6765 58.2539 89.1856 58.2539C88.5593 58.2539 87.9838 58.1439 87.459 57.9238C86.9343 57.6953 86.4815 57.3864 86.1006 56.9971C85.7198 56.5993 85.4236 56.1338 85.212 55.6006C85.0004 55.0589 84.8946 54.4792 84.8946 53.8613C84.8946 53.3535 84.9665 52.8542 85.1104 52.3633C85.2543 51.8724 85.4574 51.4111 85.7198 50.9795C85.9822 50.5479 86.2911 50.1501 86.6465 49.7861C87.0105 49.4137 87.4083 49.0964 87.8399 48.834C88.2715 48.5716 88.7286 48.3685 89.211 48.2246C89.6934 48.0723 90.1885 47.9961 90.6964 47.9961C91.0518 47.9961 91.3861 48.0384 91.6993 48.123C92.0209 48.2077 92.3044 48.3431 92.5499 48.5293C92.7953 48.707 92.99 48.9398 93.1339 49.2275C93.2777 49.5068 93.3497 49.8411 93.3497 50.2305C93.3497 50.5521 93.2523 50.8906 93.0577 51.2461C92.8715 51.6016 92.6218 51.957 92.3087 52.3125C92.004 52.668 91.657 53.0192 91.2676 53.3662C90.8783 53.7048 90.4805 54.0221 90.0743 54.3184C89.6765 54.6061 89.2914 54.86 88.919 55.0801C88.5466 55.3001 88.2208 55.4694 87.9415 55.5879C88.2546 55.9772 88.6186 56.2946 89.0333 56.54C89.448 56.7855 89.8881 56.9082 90.3536 56.9082C90.6498 56.9082 90.9503 56.8532 91.2549 56.7432C91.5596 56.6247 91.8516 56.4766 92.1309 56.2988C92.4187 56.1211 92.6895 55.9264 92.9434 55.7148C93.2058 55.5033 93.4385 55.3044 93.6417 55.1182L94.0225 55.5244ZM90.963 50.7002C90.963 50.5055 90.9291 50.3193 90.8614 50.1416C90.8021 49.9639 90.7133 49.8115 90.5948 49.6846C90.4763 49.5492 90.3324 49.4434 90.1631 49.3672C90.0023 49.2826 89.8161 49.2402 89.6046 49.2402C89.2237 49.2402 88.8725 49.3757 88.5508 49.6465C88.2292 49.9089 87.9499 50.2347 87.713 50.624C87.4844 51.0133 87.3025 51.4281 87.1671 51.8682C87.0401 52.2998 86.9766 52.6807 86.9766 53.0107C86.9766 53.3324 87.0274 53.6624 87.129 54.001C87.2305 54.3395 87.3702 54.6654 87.5479 54.9785C87.8865 54.7923 88.2546 54.5342 88.6524 54.2041C89.0502 53.874 89.4184 53.5143 89.7569 53.125C90.1039 52.7272 90.3917 52.3167 90.6202 51.8936C90.8487 51.4704 90.963 51.0726 90.963 50.7002ZM101.449 54.4961C101.449 55.0208 101.352 55.5117 101.157 55.9688C100.963 56.4258 100.696 56.8236 100.357 57.1621C100.027 57.5007 99.6296 57.7673 99.1641 57.9619C98.7071 58.1566 98.212 58.2539 97.6788 58.2539C97.4503 58.2539 97.2006 58.2327 96.9297 58.1904C96.6674 58.1481 96.405 58.0846 96.1426 58C95.8803 57.9154 95.6306 57.8096 95.3936 57.6826C95.1651 57.5557 94.9747 57.4033 94.8223 57.2256L96.3204 55.2705C96.4219 55.4313 96.5447 55.609 96.6885 55.8037C96.8409 55.9899 97.0059 56.1634 97.1837 56.3242C97.3699 56.485 97.5645 56.6204 97.7676 56.7305C97.9792 56.832 98.1908 56.8828 98.4024 56.8828C98.6478 56.8828 98.8764 56.8405 99.088 56.7559C99.308 56.6712 99.4984 56.5527 99.6592 56.4004C99.82 56.2396 99.947 56.0534 100.04 55.8418C100.133 55.6302 100.18 55.3975 100.18 55.1436C100.18 54.805 100.061 54.4961 99.8243 54.2168C99.5958 53.929 99.3207 53.654 98.9991 53.3916C98.6859 53.1208 98.3559 52.8457 98.0089 52.5664C97.6703 52.2786 97.3952 51.9655 97.1837 51.627L95.8633 53.5566L95.3682 53.1885L96.8917 51.0811C96.7732 50.8356 96.6801 50.5775 96.6124 50.3066C96.5447 50.0358 96.5108 49.765 96.5108 49.4941C96.5108 49.2656 96.5489 49.0244 96.6251 48.7705C96.7012 48.5166 96.8113 48.2839 96.9551 48.0723C97.099 47.8607 97.2725 47.6872 97.4756 47.5518C97.6872 47.4079 97.9284 47.3359 98.1993 47.3359C98.4616 47.3359 98.6817 47.4163 98.8594 47.5771C99.0456 47.738 99.1387 47.9622 99.1387 48.25C99.1387 48.4023 99.1133 48.5547 99.0626 48.707C99.0118 48.8594 98.9483 49.0117 98.8721 49.1641C98.796 49.3164 98.7113 49.4645 98.6182 49.6084C98.5251 49.7438 98.4363 49.8708 98.3516 49.9893C98.5547 50.277 98.7748 50.5267 99.0118 50.7383C99.2488 50.9499 99.4815 51.1488 99.71 51.335C99.9385 51.5212 100.159 51.7074 100.37 51.8936C100.582 52.0798 100.764 52.2913 100.916 52.5283C101.077 52.7653 101.204 53.0404 101.297 53.3535C101.398 53.6667 101.449 54.0475 101.449 54.4961ZM98.5674 48.4785C98.5674 48.36 98.5251 48.2712 98.4405 48.2119C98.3643 48.1527 98.2755 48.123 98.1739 48.123C98.03 48.123 97.9284 48.1738 97.8692 48.2754C97.81 48.3685 97.7803 48.4743 97.7803 48.5928C97.7803 48.762 97.8057 48.9271 97.8565 49.0879C97.9158 49.2487 97.9877 49.401 98.0723 49.5449C98.1062 49.4857 98.1485 49.4095 98.1993 49.3164C98.2585 49.2233 98.3135 49.126 98.3643 49.0244C98.4236 48.9144 98.4701 48.8128 98.504 48.7197C98.5463 48.6182 98.5674 48.5378 98.5674 48.4785ZM106.07 41.4326L105.398 46.0664L104.153 46.46L103.392 42.3467L106.07 41.4326ZM107.822 56.5146C107.628 56.9294 107.399 57.2467 107.137 57.4668C106.883 57.6868 106.637 57.8477 106.4 57.9492C106.121 58.0677 105.838 58.1354 105.55 58.1523C105.177 58.1523 104.869 58.0931 104.623 57.9746C104.378 57.8561 104.183 57.6995 104.039 57.5049C103.895 57.3102 103.794 57.0902 103.734 56.8447C103.684 56.5993 103.658 56.3496 103.658 56.0957V48.9736L105.994 48.1738V56.1592C105.994 56.3623 106.041 56.5231 106.134 56.6416C106.227 56.7601 106.345 56.8236 106.489 56.832C106.642 56.832 106.802 56.777 106.972 56.667C107.149 56.557 107.319 56.3792 107.48 56.1338L107.822 56.5146ZM117.471 57.0605C117.471 57.5599 117.403 58.0677 117.268 58.584C117.132 59.1087 116.938 59.6208 116.684 60.1201C116.438 60.6195 116.142 61.0892 115.795 61.5293C115.448 61.9779 115.059 62.3672 114.627 62.6973C114.204 63.0273 113.743 63.2897 113.243 63.4844C112.752 63.679 112.24 63.7764 111.707 63.7764C111.369 63.7764 111.043 63.7214 110.73 63.6113C110.425 63.5013 110.15 63.3278 109.904 63.0908L111.58 61.5039C111.758 61.7409 111.965 61.9313 112.202 62.0752C112.439 62.2191 112.706 62.291 113.002 62.291C113.434 62.291 113.785 62.2064 114.056 62.0371C114.327 61.8763 114.542 61.6562 114.703 61.377C114.864 61.1061 114.978 60.793 115.046 60.4375C115.114 60.0905 115.156 59.7308 115.173 59.3584C115.19 58.986 115.19 58.6221 115.173 58.2666C115.164 57.9111 115.16 57.5895 115.16 57.3018V55.8418C115.008 56.1296 114.834 56.4173 114.64 56.7051C114.454 56.9928 114.238 57.251 113.992 57.4795C113.755 57.708 113.489 57.8942 113.192 58.0381C112.896 58.182 112.566 58.2539 112.202 58.2539C111.652 58.2539 111.165 58.1481 110.742 57.9365C110.319 57.7249 109.964 57.4414 109.676 57.0859C109.388 56.722 109.172 56.2988 109.028 55.8164C108.885 55.334 108.813 54.8219 108.813 54.2803C108.813 53.7894 108.872 53.2943 108.99 52.7949C109.109 52.2871 109.274 51.8005 109.485 51.335C109.705 50.8695 109.972 50.4336 110.285 50.0273C110.607 49.6211 110.962 49.2699 111.352 48.9736C111.749 48.6689 112.185 48.432 112.659 48.2627C113.133 48.085 113.637 47.9961 114.17 47.9961C114.492 47.9961 114.813 48.0342 115.135 48.1104C115.456 48.1865 115.761 48.305 116.049 48.4658C116.345 48.6182 116.612 48.8086 116.849 49.0371C117.094 49.2656 117.293 49.5322 117.445 49.8369L115.554 50.6367C115.452 50.4759 115.334 50.3151 115.198 50.1543C115.071 49.985 114.927 49.8327 114.767 49.6973C114.614 49.5618 114.445 49.4518 114.259 49.3672C114.081 49.2826 113.895 49.2402 113.7 49.2402C113.412 49.2402 113.142 49.3079 112.888 49.4434C112.642 49.5788 112.414 49.7565 112.202 49.9766C111.999 50.1966 111.817 50.4505 111.656 50.7383C111.496 51.0176 111.36 51.3096 111.25 51.6143C111.14 51.9189 111.055 52.2194 110.996 52.5156C110.945 52.8118 110.92 53.0785 110.92 53.3154C110.92 53.637 110.95 54.001 111.009 54.4072C111.077 54.805 111.191 55.1816 111.352 55.5371C111.512 55.8926 111.724 56.193 111.986 56.4385C112.249 56.6839 112.579 56.8066 112.977 56.8066C113.29 56.8066 113.561 56.7389 113.789 56.6035C114.018 56.4596 114.212 56.2777 114.373 56.0576C114.534 55.8291 114.665 55.571 114.767 55.2832C114.877 54.987 114.957 54.6865 115.008 54.3818C115.067 54.0771 115.105 53.7767 115.122 53.4805C115.148 53.1758 115.16 52.9049 115.16 52.668V51.792L117.471 50.9795V57.0605ZM130.687 56.5146C130.585 56.7347 130.454 56.9421 130.293 57.1367C130.132 57.3314 129.95 57.5049 129.747 57.6572C129.552 57.8096 129.341 57.9281 129.112 58.0127C128.884 58.1058 128.647 58.1523 128.401 58.1523C127.733 58.1523 127.246 57.9704 126.941 57.6064C126.645 57.234 126.497 56.7305 126.497 56.0957V50.9287C126.497 50.8695 126.493 50.8018 126.484 50.7256C126.484 50.641 126.472 50.5648 126.446 50.4971C126.421 50.4209 126.387 50.3574 126.345 50.3066C126.302 50.2559 126.243 50.2305 126.167 50.2305C125.93 50.2305 125.689 50.3743 125.443 50.6621C125.206 50.9499 124.974 51.3223 124.745 51.7793C124.525 52.2363 124.318 52.7484 124.123 53.3154C123.937 53.8825 123.772 54.4453 123.628 55.0039C123.484 55.554 123.37 56.0703 123.285 56.5527C123.209 57.0352 123.171 57.4202 123.171 57.708L120.86 58.5205V49.9893C120.86 49.82 120.818 49.6676 120.733 49.5322C120.649 49.3883 120.518 49.3164 120.34 49.3164C120.128 49.3164 119.934 49.3968 119.756 49.5576C119.587 49.71 119.451 49.8623 119.35 50.0146L119.007 49.6338C119.108 49.4222 119.235 49.2191 119.388 49.0244C119.549 48.8213 119.726 48.6436 119.921 48.4912C120.124 48.3389 120.34 48.2204 120.568 48.1357C120.805 48.0426 121.051 47.9961 121.305 47.9961C121.965 47.9961 122.439 48.1823 122.727 48.5547C123.023 48.9186 123.171 49.4137 123.171 50.04V54.1787C123.247 53.8317 123.349 53.4382 123.476 52.998C123.611 52.5495 123.772 52.0967 123.958 51.6396C124.144 51.1826 124.352 50.7383 124.58 50.3066C124.817 49.8665 125.075 49.4772 125.355 49.1387C125.634 48.7917 125.939 48.5166 126.269 48.3135C126.599 48.1019 126.954 47.9961 127.335 47.9961C127.733 47.9961 128.033 48.085 128.236 48.2627C128.44 48.432 128.583 48.652 128.668 48.9229C128.761 49.1852 128.812 49.4772 128.82 49.7988C128.829 50.1204 128.833 50.4294 128.833 50.7256V56.1592C128.833 56.3285 128.875 56.485 128.96 56.6289C129.045 56.7643 129.176 56.832 129.354 56.832C129.548 56.832 129.73 56.7559 129.899 56.6035C130.077 56.4427 130.217 56.2861 130.318 56.1338L130.687 56.5146ZM140.716 55.5244C140.42 55.9053 140.094 56.2607 139.738 56.5908C139.391 56.9209 139.01 57.2087 138.596 57.4541C138.19 57.6995 137.758 57.8942 137.301 58.0381C136.844 58.182 136.37 58.2539 135.879 58.2539C135.253 58.2539 134.677 58.1439 134.152 57.9238C133.628 57.6953 133.175 57.3864 132.794 56.9971C132.413 56.5993 132.117 56.1338 131.905 55.6006C131.694 55.0589 131.588 54.4792 131.588 53.8613C131.588 53.3535 131.66 52.8542 131.804 52.3633C131.948 51.8724 132.151 51.4111 132.413 50.9795C132.676 50.5479 132.984 50.1501 133.34 49.7861C133.704 49.4137 134.102 49.0964 134.533 48.834C134.965 48.5716 135.422 48.3685 135.904 48.2246C136.387 48.0723 136.882 47.9961 137.39 47.9961C137.745 47.9961 138.079 48.0384 138.393 48.123C138.714 48.2077 138.998 48.3431 139.243 48.5293C139.489 48.707 139.683 48.9398 139.827 49.2275C139.971 49.5068 140.043 49.8411 140.043 50.2305C140.043 50.5521 139.946 50.8906 139.751 51.2461C139.565 51.6016 139.315 51.957 139.002 52.3125C138.697 52.668 138.35 53.0192 137.961 53.3662C137.572 53.7048 137.174 54.0221 136.768 54.3184C136.37 54.6061 135.985 54.86 135.612 55.0801C135.24 55.3001 134.914 55.4694 134.635 55.5879C134.948 55.9772 135.312 56.2946 135.727 56.54C136.141 56.7855 136.581 56.9082 137.047 56.9082C137.343 56.9082 137.644 56.8532 137.948 56.7432C138.253 56.6247 138.545 56.4766 138.824 56.2988C139.112 56.1211 139.383 55.9264 139.637 55.7148C139.899 55.5033 140.132 55.3044 140.335 55.1182L140.716 55.5244ZM137.656 50.7002C137.656 50.5055 137.622 50.3193 137.555 50.1416C137.496 49.9639 137.407 49.8115 137.288 49.6846C137.17 49.5492 137.026 49.4434 136.857 49.3672C136.696 49.2826 136.51 49.2402 136.298 49.2402C135.917 49.2402 135.566 49.3757 135.244 49.6465C134.923 49.9089 134.643 50.2347 134.406 50.624C134.178 51.0133 133.996 51.4281 133.86 51.8682C133.733 52.2998 133.67 52.6807 133.67 53.0107C133.67 53.3324 133.721 53.6624 133.822 54.001C133.924 54.3395 134.064 54.6654 134.241 54.9785C134.58 54.7923 134.948 54.5342 135.346 54.2041C135.744 53.874 136.112 53.5143 136.45 53.125C136.797 52.7272 137.085 52.3167 137.314 51.8936C137.542 51.4704 137.656 51.0726 137.656 50.7002ZM149.438 56.6162C149.285 56.8532 149.099 57.069 148.879 57.2637C148.659 57.4499 148.418 57.6107 148.155 57.7461C147.893 57.8815 147.618 57.9873 147.33 58.0635C147.042 58.1396 146.759 58.1777 146.48 58.1777C146.107 58.1777 145.786 58.11 145.515 57.9746C145.252 57.8307 145.037 57.6445 144.867 57.416C144.698 57.1875 144.571 56.9209 144.486 56.6162C144.41 56.3115 144.372 55.9941 144.372 55.6641C144.372 55.2324 144.436 54.7712 144.563 54.2803C144.698 53.7809 144.876 53.29 145.096 52.8076C145.324 52.3252 145.582 51.8766 145.87 51.4619C146.158 51.0472 146.463 50.7044 146.784 50.4336C146.488 50.6283 146.162 50.7806 145.807 50.8906C145.46 51.0007 145.104 51.0557 144.74 51.0557C144.478 51.0557 144.249 51.0345 144.055 50.9922C143.86 50.9499 143.644 50.8695 143.407 50.751L142.087 53.5059L141.541 53.29L142.912 50.4844C142.768 50.3828 142.612 50.2559 142.442 50.1035C142.282 49.9427 142.163 49.7861 142.087 49.6338L143.852 47.6533C143.928 47.8818 144.034 48.1146 144.169 48.3516C144.304 48.5801 144.461 48.7874 144.639 48.9736C144.825 49.1514 145.028 49.2995 145.248 49.418C145.477 49.5365 145.722 49.5957 145.984 49.5957C146.433 49.5957 146.869 49.5153 147.292 49.3545C147.715 49.1852 148.109 48.9821 148.473 48.7451L148.815 49.0879C148.494 49.3841 148.168 49.7142 147.838 50.0781C147.516 50.4336 147.224 50.8145 146.962 51.2207C146.7 51.627 146.488 52.0544 146.327 52.5029C146.166 52.9515 146.086 53.4043 146.086 53.8613C146.086 54.1237 146.12 54.4199 146.188 54.75C146.264 55.0716 146.378 55.3805 146.53 55.6768C146.683 55.9645 146.873 56.21 147.102 56.4131C147.33 56.6077 147.605 56.7051 147.927 56.7051C148.147 56.7051 148.358 56.667 148.562 56.5908C148.773 56.5062 148.964 56.4046 149.133 56.2861L149.438 56.6162Z" fill="#F8B739"/>
</svg>
