<svg width="130" height="130" viewBox="0 0 130 130" fill="none" xmlns="http://www.w3.org/2000/svg">
<rect width="130" height="130" fill="#F8B739"/>
<path d="M20.2568 94.4292C19.9492 94.8247 19.6108 95.1938 19.2417 95.5366C18.8813 95.8794 18.4858 96.1782 18.0552 96.4331C17.6333 96.688 17.1851 96.8901 16.7104 97.0396C16.2358 97.189 15.7437 97.2637 15.2339 97.2637C14.5835 97.2637 13.9858 97.1494 13.4409 96.9209C12.896 96.6836 12.4258 96.3628 12.0303 95.9585C11.6348 95.5454 11.3271 95.062 11.1074 94.5083C10.8877 93.9458 10.7778 93.3438 10.7778 92.7021C10.7778 92.1748 10.8525 91.6562 11.002 91.1465C11.1514 90.6367 11.3623 90.1577 11.6348 89.7095C11.9072 89.2612 12.228 88.8481 12.5972 88.4702C12.9751 88.0835 13.3882 87.7539 13.8364 87.4814C14.2847 87.209 14.7593 86.998 15.2603 86.8486C15.7612 86.6904 16.2754 86.6113 16.8027 86.6113C17.1719 86.6113 17.519 86.6553 17.8442 86.7432C18.1782 86.8311 18.4727 86.9717 18.7275 87.165C18.9824 87.3496 19.1846 87.5913 19.334 87.8901C19.4834 88.1802 19.5581 88.5273 19.5581 88.9316C19.5581 89.2656 19.457 89.6172 19.2549 89.9863C19.0615 90.3555 18.8022 90.7246 18.4771 91.0938C18.1606 91.4629 17.8003 91.8276 17.396 92.188C16.9917 92.5396 16.5786 92.8691 16.1567 93.1768C15.7437 93.4756 15.3438 93.7393 14.957 93.9678C14.5703 94.1963 14.2319 94.3721 13.9419 94.4951C14.2671 94.8994 14.645 95.229 15.0757 95.4839C15.5063 95.7388 15.9634 95.8662 16.4468 95.8662C16.7544 95.8662 17.0664 95.8091 17.3828 95.6948C17.6992 95.5718 18.0024 95.418 18.2925 95.2334C18.5913 95.0488 18.8726 94.8467 19.1362 94.627C19.4087 94.4072 19.6504 94.2007 19.8613 94.0073L20.2568 94.4292ZM17.0796 89.4194C17.0796 89.2173 17.0444 89.0239 16.9741 88.8394C16.9126 88.6548 16.8203 88.4966 16.6973 88.3647C16.5742 88.2241 16.4248 88.1143 16.249 88.0352C16.082 87.9473 15.8887 87.9033 15.6689 87.9033C15.2734 87.9033 14.9087 88.0439 14.5747 88.3252C14.2407 88.5977 13.9507 88.936 13.7046 89.3403C13.4673 89.7446 13.2783 90.1753 13.1377 90.6323C13.0059 91.0806 12.9399 91.4761 12.9399 91.8188C12.9399 92.1528 12.9927 92.4956 13.0981 92.8472C13.2036 93.1987 13.3486 93.5371 13.5332 93.8623C13.8848 93.6689 14.2671 93.4009 14.6802 93.0581C15.0933 92.7153 15.4756 92.3418 15.8271 91.9375C16.1875 91.5244 16.4863 91.0981 16.7236 90.6587C16.9609 90.2192 17.0796 89.8062 17.0796 89.4194ZM36.6572 95.4575C36.4551 95.8882 36.2178 96.2178 35.9453 96.4463C35.6729 96.6748 35.4136 96.8418 35.1675 96.9473C34.8774 97.0703 34.583 97.1406 34.2842 97.1582C33.8887 97.1582 33.5635 97.0967 33.3086 96.9736C33.0625 96.8506 32.8647 96.688 32.7153 96.4858C32.5659 96.2837 32.4604 96.0552 32.3989 95.8003C32.3462 95.5454 32.3198 95.2861 32.3198 95.0225V89.4985C32.3198 89.3579 32.2935 89.2349 32.2407 89.1294C32.188 89.0151 32.1177 88.9492 32.0298 88.9316C31.9419 88.9141 31.8364 88.958 31.7134 89.0635C31.5903 89.1689 31.4585 89.3579 31.3179 89.6304C31.0806 90.3335 30.8652 91.0718 30.6719 91.8452C30.5049 92.5132 30.3511 93.269 30.2104 94.1128C30.0786 94.9478 30.0039 95.8091 29.9863 96.6968L27.5605 97.5405V89.4985C27.5605 89.3579 27.5342 89.2349 27.4814 89.1294C27.4287 89.0151 27.354 88.9492 27.2573 88.9316C27.1694 88.9141 27.064 88.958 26.9409 89.0635C26.8179 89.1689 26.6904 89.3579 26.5586 89.6304C26.2949 90.3687 26.0664 91.1377 25.873 91.9375C25.7852 92.2803 25.7017 92.645 25.6226 93.0317C25.5435 93.4185 25.4731 93.8184 25.4116 94.2314C25.3589 94.6357 25.3149 95.0488 25.2798 95.4707C25.2446 95.8838 25.2314 96.2925 25.2402 96.6968L22.8408 97.5405V88.6812C22.8408 88.4702 22.7925 88.3032 22.6958 88.1802C22.5991 88.0571 22.4717 87.9956 22.3135 87.9956C22.1641 87.9868 21.9971 88.0396 21.8125 88.1538C21.6279 88.2681 21.4478 88.4526 21.272 88.7075L20.916 88.312C21.1182 87.8901 21.3511 87.5649 21.6147 87.3364C21.8872 87.0991 22.1509 86.9277 22.4058 86.8223C22.6958 86.6992 22.9946 86.6289 23.3022 86.6113C23.689 86.6113 24.0054 86.6729 24.2515 86.7959C24.5063 86.9189 24.7041 87.0815 24.8447 87.2837C24.9941 87.4771 25.0952 87.7012 25.1479 87.9561C25.2095 88.2109 25.2402 88.4702 25.2402 88.7339V91.5156C25.3984 90.7246 25.6357 90.0259 25.9521 89.4194C26.2686 88.813 26.5981 88.3032 26.9409 87.8901C27.2925 87.4683 27.6353 87.1519 27.9692 86.9409C28.3032 86.7212 28.5713 86.6113 28.7734 86.6113C29.0283 86.6113 29.2349 86.6553 29.3931 86.7432C29.5513 86.8223 29.6743 86.9453 29.7622 87.1123C29.8501 87.2793 29.9072 87.4858 29.9336 87.7319C29.9688 87.9692 29.9863 88.2505 29.9863 88.5757V91.5156C30.1533 90.7246 30.3906 90.0259 30.6982 89.4194C31.0146 88.813 31.3486 88.3032 31.7002 87.8901C32.0518 87.4683 32.3945 87.1519 32.7285 86.9409C33.0625 86.7212 33.3306 86.6113 33.5327 86.6113C34.0337 86.6113 34.3589 86.7783 34.5083 87.1123C34.6665 87.4375 34.7456 87.9253 34.7456 88.5757V95.0884C34.7456 95.2993 34.7939 95.4663 34.8906 95.5894C34.9873 95.7124 35.1104 95.7783 35.2598 95.7871C35.4092 95.7871 35.5718 95.73 35.7476 95.6157C35.9321 95.5015 36.1123 95.3169 36.2881 95.062L36.6572 95.4575ZM40.9419 79.7954L40.2432 84.6074L38.9512 85.0161L38.1602 80.7446L40.9419 79.7954ZM42.7612 95.4575C42.5591 95.8882 42.3218 96.2178 42.0493 96.4463C41.7856 96.6748 41.5308 96.8418 41.2847 96.9473C40.9946 97.0703 40.7002 97.1406 40.4014 97.1582C40.0146 97.1582 39.6938 97.0967 39.439 96.9736C39.1841 96.8506 38.9819 96.688 38.8325 96.4858C38.6831 96.2837 38.5776 96.0552 38.5161 95.8003C38.4634 95.5454 38.437 95.2861 38.437 95.0225V87.6265L40.8628 86.7959V95.0884C40.8628 95.2993 40.9111 95.4663 41.0078 95.5894C41.1045 95.7124 41.2275 95.7783 41.377 95.7871C41.5352 95.7871 41.7021 95.73 41.8779 95.6157C42.0625 95.5015 42.2383 95.3169 42.4053 95.062L42.7612 95.4575ZM48.9575 95.4575C48.8521 95.686 48.7158 95.9014 48.5488 96.1035C48.3906 96.3057 48.2104 96.4858 48.0083 96.644C47.8062 96.8022 47.582 96.9253 47.3359 97.0132C47.0986 97.1099 46.8525 97.1582 46.5977 97.1582C45.9121 97.1582 45.4111 96.9692 45.0947 96.5913C44.7871 96.2046 44.6333 95.6816 44.6333 95.0225V78.9385L47.0591 78.0947V95.0884C47.0591 95.2642 47.0986 95.4268 47.1777 95.5762C47.2568 95.7168 47.3975 95.7871 47.5996 95.7871C47.8018 95.7871 47.9907 95.708 48.1665 95.5498C48.3511 95.3828 48.4961 95.2202 48.6016 95.062L48.9575 95.4575ZM53.2817 79.7954L52.583 84.6074L51.291 85.0161L50.5 80.7446L53.2817 79.7954ZM55.1011 95.4575C54.8989 95.8882 54.6616 96.2178 54.3892 96.4463C54.1255 96.6748 53.8706 96.8418 53.6245 96.9473C53.3345 97.0703 53.04 97.1406 52.7412 97.1582C52.3545 97.1582 52.0337 97.0967 51.7788 96.9736C51.5239 96.8506 51.3218 96.688 51.1724 96.4858C51.0229 96.2837 50.9175 96.0552 50.856 95.8003C50.8032 95.5454 50.7769 95.2861 50.7769 95.0225V87.6265L53.2026 86.7959V95.0884C53.2026 95.2993 53.251 95.4663 53.3477 95.5894C53.4443 95.7124 53.5674 95.7783 53.7168 95.7871C53.875 95.7871 54.042 95.73 54.2178 95.6157C54.4023 95.5015 54.5781 95.3169 54.7451 95.062L55.1011 95.4575ZM67.0718 95.4312C66.9663 95.6597 66.8345 95.875 66.6763 96.0771C66.5181 96.2793 66.3335 96.4595 66.1226 96.6177C65.9204 96.7759 65.6963 96.9033 65.4502 97C65.2129 97.0879 64.9624 97.1318 64.6987 97.1318C64.0044 97.1318 63.5034 96.9429 63.1958 96.5649C62.897 96.1782 62.7476 95.6553 62.7476 94.9961V94.7588C62.5894 95.0576 62.4092 95.3564 62.207 95.6553C62.0137 95.9541 61.7896 96.2222 61.5347 96.4595C61.2886 96.6968 61.0117 96.8901 60.7041 97.0396C60.3965 97.189 60.0537 97.2637 59.6758 97.2637C59.1045 97.2637 58.5991 97.1538 58.1597 96.9341C57.7202 96.7144 57.3511 96.4199 57.0522 96.0508C56.7534 95.6729 56.5293 95.2334 56.3799 94.7324C56.2305 94.2314 56.1558 93.6997 56.1558 93.1372C56.1558 92.3726 56.2876 91.6123 56.5513 90.8564C56.8237 90.0918 57.2017 89.4106 57.6851 88.813C58.1772 88.2153 58.7617 87.7319 59.4385 87.3628C60.124 86.9849 60.8843 86.7959 61.7192 86.7959C62.0532 86.7959 62.3872 86.8267 62.7212 86.8882C63.0552 86.9497 63.3716 87.0508 63.6704 87.1914C63.978 87.3232 64.2549 87.499 64.501 87.7188C64.7559 87.9385 64.9624 88.2065 65.1206 88.5229L63.1562 89.3535C63.0508 89.1865 62.9277 89.0283 62.7871 88.8789C62.6553 88.7207 62.5059 88.5845 62.3389 88.4702C62.1807 88.356 62.0093 88.2637 61.8247 88.1934C61.6401 88.123 61.4468 88.0879 61.2446 88.0879C60.7876 88.0879 60.3789 88.2285 60.0186 88.5098C59.667 88.791 59.3638 89.1382 59.1089 89.5513C58.8628 89.9644 58.6738 90.4038 58.542 90.8696C58.4102 91.3354 58.3442 91.7573 58.3442 92.1353C58.3442 92.4692 58.375 92.8472 58.4365 93.269C58.5068 93.6821 58.6255 94.0732 58.7925 94.4424C58.9595 94.8115 59.1792 95.1235 59.4517 95.3784C59.7241 95.6333 60.0669 95.7607 60.48 95.7607C60.8052 95.7607 61.0864 95.6904 61.3237 95.5498C61.561 95.4004 61.7632 95.2114 61.9302 94.9829C62.0972 94.7456 62.2334 94.4775 62.3389 94.1787C62.4531 93.8711 62.5366 93.5591 62.5894 93.2427C62.6509 92.9263 62.6904 92.6143 62.708 92.3066C62.7344 91.9902 62.7476 91.709 62.7476 91.4629V90.5532L65.147 89.7095V95.062C65.147 95.2378 65.1909 95.4004 65.2788 95.5498C65.3667 95.6904 65.5029 95.7607 65.6875 95.7607C65.9072 95.7607 66.105 95.6816 66.2808 95.5234C66.4653 95.3564 66.6104 95.1895 66.7158 95.0225L67.0718 95.4312ZM79.7412 98.938L78.937 101.074H69.9194L70.75 98.938H79.7412ZM86.0825 79.7954L85.3574 84.6074L84.0918 85.0161L83.314 80.7446L86.0825 79.7954ZM85.9771 95.9189C85.9771 96.5342 85.9023 97.1143 85.7529 97.6592C85.6123 98.2041 85.4146 98.7139 85.1597 99.1885C84.9136 99.6631 84.6191 100.103 84.2764 100.507C83.9336 100.92 83.5645 101.289 83.1689 101.614C82.5977 102.054 82.0088 102.392 81.4023 102.629C81.1475 102.735 80.875 102.818 80.585 102.88C80.2949 102.95 80.0049 102.985 79.7148 102.985C79.416 102.985 79.1172 102.941 78.8184 102.854C78.5107 102.766 78.2163 102.616 77.9351 102.405L79.4248 100.533C79.8818 100.902 80.3125 101.126 80.7168 101.206C81.1123 101.293 81.4595 101.315 81.7583 101.271C82.1099 101.219 82.4263 101.1 82.7075 100.916C82.9536 100.731 83.1382 100.454 83.2612 100.085C83.3843 99.7246 83.4634 99.3203 83.4985 98.8721C83.5425 98.4238 83.5601 97.958 83.5513 97.4746C83.5513 97 83.5513 96.5518 83.5513 96.1299V87.6265L85.9771 86.7959V95.9189ZM97.8027 94.4292C97.4951 94.8247 97.1567 95.1938 96.7876 95.5366C96.4272 95.8794 96.0317 96.1782 95.6011 96.4331C95.1792 96.688 94.731 96.8901 94.2563 97.0396C93.7817 97.189 93.2896 97.2637 92.7798 97.2637C92.1294 97.2637 91.5317 97.1494 90.9868 96.9209C90.4419 96.6836 89.9717 96.3628 89.5762 95.9585C89.1807 95.5454 88.873 95.062 88.6533 94.5083C88.4336 93.9458 88.3237 93.3438 88.3237 92.7021C88.3237 92.1748 88.3984 91.6562 88.5479 91.1465C88.6973 90.6367 88.9082 90.1577 89.1807 89.7095C89.4531 89.2612 89.7739 88.8481 90.1431 88.4702C90.521 88.0835 90.9341 87.7539 91.3823 87.4814C91.8306 87.209 92.3052 86.998 92.8062 86.8486C93.3071 86.6904 93.8213 86.6113 94.3486 86.6113C94.7178 86.6113 95.0649 86.6553 95.3901 86.7432C95.7241 86.8311 96.0186 86.9717 96.2734 87.165C96.5283 87.3496 96.7305 87.5913 96.8799 87.8901C97.0293 88.1802 97.104 88.5273 97.104 88.9316C97.104 89.2656 97.0029 89.6172 96.8008 89.9863C96.6074 90.3555 96.3481 90.7246 96.0229 91.0938C95.7065 91.4629 95.3462 91.8276 94.9419 92.188C94.5376 92.5396 94.1245 92.8691 93.7026 93.1768C93.2896 93.4756 92.8896 93.7393 92.5029 93.9678C92.1162 94.1963 91.7778 94.3721 91.4878 94.4951C91.813 94.8994 92.1909 95.229 92.6216 95.4839C93.0522 95.7388 93.5093 95.8662 93.9927 95.8662C94.3003 95.8662 94.6123 95.8091 94.9287 95.6948C95.2451 95.5718 95.5483 95.418 95.8384 95.2334C96.1372 95.0488 96.4185 94.8467 96.6821 94.627C96.9546 94.4072 97.1963 94.2007 97.4072 94.0073L97.8027 94.4292ZM94.6255 89.4194C94.6255 89.2173 94.5903 89.0239 94.52 88.8394C94.4585 88.6548 94.3662 88.4966 94.2432 88.3647C94.1201 88.2241 93.9707 88.1143 93.7949 88.0352C93.6279 87.9473 93.4346 87.9033 93.2148 87.9033C92.8193 87.9033 92.4546 88.0439 92.1206 88.3252C91.7866 88.5977 91.4966 88.936 91.2505 89.3403C91.0132 89.7446 90.8242 90.1753 90.6836 90.6323C90.5518 91.0806 90.4858 91.4761 90.4858 91.8188C90.4858 92.1528 90.5386 92.4956 90.644 92.8472C90.7495 93.1987 90.8945 93.5371 91.0791 93.8623C91.4307 93.6689 91.813 93.4009 92.2261 93.0581C92.6392 92.7153 93.0215 92.3418 93.373 91.9375C93.7334 91.5244 94.0322 91.0981 94.2695 90.6587C94.5068 90.2192 94.6255 89.8062 94.6255 89.4194ZM110.591 95.4575C110.485 95.686 110.349 95.9014 110.182 96.1035C110.015 96.3057 109.826 96.4858 109.615 96.644C109.413 96.8022 109.193 96.9253 108.956 97.0132C108.719 97.1099 108.473 97.1582 108.218 97.1582C107.523 97.1582 107.018 96.9692 106.702 96.5913C106.394 96.2046 106.24 95.6816 106.24 95.0225V89.6567C106.24 89.5952 106.236 89.5249 106.227 89.4458C106.227 89.3579 106.214 89.2788 106.188 89.2085C106.161 89.1294 106.126 89.0635 106.082 89.0107C106.038 88.958 105.977 88.9316 105.897 88.9316C105.651 88.9316 105.401 89.0811 105.146 89.3799C104.9 89.6787 104.658 90.0654 104.421 90.54C104.192 91.0146 103.977 91.5464 103.775 92.1353C103.582 92.7241 103.41 93.3086 103.261 93.8887C103.111 94.46 102.993 94.9961 102.905 95.4971C102.826 95.998 102.786 96.3979 102.786 96.6968L100.387 97.5405V88.6812C100.387 88.5054 100.343 88.3472 100.255 88.2065C100.167 88.0571 100.031 87.9824 99.8462 87.9824C99.6265 87.9824 99.4243 88.0659 99.2397 88.2329C99.064 88.3911 98.9233 88.5493 98.8179 88.7075L98.4619 88.312C98.5674 88.0923 98.6992 87.8813 98.8574 87.6792C99.0244 87.4683 99.209 87.2837 99.4111 87.1255C99.6221 86.9673 99.8462 86.8442 100.083 86.7563C100.33 86.6597 100.584 86.6113 100.848 86.6113C101.534 86.6113 102.026 86.8047 102.325 87.1914C102.632 87.5693 102.786 88.0835 102.786 88.7339V93.0317C102.865 92.6714 102.971 92.2627 103.103 91.8057C103.243 91.3398 103.41 90.8696 103.604 90.395C103.797 89.9204 104.012 89.459 104.25 89.0107C104.496 88.5537 104.764 88.1494 105.054 87.7979C105.344 87.4375 105.66 87.1519 106.003 86.9409C106.346 86.7212 106.715 86.6113 107.11 86.6113C107.523 86.6113 107.835 86.7036 108.046 86.8882C108.257 87.064 108.407 87.2925 108.495 87.5737C108.591 87.8462 108.644 88.1494 108.653 88.4834C108.662 88.8174 108.666 89.1382 108.666 89.4458V95.0884C108.666 95.2642 108.71 95.4268 108.798 95.5762C108.886 95.7168 109.022 95.7871 109.207 95.7871C109.409 95.7871 109.598 95.708 109.773 95.5498C109.958 95.3828 110.103 95.2202 110.208 95.062L110.591 95.4575ZM123.062 95.4575C122.957 95.686 122.821 95.9014 122.654 96.1035C122.487 96.3057 122.298 96.4858 122.087 96.644C121.885 96.8022 121.665 96.9253 121.428 97.0132C121.19 97.1099 120.944 97.1582 120.689 97.1582C119.995 97.1582 119.49 96.9692 119.173 96.5913C118.866 96.2046 118.712 95.6816 118.712 95.0225V89.6567C118.712 89.5952 118.708 89.5249 118.699 89.4458C118.699 89.3579 118.686 89.2788 118.659 89.2085C118.633 89.1294 118.598 89.0635 118.554 89.0107C118.51 88.958 118.448 88.9316 118.369 88.9316C118.123 88.9316 117.873 89.0811 117.618 89.3799C117.372 89.6787 117.13 90.0654 116.893 90.54C116.664 91.0146 116.449 91.5464 116.247 92.1353C116.053 92.7241 115.882 93.3086 115.732 93.8887C115.583 94.46 115.464 94.9961 115.376 95.4971C115.297 95.998 115.258 96.3979 115.258 96.6968L112.858 97.5405V88.6812C112.858 88.5054 112.814 88.3472 112.727 88.2065C112.639 88.0571 112.502 87.9824 112.318 87.9824C112.098 87.9824 111.896 88.0659 111.711 88.2329C111.536 88.3911 111.395 88.5493 111.29 88.7075L110.934 88.312C111.039 88.0923 111.171 87.8813 111.329 87.6792C111.496 87.4683 111.681 87.2837 111.883 87.1255C112.094 86.9673 112.318 86.8442 112.555 86.7563C112.801 86.6597 113.056 86.6113 113.32 86.6113C114.005 86.6113 114.498 86.8047 114.796 87.1914C115.104 87.5693 115.258 88.0835 115.258 88.7339V93.0317C115.337 92.6714 115.442 92.2627 115.574 91.8057C115.715 91.3398 115.882 90.8696 116.075 90.395C116.269 89.9204 116.484 89.459 116.721 89.0107C116.967 88.5537 117.235 88.1494 117.525 87.7979C117.815 87.4375 118.132 87.1519 118.475 86.9409C118.817 86.7212 119.187 86.6113 119.582 86.6113C119.995 86.6113 120.307 86.7036 120.518 86.8882C120.729 87.064 120.878 87.2925 120.966 87.5737C121.063 87.8462 121.116 88.1494 121.125 88.4834C121.133 88.8174 121.138 89.1382 121.138 89.4458V95.0884C121.138 95.2642 121.182 95.4268 121.27 95.5762C121.357 95.7168 121.494 95.7871 121.678 95.7871C121.88 95.7871 122.069 95.708 122.245 95.5498C122.43 95.3828 122.575 95.2202 122.68 95.062L123.062 95.4575ZM127.321 79.7954L126.622 84.6074L125.33 85.0161L124.539 80.7446L127.321 79.7954ZM129.14 95.4575C128.938 95.8882 128.701 96.2178 128.428 96.4463C128.165 96.6748 127.91 96.8418 127.664 96.9473C127.374 97.0703 127.079 97.1406 126.78 97.1582C126.394 97.1582 126.073 97.0967 125.818 96.9736C125.563 96.8506 125.361 96.688 125.211 96.4858C125.062 96.2837 124.957 96.0552 124.895 95.8003C124.842 95.5454 124.816 95.2861 124.816 95.0225V87.6265L127.242 86.7959V95.0884C127.242 95.2993 127.29 95.4663 127.387 95.5894C127.483 95.7124 127.606 95.7783 127.756 95.7871C127.914 95.7871 128.081 95.73 128.257 95.6157C128.441 95.5015 128.617 95.3169 128.784 95.062L129.14 95.4575Z" fill="#F5D4FE"/>
<path d="M51.0781 107.477C50.8958 107.711 50.6953 107.93 50.4766 108.133C50.263 108.336 50.0286 108.513 49.7734 108.664C49.5234 108.815 49.2578 108.935 48.9766 109.023C48.6953 109.112 48.4036 109.156 48.1016 109.156C47.7161 109.156 47.362 109.089 47.0391 108.953C46.7161 108.812 46.4375 108.622 46.2031 108.383C45.9688 108.138 45.7865 107.852 45.6562 107.523C45.526 107.19 45.4609 106.833 45.4609 106.453C45.4609 106.141 45.5052 105.833 45.5938 105.531C45.6823 105.229 45.8073 104.945 45.9688 104.68C46.1302 104.414 46.3203 104.169 46.5391 103.945C46.763 103.716 47.0078 103.521 47.2734 103.359C47.5391 103.198 47.8203 103.073 48.1172 102.984C48.4141 102.891 48.7188 102.844 49.0312 102.844C49.25 102.844 49.4557 102.87 49.6484 102.922C49.8464 102.974 50.0208 103.057 50.1719 103.172C50.3229 103.281 50.4427 103.424 50.5312 103.602C50.6198 103.773 50.6641 103.979 50.6641 104.219C50.6641 104.417 50.6042 104.625 50.4844 104.844C50.3698 105.062 50.2161 105.281 50.0234 105.5C49.8359 105.719 49.6224 105.935 49.3828 106.148C49.1432 106.357 48.8984 106.552 48.6484 106.734C48.4036 106.911 48.1667 107.068 47.9375 107.203C47.7083 107.339 47.5078 107.443 47.3359 107.516C47.5286 107.755 47.7526 107.951 48.0078 108.102C48.263 108.253 48.5339 108.328 48.8203 108.328C49.0026 108.328 49.1875 108.294 49.375 108.227C49.5625 108.154 49.7422 108.062 49.9141 107.953C50.0911 107.844 50.2578 107.724 50.4141 107.594C50.5755 107.464 50.7188 107.341 50.8438 107.227L51.0781 107.477ZM49.1953 104.508C49.1953 104.388 49.1745 104.273 49.1328 104.164C49.0964 104.055 49.0417 103.961 48.9688 103.883C48.8958 103.799 48.8073 103.734 48.7031 103.688C48.6042 103.635 48.4896 103.609 48.3594 103.609C48.125 103.609 47.9089 103.693 47.7109 103.859C47.513 104.021 47.3411 104.221 47.1953 104.461C47.0547 104.701 46.9427 104.956 46.8594 105.227C46.7812 105.492 46.7422 105.727 46.7422 105.93C46.7422 106.128 46.7734 106.331 46.8359 106.539C46.8984 106.747 46.9844 106.948 47.0938 107.141C47.3021 107.026 47.5286 106.867 47.7734 106.664C48.0182 106.461 48.2448 106.24 48.4531 106C48.6667 105.755 48.8438 105.503 48.9844 105.242C49.125 104.982 49.1953 104.737 49.1953 104.508ZM60.7969 108.086C60.6771 108.341 60.5365 108.536 60.375 108.672C60.2135 108.807 60.0599 108.906 59.9141 108.969C59.7422 109.042 59.5677 109.083 59.3906 109.094C59.1562 109.094 58.9635 109.057 58.8125 108.984C58.6667 108.911 58.5495 108.815 58.4609 108.695C58.3724 108.576 58.3099 108.44 58.2734 108.289C58.2422 108.138 58.2266 107.984 58.2266 107.828V104.555C58.2266 104.471 58.2109 104.398 58.1797 104.336C58.1484 104.268 58.1068 104.229 58.0547 104.219C58.0026 104.208 57.9401 104.234 57.8672 104.297C57.7943 104.359 57.7161 104.471 57.6328 104.633C57.4922 105.049 57.3646 105.487 57.25 105.945C57.151 106.341 57.0599 106.789 56.9766 107.289C56.8984 107.784 56.8542 108.294 56.8438 108.82L55.4062 109.32V104.555C55.4062 104.471 55.3906 104.398 55.3594 104.336C55.3281 104.268 55.2839 104.229 55.2266 104.219C55.1745 104.208 55.112 104.234 55.0391 104.297C54.9661 104.359 54.8906 104.471 54.8125 104.633C54.6562 105.07 54.5208 105.526 54.4062 106C54.3542 106.203 54.3047 106.419 54.2578 106.648C54.2109 106.878 54.1693 107.115 54.1328 107.359C54.1016 107.599 54.0755 107.844 54.0547 108.094C54.0339 108.339 54.026 108.581 54.0312 108.82L52.6094 109.32V104.07C52.6094 103.945 52.5807 103.846 52.5234 103.773C52.4661 103.701 52.3906 103.664 52.2969 103.664C52.2083 103.659 52.1094 103.69 52 103.758C51.8906 103.826 51.7839 103.935 51.6797 104.086L51.4688 103.852C51.5885 103.602 51.7266 103.409 51.8828 103.273C52.0443 103.133 52.2005 103.031 52.3516 102.969C52.5234 102.896 52.7005 102.854 52.8828 102.844C53.112 102.844 53.2995 102.88 53.4453 102.953C53.5964 103.026 53.7135 103.122 53.7969 103.242C53.8854 103.357 53.9453 103.49 53.9766 103.641C54.013 103.792 54.0312 103.945 54.0312 104.102V105.75C54.125 105.281 54.2656 104.867 54.4531 104.508C54.6406 104.148 54.8359 103.846 55.0391 103.602C55.2474 103.352 55.4505 103.164 55.6484 103.039C55.8464 102.909 56.0052 102.844 56.125 102.844C56.276 102.844 56.3984 102.87 56.4922 102.922C56.5859 102.969 56.6589 103.042 56.7109 103.141C56.763 103.24 56.7969 103.362 56.8125 103.508C56.8333 103.648 56.8438 103.815 56.8438 104.008V105.75C56.9427 105.281 57.0833 104.867 57.2656 104.508C57.4531 104.148 57.651 103.846 57.8594 103.602C58.0677 103.352 58.2708 103.164 58.4688 103.039C58.6667 102.909 58.8255 102.844 58.9453 102.844C59.2422 102.844 59.4349 102.943 59.5234 103.141C59.6172 103.333 59.6641 103.622 59.6641 104.008V107.867C59.6641 107.992 59.6927 108.091 59.75 108.164C59.8073 108.237 59.8802 108.276 59.9688 108.281C60.0573 108.281 60.1536 108.247 60.2578 108.18C60.3672 108.112 60.474 108.003 60.5781 107.852L60.7969 108.086ZM63.3359 98.8047L62.9219 101.656L62.1562 101.898L61.6875 99.3672L63.3359 98.8047ZM64.4141 108.086C64.2943 108.341 64.1536 108.536 63.9922 108.672C63.8359 108.807 63.6849 108.906 63.5391 108.969C63.3672 109.042 63.1927 109.083 63.0156 109.094C62.7865 109.094 62.5964 109.057 62.4453 108.984C62.2943 108.911 62.1745 108.815 62.0859 108.695C61.9974 108.576 61.9349 108.44 61.8984 108.289C61.8672 108.138 61.8516 107.984 61.8516 107.828V103.445L63.2891 102.953V107.867C63.2891 107.992 63.3177 108.091 63.375 108.164C63.4323 108.237 63.5052 108.276 63.5938 108.281C63.6875 108.281 63.7865 108.247 63.8906 108.18C64 108.112 64.1042 108.003 64.2031 107.852L64.4141 108.086ZM68.0859 108.086C68.0234 108.221 67.9427 108.349 67.8438 108.469C67.75 108.589 67.6432 108.695 67.5234 108.789C67.4036 108.883 67.2708 108.956 67.125 109.008C66.9844 109.065 66.8385 109.094 66.6875 109.094C66.2812 109.094 65.9844 108.982 65.7969 108.758C65.6146 108.529 65.5234 108.219 65.5234 107.828V98.2969L66.9609 97.7969V107.867C66.9609 107.971 66.9844 108.068 67.0312 108.156C67.0781 108.24 67.1615 108.281 67.2812 108.281C67.401 108.281 67.513 108.234 67.6172 108.141C67.7266 108.042 67.8125 107.945 67.875 107.852L68.0859 108.086ZM70.6484 98.8047L70.2344 101.656L69.4688 101.898L69 99.3672L70.6484 98.8047ZM71.7266 108.086C71.6068 108.341 71.4661 108.536 71.3047 108.672C71.1484 108.807 70.9974 108.906 70.8516 108.969C70.6797 109.042 70.5052 109.083 70.3281 109.094C70.099 109.094 69.9089 109.057 69.7578 108.984C69.6068 108.911 69.487 108.815 69.3984 108.695C69.3099 108.576 69.2474 108.44 69.2109 108.289C69.1797 108.138 69.1641 107.984 69.1641 107.828V103.445L70.6016 102.953V107.867C70.6016 107.992 70.6302 108.091 70.6875 108.164C70.7448 108.237 70.8177 108.276 70.9062 108.281C71 108.281 71.099 108.247 71.2031 108.18C71.3125 108.112 71.4167 108.003 71.5156 107.852L71.7266 108.086ZM78.8203 108.07C78.7578 108.206 78.6797 108.333 78.5859 108.453C78.4922 108.573 78.3828 108.68 78.2578 108.773C78.138 108.867 78.0052 108.943 77.8594 109C77.7188 109.052 77.5703 109.078 77.4141 109.078C77.0026 109.078 76.7057 108.966 76.5234 108.742C76.3464 108.513 76.2578 108.203 76.2578 107.812V107.672C76.1641 107.849 76.0573 108.026 75.9375 108.203C75.8229 108.38 75.6901 108.539 75.5391 108.68C75.3932 108.82 75.2292 108.935 75.0469 109.023C74.8646 109.112 74.6615 109.156 74.4375 109.156C74.099 109.156 73.7995 109.091 73.5391 108.961C73.2786 108.831 73.0599 108.656 72.8828 108.438C72.7057 108.214 72.5729 107.953 72.4844 107.656C72.3958 107.359 72.3516 107.044 72.3516 106.711C72.3516 106.258 72.4297 105.807 72.5859 105.359C72.7474 104.906 72.9714 104.503 73.2578 104.148C73.5495 103.794 73.8958 103.508 74.2969 103.289C74.7031 103.065 75.1536 102.953 75.6484 102.953C75.8464 102.953 76.0443 102.971 76.2422 103.008C76.4401 103.044 76.6276 103.104 76.8047 103.188C76.987 103.266 77.151 103.37 77.2969 103.5C77.4479 103.63 77.5703 103.789 77.6641 103.977L76.5 104.469C76.4375 104.37 76.3646 104.276 76.2812 104.188C76.2031 104.094 76.1146 104.013 76.0156 103.945C75.9219 103.878 75.8203 103.823 75.7109 103.781C75.6016 103.74 75.487 103.719 75.3672 103.719C75.0964 103.719 74.8542 103.802 74.6406 103.969C74.4323 104.135 74.2526 104.341 74.1016 104.586C73.9557 104.831 73.8438 105.091 73.7656 105.367C73.6875 105.643 73.6484 105.893 73.6484 106.117C73.6484 106.315 73.6667 106.539 73.7031 106.789C73.7448 107.034 73.8151 107.266 73.9141 107.484C74.013 107.703 74.1432 107.888 74.3047 108.039C74.4661 108.19 74.6693 108.266 74.9141 108.266C75.1068 108.266 75.2734 108.224 75.4141 108.141C75.5547 108.052 75.6745 107.94 75.7734 107.805C75.8724 107.664 75.9531 107.505 76.0156 107.328C76.0833 107.146 76.1328 106.961 76.1641 106.773C76.2005 106.586 76.224 106.401 76.2344 106.219C76.25 106.031 76.2578 105.865 76.2578 105.719V105.18L77.6797 104.68V107.852C77.6797 107.956 77.7057 108.052 77.7578 108.141C77.8099 108.224 77.8906 108.266 78 108.266C78.1302 108.266 78.2474 108.219 78.3516 108.125C78.4609 108.026 78.5469 107.927 78.6094 107.828L78.8203 108.07ZM86.3281 110.148L85.8516 111.414H80.5078L81 110.148H86.3281ZM90.0859 98.8047L89.6562 101.656L88.9062 101.898L88.4453 99.3672L90.0859 98.8047ZM90.0234 108.359C90.0234 108.724 89.9792 109.068 89.8906 109.391C89.8073 109.714 89.6901 110.016 89.5391 110.297C89.3932 110.578 89.2188 110.839 89.0156 111.078C88.8125 111.323 88.5938 111.542 88.3594 111.734C88.0208 111.995 87.6719 112.195 87.3125 112.336C87.1615 112.398 87 112.448 86.8281 112.484C86.6562 112.526 86.4844 112.547 86.3125 112.547C86.1354 112.547 85.9583 112.521 85.7812 112.469C85.599 112.417 85.4245 112.328 85.2578 112.203L86.1406 111.094C86.4115 111.312 86.6667 111.445 86.9062 111.492C87.1406 111.544 87.3464 111.557 87.5234 111.531C87.7318 111.5 87.9193 111.43 88.0859 111.32C88.2318 111.211 88.3411 111.047 88.4141 110.828C88.487 110.615 88.5339 110.375 88.5547 110.109C88.5807 109.844 88.5911 109.568 88.5859 109.281C88.5859 109 88.5859 108.734 88.5859 108.484V103.445L90.0234 102.953V108.359ZM97.0312 107.477C96.849 107.711 96.6484 107.93 96.4297 108.133C96.2161 108.336 95.9818 108.513 95.7266 108.664C95.4766 108.815 95.2109 108.935 94.9297 109.023C94.6484 109.112 94.3568 109.156 94.0547 109.156C93.6693 109.156 93.3151 109.089 92.9922 108.953C92.6693 108.812 92.3906 108.622 92.1562 108.383C91.9219 108.138 91.7396 107.852 91.6094 107.523C91.4792 107.19 91.4141 106.833 91.4141 106.453C91.4141 106.141 91.4583 105.833 91.5469 105.531C91.6354 105.229 91.7604 104.945 91.9219 104.68C92.0833 104.414 92.2734 104.169 92.4922 103.945C92.7161 103.716 92.9609 103.521 93.2266 103.359C93.4922 103.198 93.7734 103.073 94.0703 102.984C94.3672 102.891 94.6719 102.844 94.9844 102.844C95.2031 102.844 95.4089 102.87 95.6016 102.922C95.7995 102.974 95.974 103.057 96.125 103.172C96.276 103.281 96.3958 103.424 96.4844 103.602C96.5729 103.773 96.6172 103.979 96.6172 104.219C96.6172 104.417 96.5573 104.625 96.4375 104.844C96.3229 105.062 96.1693 105.281 95.9766 105.5C95.7891 105.719 95.5755 105.935 95.3359 106.148C95.0964 106.357 94.8516 106.552 94.6016 106.734C94.3568 106.911 94.1198 107.068 93.8906 107.203C93.6615 107.339 93.4609 107.443 93.2891 107.516C93.4818 107.755 93.7057 107.951 93.9609 108.102C94.2161 108.253 94.487 108.328 94.7734 108.328C94.9557 108.328 95.1406 108.294 95.3281 108.227C95.5156 108.154 95.6953 108.062 95.8672 107.953C96.0443 107.844 96.2109 107.724 96.3672 107.594C96.5286 107.464 96.6719 107.341 96.7969 107.227L97.0312 107.477ZM95.1484 104.508C95.1484 104.388 95.1276 104.273 95.0859 104.164C95.0495 104.055 94.9948 103.961 94.9219 103.883C94.849 103.799 94.7604 103.734 94.6562 103.688C94.5573 103.635 94.4427 103.609 94.3125 103.609C94.0781 103.609 93.862 103.693 93.6641 103.859C93.4661 104.021 93.2943 104.221 93.1484 104.461C93.0078 104.701 92.8958 104.956 92.8125 105.227C92.7344 105.492 92.6953 105.727 92.6953 105.93C92.6953 106.128 92.7266 106.331 92.7891 106.539C92.8516 106.747 92.9375 106.948 93.0469 107.141C93.2552 107.026 93.4818 106.867 93.7266 106.664C93.9714 106.461 94.1979 106.24 94.4062 106C94.6198 105.755 94.7969 105.503 94.9375 105.242C95.0781 104.982 95.1484 104.737 95.1484 104.508ZM104.609 108.086C104.547 108.221 104.466 108.349 104.367 108.469C104.268 108.589 104.156 108.695 104.031 108.789C103.911 108.883 103.781 108.956 103.641 109.008C103.5 109.065 103.354 109.094 103.203 109.094C102.792 109.094 102.492 108.982 102.305 108.758C102.122 108.529 102.031 108.219 102.031 107.828V104.648C102.031 104.612 102.029 104.57 102.023 104.523C102.023 104.471 102.016 104.424 102 104.383C101.984 104.336 101.964 104.297 101.938 104.266C101.911 104.234 101.875 104.219 101.828 104.219C101.682 104.219 101.534 104.307 101.383 104.484C101.237 104.661 101.094 104.891 100.953 105.172C100.818 105.453 100.69 105.768 100.57 106.117C100.456 106.466 100.354 106.812 100.266 107.156C100.177 107.495 100.107 107.812 100.055 108.109C100.008 108.406 99.9844 108.643 99.9844 108.82L98.5625 109.32V104.07C98.5625 103.966 98.5365 103.872 98.4844 103.789C98.4323 103.701 98.3516 103.656 98.2422 103.656C98.112 103.656 97.9922 103.706 97.8828 103.805C97.7786 103.898 97.6953 103.992 97.6328 104.086L97.4219 103.852C97.4844 103.721 97.5625 103.596 97.6562 103.477C97.7552 103.352 97.8646 103.242 97.9844 103.148C98.1094 103.055 98.2422 102.982 98.3828 102.93C98.5286 102.872 98.6797 102.844 98.8359 102.844C99.2422 102.844 99.5339 102.958 99.7109 103.188C99.8932 103.411 99.9844 103.716 99.9844 104.102V106.648C100.031 106.435 100.094 106.193 100.172 105.922C100.255 105.646 100.354 105.367 100.469 105.086C100.583 104.805 100.711 104.531 100.852 104.266C100.997 103.995 101.156 103.755 101.328 103.547C101.5 103.333 101.688 103.164 101.891 103.039C102.094 102.909 102.312 102.844 102.547 102.844C102.792 102.844 102.977 102.898 103.102 103.008C103.227 103.112 103.315 103.247 103.367 103.414C103.424 103.576 103.456 103.755 103.461 103.953C103.466 104.151 103.469 104.341 103.469 104.523V107.867C103.469 107.971 103.495 108.068 103.547 108.156C103.599 108.24 103.68 108.281 103.789 108.281C103.909 108.281 104.021 108.234 104.125 108.141C104.234 108.042 104.32 107.945 104.383 107.852L104.609 108.086ZM112 108.086C111.938 108.221 111.857 108.349 111.758 108.469C111.659 108.589 111.547 108.695 111.422 108.789C111.302 108.883 111.172 108.956 111.031 109.008C110.891 109.065 110.745 109.094 110.594 109.094C110.182 109.094 109.883 108.982 109.695 108.758C109.513 108.529 109.422 108.219 109.422 107.828V104.648C109.422 104.612 109.419 104.57 109.414 104.523C109.414 104.471 109.406 104.424 109.391 104.383C109.375 104.336 109.354 104.297 109.328 104.266C109.302 104.234 109.266 104.219 109.219 104.219C109.073 104.219 108.924 104.307 108.773 104.484C108.628 104.661 108.484 104.891 108.344 105.172C108.208 105.453 108.081 105.768 107.961 106.117C107.846 106.466 107.745 106.812 107.656 107.156C107.568 107.495 107.497 107.812 107.445 108.109C107.398 108.406 107.375 108.643 107.375 108.82L105.953 109.32V104.07C105.953 103.966 105.927 103.872 105.875 103.789C105.823 103.701 105.742 103.656 105.633 103.656C105.503 103.656 105.383 103.706 105.273 103.805C105.169 103.898 105.086 103.992 105.023 104.086L104.812 103.852C104.875 103.721 104.953 103.596 105.047 103.477C105.146 103.352 105.255 103.242 105.375 103.148C105.5 103.055 105.633 102.982 105.773 102.93C105.919 102.872 106.07 102.844 106.227 102.844C106.633 102.844 106.924 102.958 107.102 103.188C107.284 103.411 107.375 103.716 107.375 104.102V106.648C107.422 106.435 107.484 106.193 107.562 105.922C107.646 105.646 107.745 105.367 107.859 105.086C107.974 104.805 108.102 104.531 108.242 104.266C108.388 103.995 108.547 103.755 108.719 103.547C108.891 103.333 109.078 103.164 109.281 103.039C109.484 102.909 109.703 102.844 109.938 102.844C110.182 102.844 110.367 102.898 110.492 103.008C110.617 103.112 110.706 103.247 110.758 103.414C110.815 103.576 110.846 103.755 110.852 103.953C110.857 104.151 110.859 104.341 110.859 104.523V107.867C110.859 107.971 110.885 108.068 110.938 108.156C110.99 108.24 111.07 108.281 111.18 108.281C111.299 108.281 111.411 108.234 111.516 108.141C111.625 108.042 111.711 107.945 111.773 107.852L112 108.086ZM114.523 98.8047L114.109 101.656L113.344 101.898L112.875 99.3672L114.523 98.8047ZM115.602 108.086C115.482 108.341 115.341 108.536 115.18 108.672C115.023 108.807 114.872 108.906 114.727 108.969C114.555 109.042 114.38 109.083 114.203 109.094C113.974 109.094 113.784 109.057 113.633 108.984C113.482 108.911 113.362 108.815 113.273 108.695C113.185 108.576 113.122 108.44 113.086 108.289C113.055 108.138 113.039 107.984 113.039 107.828V103.445L114.477 102.953V107.867C114.477 107.992 114.505 108.091 114.562 108.164C114.62 108.237 114.693 108.276 114.781 108.281C114.875 108.281 114.974 108.247 115.078 108.18C115.188 108.112 115.292 108.003 115.391 107.852L115.602 108.086Z" fill="black"/>
</svg>
