<svg width="131" height="130" viewBox="0 0 131 130" fill="none" xmlns="http://www.w3.org/2000/svg">
<rect width="130" height="130" fill="#222121"/>
<path d="M21.2568 99.4292C20.9492 99.8247 20.6108 100.194 20.2417 100.537C19.8813 100.879 19.4858 101.178 19.0552 101.433C18.6333 101.688 18.1851 101.89 17.7104 102.04C17.2358 102.189 16.7437 102.264 16.2339 102.264C15.5835 102.264 14.9858 102.149 14.4409 101.921C13.896 101.684 13.4258 101.363 13.0303 100.958C12.6348 100.545 12.3271 100.062 12.1074 99.5083C11.8877 98.9458 11.7778 98.3438 11.7778 97.7021C11.7778 97.1748 11.8525 96.6562 12.002 96.1465C12.1514 95.6367 12.3623 95.1577 12.6348 94.7095C12.9072 94.2612 13.228 93.8481 13.5972 93.4702C13.9751 93.0835 14.3882 92.7539 14.8364 92.4814C15.2847 92.209 15.7593 91.998 16.2603 91.8486C16.7612 91.6904 17.2754 91.6113 17.8027 91.6113C18.1719 91.6113 18.519 91.6553 18.8442 91.7432C19.1782 91.8311 19.4727 91.9717 19.7275 92.165C19.9824 92.3496 20.1846 92.5913 20.334 92.8901C20.4834 93.1802 20.5581 93.5273 20.5581 93.9316C20.5581 94.2656 20.457 94.6172 20.2549 94.9863C20.0615 95.3555 19.8022 95.7246 19.4771 96.0938C19.1606 96.4629 18.8003 96.8276 18.396 97.188C17.9917 97.5396 17.5786 97.8691 17.1567 98.1768C16.7437 98.4756 16.3438 98.7393 15.957 98.9678C15.5703 99.1963 15.2319 99.3721 14.9419 99.4951C15.2671 99.8994 15.645 100.229 16.0757 100.484C16.5063 100.739 16.9634 100.866 17.4468 100.866C17.7544 100.866 18.0664 100.809 18.3828 100.695C18.6992 100.572 19.0024 100.418 19.2925 100.233C19.5913 100.049 19.8726 99.8467 20.1362 99.627C20.4087 99.4072 20.6504 99.2007 20.8613 99.0073L21.2568 99.4292ZM18.0796 94.4194C18.0796 94.2173 18.0444 94.0239 17.9741 93.8394C17.9126 93.6548 17.8203 93.4966 17.6973 93.3647C17.5742 93.2241 17.4248 93.1143 17.249 93.0352C17.082 92.9473 16.8887 92.9033 16.6689 92.9033C16.2734 92.9033 15.9087 93.0439 15.5747 93.3252C15.2407 93.5977 14.9507 93.936 14.7046 94.3403C14.4673 94.7446 14.2783 95.1753 14.1377 95.6323C14.0059 96.0806 13.9399 96.4761 13.9399 96.8188C13.9399 97.1528 13.9927 97.4956 14.0981 97.8472C14.2036 98.1987 14.3486 98.5371 14.5332 98.8623C14.8848 98.6689 15.2671 98.4009 15.6802 98.0581C16.0933 97.7153 16.4756 97.3418 16.8271 96.9375C17.1875 96.5244 17.4863 96.0981 17.7236 95.6587C17.9609 95.2192 18.0796 94.8062 18.0796 94.4194ZM37.6572 100.458C37.4551 100.888 37.2178 101.218 36.9453 101.446C36.6729 101.675 36.4136 101.842 36.1675 101.947C35.8774 102.07 35.583 102.141 35.2842 102.158C34.8887 102.158 34.5635 102.097 34.3086 101.974C34.0625 101.851 33.8647 101.688 33.7153 101.486C33.5659 101.284 33.4604 101.055 33.3989 100.8C33.3462 100.545 33.3198 100.286 33.3198 100.022V94.4985C33.3198 94.3579 33.2935 94.2349 33.2407 94.1294C33.188 94.0151 33.1177 93.9492 33.0298 93.9316C32.9419 93.9141 32.8364 93.958 32.7134 94.0635C32.5903 94.1689 32.4585 94.3579 32.3179 94.6304C32.0806 95.3335 31.8652 96.0718 31.6719 96.8452C31.5049 97.5132 31.3511 98.269 31.2104 99.1128C31.0786 99.9478 31.0039 100.809 30.9863 101.697L28.5605 102.541V94.4985C28.5605 94.3579 28.5342 94.2349 28.4814 94.1294C28.4287 94.0151 28.354 93.9492 28.2573 93.9316C28.1694 93.9141 28.064 93.958 27.9409 94.0635C27.8179 94.1689 27.6904 94.3579 27.5586 94.6304C27.2949 95.3687 27.0664 96.1377 26.873 96.9375C26.7852 97.2803 26.7017 97.645 26.6226 98.0317C26.5435 98.4185 26.4731 98.8184 26.4116 99.2314C26.3589 99.6357 26.3149 100.049 26.2798 100.471C26.2446 100.884 26.2314 101.292 26.2402 101.697L23.8408 102.541V93.6812C23.8408 93.4702 23.7925 93.3032 23.6958 93.1802C23.5991 93.0571 23.4717 92.9956 23.3135 92.9956C23.1641 92.9868 22.9971 93.0396 22.8125 93.1538C22.6279 93.2681 22.4478 93.4526 22.272 93.7075L21.916 93.312C22.1182 92.8901 22.3511 92.5649 22.6147 92.3364C22.8872 92.0991 23.1509 91.9277 23.4058 91.8223C23.6958 91.6992 23.9946 91.6289 24.3022 91.6113C24.689 91.6113 25.0054 91.6729 25.2515 91.7959C25.5063 91.9189 25.7041 92.0815 25.8447 92.2837C25.9941 92.4771 26.0952 92.7012 26.1479 92.9561C26.2095 93.2109 26.2402 93.4702 26.2402 93.7339V96.5156C26.3984 95.7246 26.6357 95.0259 26.9521 94.4194C27.2686 93.813 27.5981 93.3032 27.9409 92.8901C28.2925 92.4683 28.6353 92.1519 28.9692 91.9409C29.3032 91.7212 29.5713 91.6113 29.7734 91.6113C30.0283 91.6113 30.2349 91.6553 30.3931 91.7432C30.5513 91.8223 30.6743 91.9453 30.7622 92.1123C30.8501 92.2793 30.9072 92.4858 30.9336 92.7319C30.9688 92.9692 30.9863 93.2505 30.9863 93.5757V96.5156C31.1533 95.7246 31.3906 95.0259 31.6982 94.4194C32.0146 93.813 32.3486 93.3032 32.7002 92.8901C33.0518 92.4683 33.3945 92.1519 33.7285 91.9409C34.0625 91.7212 34.3306 91.6113 34.5327 91.6113C35.0337 91.6113 35.3589 91.7783 35.5083 92.1123C35.6665 92.4375 35.7456 92.9253 35.7456 93.5757V100.088C35.7456 100.299 35.7939 100.466 35.8906 100.589C35.9873 100.712 36.1104 100.778 36.2598 100.787C36.4092 100.787 36.5718 100.73 36.7476 100.616C36.9321 100.501 37.1123 100.317 37.2881 100.062L37.6572 100.458ZM41.9419 84.7954L41.2432 89.6074L39.9512 90.0161L39.1602 85.7446L41.9419 84.7954ZM43.7612 100.458C43.5591 100.888 43.3218 101.218 43.0493 101.446C42.7856 101.675 42.5308 101.842 42.2847 101.947C41.9946 102.07 41.7002 102.141 41.4014 102.158C41.0146 102.158 40.6938 102.097 40.439 101.974C40.1841 101.851 39.9819 101.688 39.8325 101.486C39.6831 101.284 39.5776 101.055 39.5161 100.8C39.4634 100.545 39.437 100.286 39.437 100.022V92.6265L41.8628 91.7959V100.088C41.8628 100.299 41.9111 100.466 42.0078 100.589C42.1045 100.712 42.2275 100.778 42.377 100.787C42.5352 100.787 42.7021 100.73 42.8779 100.616C43.0625 100.501 43.2383 100.317 43.4053 100.062L43.7612 100.458ZM49.9575 100.458C49.8521 100.686 49.7158 100.901 49.5488 101.104C49.3906 101.306 49.2104 101.486 49.0083 101.644C48.8062 101.802 48.582 101.925 48.3359 102.013C48.0986 102.11 47.8525 102.158 47.5977 102.158C46.9121 102.158 46.4111 101.969 46.0947 101.591C45.7871 101.205 45.6333 100.682 45.6333 100.022V83.9385L48.0591 83.0947V100.088C48.0591 100.264 48.0986 100.427 48.1777 100.576C48.2568 100.717 48.3975 100.787 48.5996 100.787C48.8018 100.787 48.9907 100.708 49.1665 100.55C49.3511 100.383 49.4961 100.22 49.6016 100.062L49.9575 100.458ZM54.2817 84.7954L53.583 89.6074L52.291 90.0161L51.5 85.7446L54.2817 84.7954ZM56.1011 100.458C55.8989 100.888 55.6616 101.218 55.3892 101.446C55.1255 101.675 54.8706 101.842 54.6245 101.947C54.3345 102.07 54.04 102.141 53.7412 102.158C53.3545 102.158 53.0337 102.097 52.7788 101.974C52.5239 101.851 52.3218 101.688 52.1724 101.486C52.0229 101.284 51.9175 101.055 51.856 100.8C51.8032 100.545 51.7769 100.286 51.7769 100.022V92.6265L54.2026 91.7959V100.088C54.2026 100.299 54.251 100.466 54.3477 100.589C54.4443 100.712 54.5674 100.778 54.7168 100.787C54.875 100.787 55.042 100.73 55.2178 100.616C55.4023 100.501 55.5781 100.317 55.7451 100.062L56.1011 100.458ZM68.0718 100.431C67.9663 100.66 67.8345 100.875 67.6763 101.077C67.5181 101.279 67.3335 101.459 67.1226 101.618C66.9204 101.776 66.6963 101.903 66.4502 102C66.2129 102.088 65.9624 102.132 65.6987 102.132C65.0044 102.132 64.5034 101.943 64.1958 101.565C63.897 101.178 63.7476 100.655 63.7476 99.9961V99.7588C63.5894 100.058 63.4092 100.356 63.207 100.655C63.0137 100.954 62.7896 101.222 62.5347 101.459C62.2886 101.697 62.0117 101.89 61.7041 102.04C61.3965 102.189 61.0537 102.264 60.6758 102.264C60.1045 102.264 59.5991 102.154 59.1597 101.934C58.7202 101.714 58.3511 101.42 58.0522 101.051C57.7534 100.673 57.5293 100.233 57.3799 99.7324C57.2305 99.2314 57.1558 98.6997 57.1558 98.1372C57.1558 97.3726 57.2876 96.6123 57.5513 95.8564C57.8237 95.0918 58.2017 94.4106 58.6851 93.813C59.1772 93.2153 59.7617 92.7319 60.4385 92.3628C61.124 91.9849 61.8843 91.7959 62.7192 91.7959C63.0532 91.7959 63.3872 91.8267 63.7212 91.8882C64.0552 91.9497 64.3716 92.0508 64.6704 92.1914C64.978 92.3232 65.2549 92.499 65.501 92.7188C65.7559 92.9385 65.9624 93.2065 66.1206 93.5229L64.1562 94.3535C64.0508 94.1865 63.9277 94.0283 63.7871 93.8789C63.6553 93.7207 63.5059 93.5845 63.3389 93.4702C63.1807 93.356 63.0093 93.2637 62.8247 93.1934C62.6401 93.123 62.4468 93.0879 62.2446 93.0879C61.7876 93.0879 61.3789 93.2285 61.0186 93.5098C60.667 93.791 60.3638 94.1382 60.1089 94.5513C59.8628 94.9644 59.6738 95.4038 59.542 95.8696C59.4102 96.3354 59.3442 96.7573 59.3442 97.1353C59.3442 97.4692 59.375 97.8472 59.4365 98.269C59.5068 98.6821 59.6255 99.0732 59.7925 99.4424C59.9595 99.8115 60.1792 100.124 60.4517 100.378C60.7241 100.633 61.0669 100.761 61.48 100.761C61.8052 100.761 62.0864 100.69 62.3237 100.55C62.561 100.4 62.7632 100.211 62.9302 99.9829C63.0972 99.7456 63.2334 99.4775 63.3389 99.1787C63.4531 98.8711 63.5366 98.5591 63.5894 98.2427C63.6509 97.9263 63.6904 97.6143 63.708 97.3066C63.7344 96.9902 63.7476 96.709 63.7476 96.4629V95.5532L66.147 94.7095V100.062C66.147 100.238 66.1909 100.4 66.2788 100.55C66.3667 100.69 66.5029 100.761 66.6875 100.761C66.9072 100.761 67.105 100.682 67.2808 100.523C67.4653 100.356 67.6104 100.189 67.7158 100.022L68.0718 100.431ZM80.7412 103.938L79.937 106.074H70.9194L71.75 103.938H80.7412ZM87.0825 84.7954L86.3574 89.6074L85.0918 90.0161L84.314 85.7446L87.0825 84.7954ZM86.9771 100.919C86.9771 101.534 86.9023 102.114 86.7529 102.659C86.6123 103.204 86.4146 103.714 86.1597 104.188C85.9136 104.663 85.6191 105.103 85.2764 105.507C84.9336 105.92 84.5645 106.289 84.1689 106.614C83.5977 107.054 83.0088 107.392 82.4023 107.629C82.1475 107.735 81.875 107.818 81.585 107.88C81.2949 107.95 81.0049 107.985 80.7148 107.985C80.416 107.985 80.1172 107.941 79.8184 107.854C79.5107 107.766 79.2163 107.616 78.9351 107.405L80.4248 105.533C80.8818 105.902 81.3125 106.126 81.7168 106.206C82.1123 106.293 82.4595 106.315 82.7583 106.271C83.1099 106.219 83.4263 106.1 83.7075 105.916C83.9536 105.731 84.1382 105.454 84.2612 105.085C84.3843 104.725 84.4634 104.32 84.4985 103.872C84.5425 103.424 84.5601 102.958 84.5513 102.475C84.5513 102 84.5513 101.552 84.5513 101.13V92.6265L86.9771 91.7959V100.919ZM98.8027 99.4292C98.4951 99.8247 98.1567 100.194 97.7876 100.537C97.4272 100.879 97.0317 101.178 96.6011 101.433C96.1792 101.688 95.731 101.89 95.2563 102.04C94.7817 102.189 94.2896 102.264 93.7798 102.264C93.1294 102.264 92.5317 102.149 91.9868 101.921C91.4419 101.684 90.9717 101.363 90.5762 100.958C90.1807 100.545 89.873 100.062 89.6533 99.5083C89.4336 98.9458 89.3237 98.3438 89.3237 97.7021C89.3237 97.1748 89.3984 96.6562 89.5479 96.1465C89.6973 95.6367 89.9082 95.1577 90.1807 94.7095C90.4531 94.2612 90.7739 93.8481 91.1431 93.4702C91.521 93.0835 91.9341 92.7539 92.3823 92.4814C92.8306 92.209 93.3052 91.998 93.8062 91.8486C94.3071 91.6904 94.8213 91.6113 95.3486 91.6113C95.7178 91.6113 96.0649 91.6553 96.3901 91.7432C96.7241 91.8311 97.0186 91.9717 97.2734 92.165C97.5283 92.3496 97.7305 92.5913 97.8799 92.8901C98.0293 93.1802 98.104 93.5273 98.104 93.9316C98.104 94.2656 98.0029 94.6172 97.8008 94.9863C97.6074 95.3555 97.3481 95.7246 97.0229 96.0938C96.7065 96.4629 96.3462 96.8276 95.9419 97.188C95.5376 97.5396 95.1245 97.8691 94.7026 98.1768C94.2896 98.4756 93.8896 98.7393 93.5029 98.9678C93.1162 99.1963 92.7778 99.3721 92.4878 99.4951C92.813 99.8994 93.1909 100.229 93.6216 100.484C94.0522 100.739 94.5093 100.866 94.9927 100.866C95.3003 100.866 95.6123 100.809 95.9287 100.695C96.2451 100.572 96.5483 100.418 96.8384 100.233C97.1372 100.049 97.4185 99.8467 97.6821 99.627C97.9546 99.4072 98.1963 99.2007 98.4072 99.0073L98.8027 99.4292ZM95.6255 94.4194C95.6255 94.2173 95.5903 94.0239 95.52 93.8394C95.4585 93.6548 95.3662 93.4966 95.2432 93.3647C95.1201 93.2241 94.9707 93.1143 94.7949 93.0352C94.6279 92.9473 94.4346 92.9033 94.2148 92.9033C93.8193 92.9033 93.4546 93.0439 93.1206 93.3252C92.7866 93.5977 92.4966 93.936 92.2505 94.3403C92.0132 94.7446 91.8242 95.1753 91.6836 95.6323C91.5518 96.0806 91.4858 96.4761 91.4858 96.8188C91.4858 97.1528 91.5386 97.4956 91.644 97.8472C91.7495 98.1987 91.8945 98.5371 92.0791 98.8623C92.4307 98.6689 92.813 98.4009 93.2261 98.0581C93.6392 97.7153 94.0215 97.3418 94.373 96.9375C94.7334 96.5244 95.0322 96.0981 95.2695 95.6587C95.5068 95.2192 95.6255 94.8062 95.6255 94.4194ZM111.591 100.458C111.485 100.686 111.349 100.901 111.182 101.104C111.015 101.306 110.826 101.486 110.615 101.644C110.413 101.802 110.193 101.925 109.956 102.013C109.719 102.11 109.473 102.158 109.218 102.158C108.523 102.158 108.018 101.969 107.702 101.591C107.394 101.205 107.24 100.682 107.24 100.022V94.6567C107.24 94.5952 107.236 94.5249 107.227 94.4458C107.227 94.3579 107.214 94.2788 107.188 94.2085C107.161 94.1294 107.126 94.0635 107.082 94.0107C107.038 93.958 106.977 93.9316 106.897 93.9316C106.651 93.9316 106.401 94.0811 106.146 94.3799C105.9 94.6787 105.658 95.0654 105.421 95.54C105.192 96.0146 104.977 96.5464 104.775 97.1353C104.582 97.7241 104.41 98.3086 104.261 98.8887C104.111 99.46 103.993 99.9961 103.905 100.497C103.826 100.998 103.786 101.398 103.786 101.697L101.387 102.541V93.6812C101.387 93.5054 101.343 93.3472 101.255 93.2065C101.167 93.0571 101.031 92.9824 100.846 92.9824C100.626 92.9824 100.424 93.0659 100.24 93.2329C100.064 93.3911 99.9233 93.5493 99.8179 93.7075L99.4619 93.312C99.5674 93.0923 99.6992 92.8813 99.8574 92.6792C100.024 92.4683 100.209 92.2837 100.411 92.1255C100.622 91.9673 100.846 91.8442 101.083 91.7563C101.33 91.6597 101.584 91.6113 101.848 91.6113C102.534 91.6113 103.026 91.8047 103.325 92.1914C103.632 92.5693 103.786 93.0835 103.786 93.7339V98.0317C103.865 97.6714 103.971 97.2627 104.103 96.8057C104.243 96.3398 104.41 95.8696 104.604 95.395C104.797 94.9204 105.012 94.459 105.25 94.0107C105.496 93.5537 105.764 93.1494 106.054 92.7979C106.344 92.4375 106.66 92.1519 107.003 91.9409C107.346 91.7212 107.715 91.6113 108.11 91.6113C108.523 91.6113 108.835 91.7036 109.046 91.8882C109.257 92.064 109.407 92.2925 109.495 92.5737C109.591 92.8462 109.644 93.1494 109.653 93.4834C109.662 93.8174 109.666 94.1382 109.666 94.4458V100.088C109.666 100.264 109.71 100.427 109.798 100.576C109.886 100.717 110.022 100.787 110.207 100.787C110.409 100.787 110.598 100.708 110.773 100.55C110.958 100.383 111.103 100.22 111.208 100.062L111.591 100.458ZM124.062 100.458C123.957 100.686 123.821 100.901 123.654 101.104C123.487 101.306 123.298 101.486 123.087 101.644C122.885 101.802 122.665 101.925 122.428 102.013C122.19 102.11 121.944 102.158 121.689 102.158C120.995 102.158 120.49 101.969 120.173 101.591C119.866 101.205 119.712 100.682 119.712 100.022V94.6567C119.712 94.5952 119.708 94.5249 119.699 94.4458C119.699 94.3579 119.686 94.2788 119.659 94.2085C119.633 94.1294 119.598 94.0635 119.554 94.0107C119.51 93.958 119.448 93.9316 119.369 93.9316C119.123 93.9316 118.873 94.0811 118.618 94.3799C118.372 94.6787 118.13 95.0654 117.893 95.54C117.664 96.0146 117.449 96.5464 117.247 97.1353C117.053 97.7241 116.882 98.3086 116.732 98.8887C116.583 99.46 116.464 99.9961 116.376 100.497C116.297 100.998 116.258 101.398 116.258 101.697L113.858 102.541V93.6812C113.858 93.5054 113.814 93.3472 113.727 93.2065C113.639 93.0571 113.502 92.9824 113.318 92.9824C113.098 92.9824 112.896 93.0659 112.711 93.2329C112.536 93.3911 112.395 93.5493 112.29 93.7075L111.934 93.312C112.039 93.0923 112.171 92.8813 112.329 92.6792C112.496 92.4683 112.681 92.2837 112.883 92.1255C113.094 91.9673 113.318 91.8442 113.555 91.7563C113.801 91.6597 114.056 91.6113 114.32 91.6113C115.005 91.6113 115.498 91.8047 115.796 92.1914C116.104 92.5693 116.258 93.0835 116.258 93.7339V98.0317C116.337 97.6714 116.442 97.2627 116.574 96.8057C116.715 96.3398 116.882 95.8696 117.075 95.395C117.269 94.9204 117.484 94.459 117.721 94.0107C117.967 93.5537 118.235 93.1494 118.525 92.7979C118.815 92.4375 119.132 92.1519 119.475 91.9409C119.817 91.7212 120.187 91.6113 120.582 91.6113C120.995 91.6113 121.307 91.7036 121.518 91.8882C121.729 92.064 121.878 92.2925 121.966 92.5737C122.063 92.8462 122.116 93.1494 122.125 93.4834C122.133 93.8174 122.138 94.1382 122.138 94.4458V100.088C122.138 100.264 122.182 100.427 122.27 100.576C122.357 100.717 122.494 100.787 122.678 100.787C122.88 100.787 123.069 100.708 123.245 100.55C123.43 100.383 123.575 100.22 123.68 100.062L124.062 100.458ZM128.321 84.7954L127.622 89.6074L126.33 90.0161L125.539 85.7446L128.321 84.7954ZM130.14 100.458C129.938 100.888 129.701 101.218 129.428 101.446C129.165 101.675 128.91 101.842 128.664 101.947C128.374 102.07 128.079 102.141 127.78 102.158C127.394 102.158 127.073 102.097 126.818 101.974C126.563 101.851 126.361 101.688 126.211 101.486C126.062 101.284 125.957 101.055 125.895 100.8C125.842 100.545 125.816 100.286 125.816 100.022V92.6265L128.242 91.7959V100.088C128.242 100.299 128.29 100.466 128.387 100.589C128.483 100.712 128.606 100.778 128.756 100.787C128.914 100.787 129.081 100.73 129.257 100.616C129.441 100.501 129.617 100.317 129.784 100.062L130.14 100.458Z" fill="#F5D4FE"/>
<path d="M51.0781 112.477C50.8958 112.711 50.6953 112.93 50.4766 113.133C50.263 113.336 50.0286 113.513 49.7734 113.664C49.5234 113.815 49.2578 113.935 48.9766 114.023C48.6953 114.112 48.4036 114.156 48.1016 114.156C47.7161 114.156 47.362 114.089 47.0391 113.953C46.7161 113.812 46.4375 113.622 46.2031 113.383C45.9688 113.138 45.7865 112.852 45.6562 112.523C45.526 112.19 45.4609 111.833 45.4609 111.453C45.4609 111.141 45.5052 110.833 45.5938 110.531C45.6823 110.229 45.8073 109.945 45.9688 109.68C46.1302 109.414 46.3203 109.169 46.5391 108.945C46.763 108.716 47.0078 108.521 47.2734 108.359C47.5391 108.198 47.8203 108.073 48.1172 107.984C48.4141 107.891 48.7188 107.844 49.0312 107.844C49.25 107.844 49.4557 107.87 49.6484 107.922C49.8464 107.974 50.0208 108.057 50.1719 108.172C50.3229 108.281 50.4427 108.424 50.5312 108.602C50.6198 108.773 50.6641 108.979 50.6641 109.219C50.6641 109.417 50.6042 109.625 50.4844 109.844C50.3698 110.062 50.2161 110.281 50.0234 110.5C49.8359 110.719 49.6224 110.935 49.3828 111.148C49.1432 111.357 48.8984 111.552 48.6484 111.734C48.4036 111.911 48.1667 112.068 47.9375 112.203C47.7083 112.339 47.5078 112.443 47.3359 112.516C47.5286 112.755 47.7526 112.951 48.0078 113.102C48.263 113.253 48.5339 113.328 48.8203 113.328C49.0026 113.328 49.1875 113.294 49.375 113.227C49.5625 113.154 49.7422 113.062 49.9141 112.953C50.0911 112.844 50.2578 112.724 50.4141 112.594C50.5755 112.464 50.7188 112.341 50.8438 112.227L51.0781 112.477ZM49.1953 109.508C49.1953 109.388 49.1745 109.273 49.1328 109.164C49.0964 109.055 49.0417 108.961 48.9688 108.883C48.8958 108.799 48.8073 108.734 48.7031 108.688C48.6042 108.635 48.4896 108.609 48.3594 108.609C48.125 108.609 47.9089 108.693 47.7109 108.859C47.513 109.021 47.3411 109.221 47.1953 109.461C47.0547 109.701 46.9427 109.956 46.8594 110.227C46.7812 110.492 46.7422 110.727 46.7422 110.93C46.7422 111.128 46.7734 111.331 46.8359 111.539C46.8984 111.747 46.9844 111.948 47.0938 112.141C47.3021 112.026 47.5286 111.867 47.7734 111.664C48.0182 111.461 48.2448 111.24 48.4531 111C48.6667 110.755 48.8438 110.503 48.9844 110.242C49.125 109.982 49.1953 109.737 49.1953 109.508ZM60.7969 113.086C60.6771 113.341 60.5365 113.536 60.375 113.672C60.2135 113.807 60.0599 113.906 59.9141 113.969C59.7422 114.042 59.5677 114.083 59.3906 114.094C59.1562 114.094 58.9635 114.057 58.8125 113.984C58.6667 113.911 58.5495 113.815 58.4609 113.695C58.3724 113.576 58.3099 113.44 58.2734 113.289C58.2422 113.138 58.2266 112.984 58.2266 112.828V109.555C58.2266 109.471 58.2109 109.398 58.1797 109.336C58.1484 109.268 58.1068 109.229 58.0547 109.219C58.0026 109.208 57.9401 109.234 57.8672 109.297C57.7943 109.359 57.7161 109.471 57.6328 109.633C57.4922 110.049 57.3646 110.487 57.25 110.945C57.151 111.341 57.0599 111.789 56.9766 112.289C56.8984 112.784 56.8542 113.294 56.8438 113.82L55.4062 114.32V109.555C55.4062 109.471 55.3906 109.398 55.3594 109.336C55.3281 109.268 55.2839 109.229 55.2266 109.219C55.1745 109.208 55.112 109.234 55.0391 109.297C54.9661 109.359 54.8906 109.471 54.8125 109.633C54.6562 110.07 54.5208 110.526 54.4062 111C54.3542 111.203 54.3047 111.419 54.2578 111.648C54.2109 111.878 54.1693 112.115 54.1328 112.359C54.1016 112.599 54.0755 112.844 54.0547 113.094C54.0339 113.339 54.026 113.581 54.0312 113.82L52.6094 114.32V109.07C52.6094 108.945 52.5807 108.846 52.5234 108.773C52.4661 108.701 52.3906 108.664 52.2969 108.664C52.2083 108.659 52.1094 108.69 52 108.758C51.8906 108.826 51.7839 108.935 51.6797 109.086L51.4688 108.852C51.5885 108.602 51.7266 108.409 51.8828 108.273C52.0443 108.133 52.2005 108.031 52.3516 107.969C52.5234 107.896 52.7005 107.854 52.8828 107.844C53.112 107.844 53.2995 107.88 53.4453 107.953C53.5964 108.026 53.7135 108.122 53.7969 108.242C53.8854 108.357 53.9453 108.49 53.9766 108.641C54.013 108.792 54.0312 108.945 54.0312 109.102V110.75C54.125 110.281 54.2656 109.867 54.4531 109.508C54.6406 109.148 54.8359 108.846 55.0391 108.602C55.2474 108.352 55.4505 108.164 55.6484 108.039C55.8464 107.909 56.0052 107.844 56.125 107.844C56.276 107.844 56.3984 107.87 56.4922 107.922C56.5859 107.969 56.6589 108.042 56.7109 108.141C56.763 108.24 56.7969 108.362 56.8125 108.508C56.8333 108.648 56.8438 108.815 56.8438 109.008V110.75C56.9427 110.281 57.0833 109.867 57.2656 109.508C57.4531 109.148 57.651 108.846 57.8594 108.602C58.0677 108.352 58.2708 108.164 58.4688 108.039C58.6667 107.909 58.8255 107.844 58.9453 107.844C59.2422 107.844 59.4349 107.943 59.5234 108.141C59.6172 108.333 59.6641 108.622 59.6641 109.008V112.867C59.6641 112.992 59.6927 113.091 59.75 113.164C59.8073 113.237 59.8802 113.276 59.9688 113.281C60.0573 113.281 60.1536 113.247 60.2578 113.18C60.3672 113.112 60.474 113.003 60.5781 112.852L60.7969 113.086ZM63.3359 103.805L62.9219 106.656L62.1562 106.898L61.6875 104.367L63.3359 103.805ZM64.4141 113.086C64.2943 113.341 64.1536 113.536 63.9922 113.672C63.8359 113.807 63.6849 113.906 63.5391 113.969C63.3672 114.042 63.1927 114.083 63.0156 114.094C62.7865 114.094 62.5964 114.057 62.4453 113.984C62.2943 113.911 62.1745 113.815 62.0859 113.695C61.9974 113.576 61.9349 113.44 61.8984 113.289C61.8672 113.138 61.8516 112.984 61.8516 112.828V108.445L63.2891 107.953V112.867C63.2891 112.992 63.3177 113.091 63.375 113.164C63.4323 113.237 63.5052 113.276 63.5938 113.281C63.6875 113.281 63.7865 113.247 63.8906 113.18C64 113.112 64.1042 113.003 64.2031 112.852L64.4141 113.086ZM68.0859 113.086C68.0234 113.221 67.9427 113.349 67.8438 113.469C67.75 113.589 67.6432 113.695 67.5234 113.789C67.4036 113.883 67.2708 113.956 67.125 114.008C66.9844 114.065 66.8385 114.094 66.6875 114.094C66.2812 114.094 65.9844 113.982 65.7969 113.758C65.6146 113.529 65.5234 113.219 65.5234 112.828V103.297L66.9609 102.797V112.867C66.9609 112.971 66.9844 113.068 67.0312 113.156C67.0781 113.24 67.1615 113.281 67.2812 113.281C67.401 113.281 67.513 113.234 67.6172 113.141C67.7266 113.042 67.8125 112.945 67.875 112.852L68.0859 113.086ZM70.6484 103.805L70.2344 106.656L69.4688 106.898L69 104.367L70.6484 103.805ZM71.7266 113.086C71.6068 113.341 71.4661 113.536 71.3047 113.672C71.1484 113.807 70.9974 113.906 70.8516 113.969C70.6797 114.042 70.5052 114.083 70.3281 114.094C70.099 114.094 69.9089 114.057 69.7578 113.984C69.6068 113.911 69.487 113.815 69.3984 113.695C69.3099 113.576 69.2474 113.44 69.2109 113.289C69.1797 113.138 69.1641 112.984 69.1641 112.828V108.445L70.6016 107.953V112.867C70.6016 112.992 70.6302 113.091 70.6875 113.164C70.7448 113.237 70.8177 113.276 70.9062 113.281C71 113.281 71.099 113.247 71.2031 113.18C71.3125 113.112 71.4167 113.003 71.5156 112.852L71.7266 113.086ZM78.8203 113.07C78.7578 113.206 78.6797 113.333 78.5859 113.453C78.4922 113.573 78.3828 113.68 78.2578 113.773C78.138 113.867 78.0052 113.943 77.8594 114C77.7188 114.052 77.5703 114.078 77.4141 114.078C77.0026 114.078 76.7057 113.966 76.5234 113.742C76.3464 113.513 76.2578 113.203 76.2578 112.812V112.672C76.1641 112.849 76.0573 113.026 75.9375 113.203C75.8229 113.38 75.6901 113.539 75.5391 113.68C75.3932 113.82 75.2292 113.935 75.0469 114.023C74.8646 114.112 74.6615 114.156 74.4375 114.156C74.099 114.156 73.7995 114.091 73.5391 113.961C73.2786 113.831 73.0599 113.656 72.8828 113.438C72.7057 113.214 72.5729 112.953 72.4844 112.656C72.3958 112.359 72.3516 112.044 72.3516 111.711C72.3516 111.258 72.4297 110.807 72.5859 110.359C72.7474 109.906 72.9714 109.503 73.2578 109.148C73.5495 108.794 73.8958 108.508 74.2969 108.289C74.7031 108.065 75.1536 107.953 75.6484 107.953C75.8464 107.953 76.0443 107.971 76.2422 108.008C76.4401 108.044 76.6276 108.104 76.8047 108.188C76.987 108.266 77.151 108.37 77.2969 108.5C77.4479 108.63 77.5703 108.789 77.6641 108.977L76.5 109.469C76.4375 109.37 76.3646 109.276 76.2812 109.188C76.2031 109.094 76.1146 109.013 76.0156 108.945C75.9219 108.878 75.8203 108.823 75.7109 108.781C75.6016 108.74 75.487 108.719 75.3672 108.719C75.0964 108.719 74.8542 108.802 74.6406 108.969C74.4323 109.135 74.2526 109.341 74.1016 109.586C73.9557 109.831 73.8438 110.091 73.7656 110.367C73.6875 110.643 73.6484 110.893 73.6484 111.117C73.6484 111.315 73.6667 111.539 73.7031 111.789C73.7448 112.034 73.8151 112.266 73.9141 112.484C74.013 112.703 74.1432 112.888 74.3047 113.039C74.4661 113.19 74.6693 113.266 74.9141 113.266C75.1068 113.266 75.2734 113.224 75.4141 113.141C75.5547 113.052 75.6745 112.94 75.7734 112.805C75.8724 112.664 75.9531 112.505 76.0156 112.328C76.0833 112.146 76.1328 111.961 76.1641 111.773C76.2005 111.586 76.224 111.401 76.2344 111.219C76.25 111.031 76.2578 110.865 76.2578 110.719V110.18L77.6797 109.68V112.852C77.6797 112.956 77.7057 113.052 77.7578 113.141C77.8099 113.224 77.8906 113.266 78 113.266C78.1302 113.266 78.2474 113.219 78.3516 113.125C78.4609 113.026 78.5469 112.927 78.6094 112.828L78.8203 113.07ZM86.3281 115.148L85.8516 116.414H80.5078L81 115.148H86.3281ZM90.0859 103.805L89.6562 106.656L88.9062 106.898L88.4453 104.367L90.0859 103.805ZM90.0234 113.359C90.0234 113.724 89.9792 114.068 89.8906 114.391C89.8073 114.714 89.6901 115.016 89.5391 115.297C89.3932 115.578 89.2188 115.839 89.0156 116.078C88.8125 116.323 88.5938 116.542 88.3594 116.734C88.0208 116.995 87.6719 117.195 87.3125 117.336C87.1615 117.398 87 117.448 86.8281 117.484C86.6562 117.526 86.4844 117.547 86.3125 117.547C86.1354 117.547 85.9583 117.521 85.7812 117.469C85.599 117.417 85.4245 117.328 85.2578 117.203L86.1406 116.094C86.4115 116.312 86.6667 116.445 86.9062 116.492C87.1406 116.544 87.3464 116.557 87.5234 116.531C87.7318 116.5 87.9193 116.43 88.0859 116.32C88.2318 116.211 88.3411 116.047 88.4141 115.828C88.487 115.615 88.5339 115.375 88.5547 115.109C88.5807 114.844 88.5911 114.568 88.5859 114.281C88.5859 114 88.5859 113.734 88.5859 113.484V108.445L90.0234 107.953V113.359ZM97.0312 112.477C96.849 112.711 96.6484 112.93 96.4297 113.133C96.2161 113.336 95.9818 113.513 95.7266 113.664C95.4766 113.815 95.2109 113.935 94.9297 114.023C94.6484 114.112 94.3568 114.156 94.0547 114.156C93.6693 114.156 93.3151 114.089 92.9922 113.953C92.6693 113.812 92.3906 113.622 92.1562 113.383C91.9219 113.138 91.7396 112.852 91.6094 112.523C91.4792 112.19 91.4141 111.833 91.4141 111.453C91.4141 111.141 91.4583 110.833 91.5469 110.531C91.6354 110.229 91.7604 109.945 91.9219 109.68C92.0833 109.414 92.2734 109.169 92.4922 108.945C92.7161 108.716 92.9609 108.521 93.2266 108.359C93.4922 108.198 93.7734 108.073 94.0703 107.984C94.3672 107.891 94.6719 107.844 94.9844 107.844C95.2031 107.844 95.4089 107.87 95.6016 107.922C95.7995 107.974 95.974 108.057 96.125 108.172C96.276 108.281 96.3958 108.424 96.4844 108.602C96.5729 108.773 96.6172 108.979 96.6172 109.219C96.6172 109.417 96.5573 109.625 96.4375 109.844C96.3229 110.062 96.1693 110.281 95.9766 110.5C95.7891 110.719 95.5755 110.935 95.3359 111.148C95.0964 111.357 94.8516 111.552 94.6016 111.734C94.3568 111.911 94.1198 112.068 93.8906 112.203C93.6615 112.339 93.4609 112.443 93.2891 112.516C93.4818 112.755 93.7057 112.951 93.9609 113.102C94.2161 113.253 94.487 113.328 94.7734 113.328C94.9557 113.328 95.1406 113.294 95.3281 113.227C95.5156 113.154 95.6953 113.062 95.8672 112.953C96.0443 112.844 96.2109 112.724 96.3672 112.594C96.5286 112.464 96.6719 112.341 96.7969 112.227L97.0312 112.477ZM95.1484 109.508C95.1484 109.388 95.1276 109.273 95.0859 109.164C95.0495 109.055 94.9948 108.961 94.9219 108.883C94.849 108.799 94.7604 108.734 94.6562 108.688C94.5573 108.635 94.4427 108.609 94.3125 108.609C94.0781 108.609 93.862 108.693 93.6641 108.859C93.4661 109.021 93.2943 109.221 93.1484 109.461C93.0078 109.701 92.8958 109.956 92.8125 110.227C92.7344 110.492 92.6953 110.727 92.6953 110.93C92.6953 111.128 92.7266 111.331 92.7891 111.539C92.8516 111.747 92.9375 111.948 93.0469 112.141C93.2552 112.026 93.4818 111.867 93.7266 111.664C93.9714 111.461 94.1979 111.24 94.4062 111C94.6198 110.755 94.7969 110.503 94.9375 110.242C95.0781 109.982 95.1484 109.737 95.1484 109.508ZM104.609 113.086C104.547 113.221 104.466 113.349 104.367 113.469C104.268 113.589 104.156 113.695 104.031 113.789C103.911 113.883 103.781 113.956 103.641 114.008C103.5 114.065 103.354 114.094 103.203 114.094C102.792 114.094 102.492 113.982 102.305 113.758C102.122 113.529 102.031 113.219 102.031 112.828V109.648C102.031 109.612 102.029 109.57 102.023 109.523C102.023 109.471 102.016 109.424 102 109.383C101.984 109.336 101.964 109.297 101.938 109.266C101.911 109.234 101.875 109.219 101.828 109.219C101.682 109.219 101.534 109.307 101.383 109.484C101.237 109.661 101.094 109.891 100.953 110.172C100.818 110.453 100.69 110.768 100.57 111.117C100.456 111.466 100.354 111.812 100.266 112.156C100.177 112.495 100.107 112.812 100.055 113.109C100.008 113.406 99.9844 113.643 99.9844 113.82L98.5625 114.32V109.07C98.5625 108.966 98.5365 108.872 98.4844 108.789C98.4323 108.701 98.3516 108.656 98.2422 108.656C98.112 108.656 97.9922 108.706 97.8828 108.805C97.7786 108.898 97.6953 108.992 97.6328 109.086L97.4219 108.852C97.4844 108.721 97.5625 108.596 97.6562 108.477C97.7552 108.352 97.8646 108.242 97.9844 108.148C98.1094 108.055 98.2422 107.982 98.3828 107.93C98.5286 107.872 98.6797 107.844 98.8359 107.844C99.2422 107.844 99.5339 107.958 99.7109 108.188C99.8932 108.411 99.9844 108.716 99.9844 109.102V111.648C100.031 111.435 100.094 111.193 100.172 110.922C100.255 110.646 100.354 110.367 100.469 110.086C100.583 109.805 100.711 109.531 100.852 109.266C100.997 108.995 101.156 108.755 101.328 108.547C101.5 108.333 101.688 108.164 101.891 108.039C102.094 107.909 102.312 107.844 102.547 107.844C102.792 107.844 102.977 107.898 103.102 108.008C103.227 108.112 103.315 108.247 103.367 108.414C103.424 108.576 103.456 108.755 103.461 108.953C103.466 109.151 103.469 109.341 103.469 109.523V112.867C103.469 112.971 103.495 113.068 103.547 113.156C103.599 113.24 103.68 113.281 103.789 113.281C103.909 113.281 104.021 113.234 104.125 113.141C104.234 113.042 104.32 112.945 104.383 112.852L104.609 113.086ZM112 113.086C111.938 113.221 111.857 113.349 111.758 113.469C111.659 113.589 111.547 113.695 111.422 113.789C111.302 113.883 111.172 113.956 111.031 114.008C110.891 114.065 110.745 114.094 110.594 114.094C110.182 114.094 109.883 113.982 109.695 113.758C109.513 113.529 109.422 113.219 109.422 112.828V109.648C109.422 109.612 109.419 109.57 109.414 109.523C109.414 109.471 109.406 109.424 109.391 109.383C109.375 109.336 109.354 109.297 109.328 109.266C109.302 109.234 109.266 109.219 109.219 109.219C109.073 109.219 108.924 109.307 108.773 109.484C108.628 109.661 108.484 109.891 108.344 110.172C108.208 110.453 108.081 110.768 107.961 111.117C107.846 111.466 107.745 111.812 107.656 112.156C107.568 112.495 107.497 112.812 107.445 113.109C107.398 113.406 107.375 113.643 107.375 113.82L105.953 114.32V109.07C105.953 108.966 105.927 108.872 105.875 108.789C105.823 108.701 105.742 108.656 105.633 108.656C105.503 108.656 105.383 108.706 105.273 108.805C105.169 108.898 105.086 108.992 105.023 109.086L104.812 108.852C104.875 108.721 104.953 108.596 105.047 108.477C105.146 108.352 105.255 108.242 105.375 108.148C105.5 108.055 105.633 107.982 105.773 107.93C105.919 107.872 106.07 107.844 106.227 107.844C106.633 107.844 106.924 107.958 107.102 108.188C107.284 108.411 107.375 108.716 107.375 109.102V111.648C107.422 111.435 107.484 111.193 107.562 110.922C107.646 110.646 107.745 110.367 107.859 110.086C107.974 109.805 108.102 109.531 108.242 109.266C108.388 108.995 108.547 108.755 108.719 108.547C108.891 108.333 109.078 108.164 109.281 108.039C109.484 107.909 109.703 107.844 109.938 107.844C110.182 107.844 110.367 107.898 110.492 108.008C110.617 108.112 110.706 108.247 110.758 108.414C110.815 108.576 110.846 108.755 110.852 108.953C110.857 109.151 110.859 109.341 110.859 109.523V112.867C110.859 112.971 110.885 113.068 110.938 113.156C110.99 113.24 111.07 113.281 111.18 113.281C111.299 113.281 111.411 113.234 111.516 113.141C111.625 113.042 111.711 112.945 111.773 112.852L112 113.086ZM114.523 103.805L114.109 106.656L113.344 106.898L112.875 104.367L114.523 103.805ZM115.602 113.086C115.482 113.341 115.341 113.536 115.18 113.672C115.023 113.807 114.872 113.906 114.727 113.969C114.555 114.042 114.38 114.083 114.203 114.094C113.974 114.094 113.784 114.057 113.633 113.984C113.482 113.911 113.362 113.815 113.273 113.695C113.185 113.576 113.122 113.44 113.086 113.289C113.055 113.138 113.039 112.984 113.039 112.828V108.445L114.477 107.953V112.867C114.477 112.992 114.505 113.091 114.562 113.164C114.62 113.237 114.693 113.276 114.781 113.281C114.875 113.281 114.974 113.247 115.078 113.18C115.188 113.112 115.292 113.003 115.391 112.852L115.602 113.086Z" fill="#F8B739"/>
</svg>
