<svg width="177" height="65" viewBox="0 0 177 65" fill="none" xmlns="http://www.w3.org/2000/svg">
<path d="M15.1953 33.1914C14.7396 33.7773 14.2383 34.3242 13.6914 34.832C13.1576 35.3398 12.5716 35.7826 11.9336 36.1602C11.3086 36.5378 10.6445 36.8372 9.94141 37.0586C9.23828 37.2799 8.50911 37.3906 7.75391 37.3906C6.79036 37.3906 5.90495 37.2214 5.09766 36.8828C4.29036 36.5312 3.59375 36.056 3.00781 35.457C2.42188 34.8451 1.96615 34.1289 1.64062 33.3086C1.3151 32.4753 1.15234 31.5833 1.15234 30.6328C1.15234 29.8516 1.26302 29.0833 1.48438 28.3281C1.70573 27.5729 2.01823 26.8633 2.42188 26.1992C2.82552 25.5352 3.30078 24.9232 3.84766 24.3633C4.40755 23.7904 5.01953 23.3021 5.68359 22.8984C6.34766 22.4948 7.05078 22.1823 7.79297 21.9609C8.53516 21.7266 9.29688 21.6094 10.0781 21.6094C10.625 21.6094 11.1393 21.6745 11.6211 21.8047C12.1159 21.9349 12.5521 22.1432 12.9297 22.4297C13.3073 22.7031 13.6068 23.0612 13.8281 23.5039C14.0495 23.9336 14.1602 24.4479 14.1602 25.0469C14.1602 25.5417 14.0104 26.0625 13.7109 26.6094C13.4245 27.1562 13.0404 27.7031 12.5586 28.25C12.0898 28.7969 11.556 29.3372 10.957 29.8711C10.3581 30.3919 9.74609 30.8802 9.12109 31.3359C8.50911 31.7786 7.91667 32.1693 7.34375 32.5078C6.77083 32.8464 6.26953 33.1068 5.83984 33.2891C6.32161 33.888 6.88151 34.3763 7.51953 34.7539C8.15755 35.1315 8.83464 35.3203 9.55078 35.3203C10.0065 35.3203 10.4688 35.2357 10.9375 35.0664C11.4062 34.8841 11.8555 34.6562 12.2852 34.3828C12.7279 34.1094 13.1445 33.8099 13.5352 33.4844C13.9388 33.1589 14.2969 32.8529 14.6094 32.5664L15.1953 33.1914ZM10.4883 25.7695C10.4883 25.4701 10.4362 25.1836 10.332 24.9102C10.2409 24.6367 10.1042 24.4023 9.92188 24.207C9.73958 23.9987 9.51823 23.8359 9.25781 23.7188C9.01042 23.5885 8.72396 23.5234 8.39844 23.5234C7.8125 23.5234 7.27214 23.7318 6.77734 24.1484C6.28255 24.5521 5.85286 25.0534 5.48828 25.6523C5.13672 26.2513 4.85677 26.8893 4.64844 27.5664C4.45312 28.2305 4.35547 28.8164 4.35547 29.3242C4.35547 29.819 4.43359 30.3268 4.58984 30.8477C4.74609 31.3685 4.96094 31.8698 5.23438 32.3516C5.75521 32.0651 6.32161 31.668 6.93359 31.1602C7.54557 30.6523 8.11198 30.099 8.63281 29.5C9.16667 28.888 9.60938 28.2565 9.96094 27.6055C10.3125 26.9544 10.4883 26.3424 10.4883 25.7695ZM39.4922 34.7148C39.1927 35.3529 38.8411 35.8411 38.4375 36.1797C38.0339 36.5182 37.6497 36.7656 37.2852 36.9219C36.8555 37.1042 36.4193 37.2083 35.9766 37.2344C35.3906 37.2344 34.9089 37.1432 34.5312 36.9609C34.1667 36.7786 33.8737 36.5378 33.6523 36.2383C33.431 35.9388 33.2747 35.6003 33.1836 35.2227C33.1055 34.8451 33.0664 34.4609 33.0664 34.0703V25.8867C33.0664 25.6784 33.0273 25.4961 32.9492 25.3398C32.8711 25.1706 32.7669 25.0729 32.6367 25.0469C32.5065 25.0208 32.3503 25.0859 32.168 25.2422C31.9857 25.3984 31.7904 25.6784 31.582 26.082C31.2305 27.1237 30.9115 28.2174 30.625 29.3633C30.3776 30.3529 30.1497 31.4727 29.9414 32.7227C29.7461 33.9596 29.6354 35.2357 29.6094 36.5508L26.0156 37.8008V25.8867C26.0156 25.6784 25.9766 25.4961 25.8984 25.3398C25.8203 25.1706 25.7096 25.0729 25.5664 25.0469C25.4362 25.0208 25.2799 25.0859 25.0977 25.2422C24.9154 25.3984 24.7266 25.6784 24.5312 26.082C24.1406 27.1758 23.8021 28.3151 23.5156 29.5C23.3854 30.0078 23.2617 30.5482 23.1445 31.1211C23.0273 31.694 22.9232 32.2865 22.832 32.8984C22.7539 33.4974 22.6888 34.1094 22.6367 34.7344C22.5846 35.3464 22.5651 35.9518 22.5781 36.5508L19.0234 37.8008V24.6758C19.0234 24.3633 18.9518 24.1159 18.8086 23.9336C18.6654 23.7513 18.4766 23.6602 18.2422 23.6602C18.0208 23.6471 17.7734 23.7253 17.5 23.8945C17.2266 24.0638 16.9596 24.3372 16.6992 24.7148L16.1719 24.1289C16.4714 23.5039 16.8164 23.0221 17.207 22.6836C17.6107 22.332 18.0013 22.0781 18.3789 21.9219C18.8086 21.7396 19.2513 21.6354 19.707 21.6094C20.2799 21.6094 20.7487 21.7005 21.1133 21.8828C21.4909 22.0651 21.7839 22.306 21.9922 22.6055C22.2135 22.8919 22.3633 23.224 22.4414 23.6016C22.5326 23.9792 22.5781 24.3633 22.5781 24.7539V28.875C22.8125 27.7031 23.1641 26.668 23.6328 25.7695C24.1016 24.8711 24.5898 24.1159 25.0977 23.5039C25.6185 22.8789 26.1263 22.4102 26.6211 22.0977C27.1159 21.7721 27.513 21.6094 27.8125 21.6094C28.1901 21.6094 28.4961 21.6745 28.7305 21.8047C28.9648 21.9219 29.1471 22.1042 29.2773 22.3516C29.4076 22.599 29.4922 22.9049 29.5312 23.2695C29.5833 23.6211 29.6094 24.0378 29.6094 24.5195V28.875C29.8568 27.7031 30.2083 26.668 30.6641 25.7695C31.1328 24.8711 31.6276 24.1159 32.1484 23.5039C32.6693 22.8789 33.1771 22.4102 33.6719 22.0977C34.1667 21.7721 34.5638 21.6094 34.8633 21.6094C35.6055 21.6094 36.0872 21.8568 36.3086 22.3516C36.543 22.8333 36.6602 23.556 36.6602 24.5195V34.168C36.6602 34.4805 36.7318 34.7279 36.875 34.9102C37.0182 35.0924 37.2005 35.1901 37.4219 35.2031C37.6432 35.2031 37.8841 35.1185 38.1445 34.9492C38.418 34.7799 38.6849 34.5065 38.9453 34.1289L39.4922 34.7148ZM45.8398 11.5117L44.8047 18.6406L42.8906 19.2461L41.7188 12.918L45.8398 11.5117ZM48.5352 34.7148C48.2357 35.3529 47.8841 35.8411 47.4805 36.1797C47.0898 36.5182 46.7122 36.7656 46.3477 36.9219C45.918 37.1042 45.4818 37.2083 45.0391 37.2344C44.4661 37.2344 43.9909 37.1432 43.6133 36.9609C43.2357 36.7786 42.9362 36.5378 42.7148 36.2383C42.4935 35.9388 42.3372 35.6003 42.2461 35.2227C42.168 34.8451 42.1289 34.4609 42.1289 34.0703V23.1133L45.7227 21.8828V34.168C45.7227 34.4805 45.7943 34.7279 45.9375 34.9102C46.0807 35.0924 46.263 35.1901 46.4844 35.2031C46.7188 35.2031 46.9661 35.1185 47.2266 34.9492C47.5 34.7799 47.7604 34.5065 48.0078 34.1289L48.5352 34.7148ZM57.7148 34.7148C57.5586 35.0534 57.3568 35.3724 57.1094 35.6719C56.875 35.9714 56.6081 36.2383 56.3086 36.4727C56.0091 36.707 55.6771 36.8893 55.3125 37.0195C54.9609 37.1628 54.5964 37.2344 54.2188 37.2344C53.2031 37.2344 52.4609 36.9544 51.9922 36.3945C51.5365 35.8216 51.3086 35.0469 51.3086 34.0703V10.2422L54.9023 8.99219V34.168C54.9023 34.4284 54.9609 34.6693 55.0781 34.8906C55.1953 35.099 55.4036 35.2031 55.7031 35.2031C56.0026 35.2031 56.2826 35.0859 56.543 34.8516C56.8164 34.6042 57.0312 34.3633 57.1875 34.1289L57.7148 34.7148ZM64.1211 11.5117L63.0859 18.6406L61.1719 19.2461L60 12.918L64.1211 11.5117ZM66.8164 34.7148C66.5169 35.3529 66.1654 35.8411 65.7617 36.1797C65.3711 36.5182 64.9935 36.7656 64.6289 36.9219C64.1992 37.1042 63.763 37.2083 63.3203 37.2344C62.7474 37.2344 62.2721 37.1432 61.8945 36.9609C61.5169 36.7786 61.2174 36.5378 60.9961 36.2383C60.7747 35.9388 60.6185 35.6003 60.5273 35.2227C60.4492 34.8451 60.4102 34.4609 60.4102 34.0703V23.1133L64.0039 21.8828V34.168C64.0039 34.4805 64.0755 34.7279 64.2188 34.9102C64.362 35.0924 64.5443 35.1901 64.7656 35.2031C65 35.2031 65.2474 35.1185 65.5078 34.9492C65.7812 34.7799 66.0417 34.5065 66.2891 34.1289L66.8164 34.7148ZM84.5508 34.6758C84.3945 35.0143 84.1992 35.3333 83.9648 35.6328C83.7305 35.9323 83.457 36.1992 83.1445 36.4336C82.8451 36.668 82.513 36.8568 82.1484 37C81.7969 37.1302 81.4258 37.1953 81.0352 37.1953C80.0065 37.1953 79.2643 36.9154 78.8086 36.3555C78.3659 35.7826 78.1445 35.0078 78.1445 34.0312V33.6797C77.9102 34.1224 77.6432 34.5651 77.3438 35.0078C77.0573 35.4505 76.7253 35.8477 76.3477 36.1992C75.9831 36.5508 75.5729 36.8372 75.1172 37.0586C74.6615 37.2799 74.1536 37.3906 73.5938 37.3906C72.7474 37.3906 71.9987 37.2279 71.3477 36.9023C70.6966 36.5768 70.1497 36.1406 69.707 35.5938C69.2643 35.0339 68.9323 34.3828 68.7109 33.6406C68.4896 32.8984 68.3789 32.1107 68.3789 31.2773C68.3789 30.1445 68.5742 29.0182 68.9648 27.8984C69.3685 26.7656 69.9284 25.7565 70.6445 24.8711C71.3737 23.9857 72.2396 23.2695 73.2422 22.7227C74.2578 22.1628 75.3841 21.8828 76.6211 21.8828C77.1159 21.8828 77.6107 21.9284 78.1055 22.0195C78.6003 22.1107 79.069 22.2604 79.5117 22.4688C79.9674 22.6641 80.3776 22.9245 80.7422 23.25C81.1198 23.5755 81.4258 23.9727 81.6602 24.4414L78.75 25.6719C78.5938 25.4245 78.4115 25.1901 78.2031 24.9688C78.0078 24.7344 77.7865 24.5326 77.5391 24.3633C77.3047 24.194 77.0508 24.0573 76.7773 23.9531C76.5039 23.849 76.2174 23.7969 75.918 23.7969C75.2409 23.7969 74.6354 24.0052 74.1016 24.4219C73.5807 24.8385 73.1315 25.3529 72.7539 25.9648C72.3893 26.5768 72.1094 27.2279 71.9141 27.918C71.7188 28.6081 71.6211 29.2331 71.6211 29.793C71.6211 30.2878 71.6667 30.8477 71.7578 31.4727C71.862 32.0846 72.0378 32.6641 72.2852 33.2109C72.5326 33.7578 72.8581 34.2201 73.2617 34.5977C73.6654 34.9753 74.1732 35.1641 74.7852 35.1641C75.2669 35.1641 75.6836 35.0599 76.0352 34.8516C76.3867 34.6302 76.6862 34.3503 76.9336 34.0117C77.181 33.6602 77.3828 33.263 77.5391 32.8203C77.7083 32.3646 77.832 31.9023 77.9102 31.4336C78.0013 30.9648 78.0599 30.5026 78.0859 30.0469C78.125 29.5781 78.1445 29.1615 78.1445 28.7969V27.4492L81.6992 26.1992V34.1289C81.6992 34.3893 81.7643 34.6302 81.8945 34.8516C82.0247 35.0599 82.2266 35.1641 82.5 35.1641C82.8255 35.1641 83.1185 35.0469 83.3789 34.8125C83.6523 34.5651 83.8672 34.3177 84.0234 34.0703L84.5508 34.6758ZM103.32 39.8711L102.129 43.0352H88.7695L90 39.8711H103.32ZM112.715 11.5117L111.641 18.6406L109.766 19.2461L108.613 12.918L112.715 11.5117ZM112.559 35.3984C112.559 36.3099 112.448 37.1693 112.227 37.9766C112.018 38.7839 111.725 39.5391 111.348 40.2422C110.983 40.9453 110.547 41.5964 110.039 42.1953C109.531 42.8073 108.984 43.3542 108.398 43.8359C107.552 44.487 106.68 44.9883 105.781 45.3398C105.404 45.4961 105 45.6198 104.57 45.7109C104.141 45.8151 103.711 45.8672 103.281 45.8672C102.839 45.8672 102.396 45.8021 101.953 45.6719C101.497 45.5417 101.061 45.3203 100.645 45.0078L102.852 42.2344C103.529 42.7812 104.167 43.1133 104.766 43.2305C105.352 43.3607 105.866 43.3932 106.309 43.3281C106.829 43.25 107.298 43.0742 107.715 42.8008C108.079 42.5273 108.353 42.1172 108.535 41.5703C108.717 41.0365 108.835 40.4375 108.887 39.7734C108.952 39.1094 108.978 38.4193 108.965 37.7031C108.965 37 108.965 36.3359 108.965 35.7109V23.1133L112.559 21.8828V35.3984ZM130.078 33.1914C129.622 33.7773 129.121 34.3242 128.574 34.832C128.04 35.3398 127.454 35.7826 126.816 36.1602C126.191 36.5378 125.527 36.8372 124.824 37.0586C124.121 37.2799 123.392 37.3906 122.637 37.3906C121.673 37.3906 120.788 37.2214 119.98 36.8828C119.173 36.5312 118.477 36.056 117.891 35.457C117.305 34.8451 116.849 34.1289 116.523 33.3086C116.198 32.4753 116.035 31.5833 116.035 30.6328C116.035 29.8516 116.146 29.0833 116.367 28.3281C116.589 27.5729 116.901 26.8633 117.305 26.1992C117.708 25.5352 118.184 24.9232 118.73 24.3633C119.29 23.7904 119.902 23.3021 120.566 22.8984C121.23 22.4948 121.934 22.1823 122.676 21.9609C123.418 21.7266 124.18 21.6094 124.961 21.6094C125.508 21.6094 126.022 21.6745 126.504 21.8047C126.999 21.9349 127.435 22.1432 127.812 22.4297C128.19 22.7031 128.49 23.0612 128.711 23.5039C128.932 23.9336 129.043 24.4479 129.043 25.0469C129.043 25.5417 128.893 26.0625 128.594 26.6094C128.307 27.1562 127.923 27.7031 127.441 28.25C126.973 28.7969 126.439 29.3372 125.84 29.8711C125.241 30.3919 124.629 30.8802 124.004 31.3359C123.392 31.7786 122.799 32.1693 122.227 32.5078C121.654 32.8464 121.152 33.1068 120.723 33.2891C121.204 33.888 121.764 34.3763 122.402 34.7539C123.04 35.1315 123.717 35.3203 124.434 35.3203C124.889 35.3203 125.352 35.2357 125.82 35.0664C126.289 34.8841 126.738 34.6562 127.168 34.3828C127.611 34.1094 128.027 33.8099 128.418 33.4844C128.822 33.1589 129.18 32.8529 129.492 32.5664L130.078 33.1914ZM125.371 25.7695C125.371 25.4701 125.319 25.1836 125.215 24.9102C125.124 24.6367 124.987 24.4023 124.805 24.207C124.622 23.9987 124.401 23.8359 124.141 23.7188C123.893 23.5885 123.607 23.5234 123.281 23.5234C122.695 23.5234 122.155 23.7318 121.66 24.1484C121.165 24.5521 120.736 25.0534 120.371 25.6523C120.02 26.2513 119.74 26.8893 119.531 27.5664C119.336 28.2305 119.238 28.8164 119.238 29.3242C119.238 29.819 119.316 30.3268 119.473 30.8477C119.629 31.3685 119.844 31.8698 120.117 32.3516C120.638 32.0651 121.204 31.668 121.816 31.1602C122.428 30.6523 122.995 30.099 123.516 29.5C124.049 28.888 124.492 28.2565 124.844 27.6055C125.195 26.9544 125.371 26.3424 125.371 25.7695ZM149.023 34.7148C148.867 35.0534 148.665 35.3724 148.418 35.6719C148.171 35.9714 147.891 36.2383 147.578 36.4727C147.279 36.707 146.953 36.8893 146.602 37.0195C146.25 37.1628 145.885 37.2344 145.508 37.2344C144.479 37.2344 143.73 36.9544 143.262 36.3945C142.806 35.8216 142.578 35.0469 142.578 34.0703V26.1211C142.578 26.0299 142.572 25.9258 142.559 25.8086C142.559 25.6784 142.539 25.5612 142.5 25.457C142.461 25.3398 142.409 25.2422 142.344 25.1641C142.279 25.0859 142.188 25.0469 142.07 25.0469C141.706 25.0469 141.335 25.2682 140.957 25.7109C140.592 26.1536 140.234 26.7266 139.883 27.4297C139.544 28.1328 139.225 28.9206 138.926 29.793C138.639 30.6654 138.385 31.5312 138.164 32.3906C137.943 33.237 137.767 34.0312 137.637 34.7734C137.52 35.5156 137.461 36.1081 137.461 36.5508L133.906 37.8008V24.6758C133.906 24.4154 133.841 24.181 133.711 23.9727C133.581 23.7513 133.379 23.6406 133.105 23.6406C132.78 23.6406 132.48 23.7643 132.207 24.0117C131.947 24.2461 131.738 24.4805 131.582 24.7148L131.055 24.1289C131.211 23.8034 131.406 23.4909 131.641 23.1914C131.888 22.8789 132.161 22.6055 132.461 22.3711C132.773 22.1367 133.105 21.9544 133.457 21.8242C133.822 21.681 134.199 21.6094 134.59 21.6094C135.605 21.6094 136.335 21.8958 136.777 22.4688C137.233 23.0286 137.461 23.7904 137.461 24.7539V31.1211C137.578 30.5872 137.734 29.9818 137.93 29.3047C138.138 28.6146 138.385 27.918 138.672 27.2148C138.958 26.5117 139.277 25.8281 139.629 25.1641C139.993 24.487 140.391 23.888 140.82 23.3672C141.25 22.8333 141.719 22.4102 142.227 22.0977C142.734 21.7721 143.281 21.6094 143.867 21.6094C144.479 21.6094 144.941 21.7461 145.254 22.0195C145.566 22.2799 145.788 22.6185 145.918 23.0352C146.061 23.4388 146.139 23.888 146.152 24.3828C146.165 24.8776 146.172 25.3529 146.172 25.8086V34.168C146.172 34.4284 146.237 34.6693 146.367 34.8906C146.497 35.099 146.699 35.2031 146.973 35.2031C147.272 35.2031 147.552 35.0859 147.812 34.8516C148.086 34.6042 148.301 34.3633 148.457 34.1289L149.023 34.7148ZM167.5 34.7148C167.344 35.0534 167.142 35.3724 166.895 35.6719C166.647 35.9714 166.367 36.2383 166.055 36.4727C165.755 36.707 165.43 36.8893 165.078 37.0195C164.727 37.1628 164.362 37.2344 163.984 37.2344C162.956 37.2344 162.207 36.9544 161.738 36.3945C161.283 35.8216 161.055 35.0469 161.055 34.0703V26.1211C161.055 26.0299 161.048 25.9258 161.035 25.8086C161.035 25.6784 161.016 25.5612 160.977 25.457C160.938 25.3398 160.885 25.2422 160.82 25.1641C160.755 25.0859 160.664 25.0469 160.547 25.0469C160.182 25.0469 159.811 25.2682 159.434 25.7109C159.069 26.1536 158.711 26.7266 158.359 27.4297C158.021 28.1328 157.702 28.9206 157.402 29.793C157.116 30.6654 156.862 31.5312 156.641 32.3906C156.419 33.237 156.243 34.0312 156.113 34.7734C155.996 35.5156 155.938 36.1081 155.938 36.5508L152.383 37.8008V24.6758C152.383 24.4154 152.318 24.181 152.188 23.9727C152.057 23.7513 151.855 23.6406 151.582 23.6406C151.257 23.6406 150.957 23.7643 150.684 24.0117C150.423 24.2461 150.215 24.4805 150.059 24.7148L149.531 24.1289C149.688 23.8034 149.883 23.4909 150.117 23.1914C150.365 22.8789 150.638 22.6055 150.938 22.3711C151.25 22.1367 151.582 21.9544 151.934 21.8242C152.298 21.681 152.676 21.6094 153.066 21.6094C154.082 21.6094 154.811 21.8958 155.254 22.4688C155.71 23.0286 155.938 23.7904 155.938 24.7539V31.1211C156.055 30.5872 156.211 29.9818 156.406 29.3047C156.615 28.6146 156.862 27.918 157.148 27.2148C157.435 26.5117 157.754 25.8281 158.105 25.1641C158.47 24.487 158.867 23.888 159.297 23.3672C159.727 22.8333 160.195 22.4102 160.703 22.0977C161.211 21.7721 161.758 21.6094 162.344 21.6094C162.956 21.6094 163.418 21.7461 163.73 22.0195C164.043 22.2799 164.264 22.6185 164.395 23.0352C164.538 23.4388 164.616 23.888 164.629 24.3828C164.642 24.8776 164.648 25.3529 164.648 25.8086V34.168C164.648 34.4284 164.714 34.6693 164.844 34.8906C164.974 35.099 165.176 35.2031 165.449 35.2031C165.749 35.2031 166.029 35.0859 166.289 34.8516C166.562 34.6042 166.777 34.3633 166.934 34.1289L167.5 34.7148ZM173.809 11.5117L172.773 18.6406L170.859 19.2461L169.688 12.918L173.809 11.5117ZM176.504 34.7148C176.204 35.3529 175.853 35.8411 175.449 36.1797C175.059 36.5182 174.681 36.7656 174.316 36.9219C173.887 37.1042 173.451 37.2083 173.008 37.2344C172.435 37.2344 171.96 37.1432 171.582 36.9609C171.204 36.7786 170.905 36.5378 170.684 36.2383C170.462 35.9388 170.306 35.6003 170.215 35.2227C170.137 34.8451 170.098 34.4609 170.098 34.0703V23.1133L173.691 21.8828V34.168C173.691 34.4805 173.763 34.7279 173.906 34.9102C174.049 35.0924 174.232 35.1901 174.453 35.2031C174.688 35.2031 174.935 35.1185 175.195 34.9492C175.469 34.7799 175.729 34.5065 175.977 34.1289L176.504 34.7148Z" fill="#F5D4FE"/>
<path d="M45.5205 50.7607C45.5205 51.0231 45.4867 51.3151 45.4189 51.6367C45.3597 51.9499 45.2708 52.2292 45.1523 52.4746L42.1943 58.8223C42.1436 58.9154 42.0716 58.9746 41.9785 59C41.8939 59.0339 41.8008 59.0508 41.6992 59.0508C41.5807 59.0508 41.4665 59.0296 41.3564 58.9873C41.2464 58.945 41.1702 58.8646 41.1279 58.7461L39.1475 51.751L37.3828 58.6572C37.3151 58.8011 37.2178 58.9111 37.0908 58.9873C36.9723 59.0635 36.8369 59.1016 36.6846 59.1016C36.5745 59.1016 36.4688 59.0804 36.3672 59.0381C36.2741 58.9958 36.2148 58.9154 36.1895 58.7969L33.9551 51.6621C33.9212 51.5605 33.8747 51.4548 33.8154 51.3447C33.7646 51.2262 33.6969 51.1204 33.6123 51.0273C33.5361 50.9258 33.4473 50.8454 33.3457 50.7861C33.2526 50.7184 33.1426 50.6846 33.0156 50.6846C32.8464 50.6846 32.6898 50.7311 32.5459 50.8242C32.4105 50.9173 32.2878 51.0146 32.1777 51.1162L31.9238 50.7861C32.0508 50.5492 32.2116 50.3291 32.4062 50.126C32.6009 49.9144 32.8167 49.7282 33.0537 49.5674C33.2907 49.4066 33.5404 49.2796 33.8027 49.1865C34.0736 49.0934 34.3486 49.0469 34.6279 49.0469C34.8649 49.0469 35.0638 49.1146 35.2246 49.25C35.3854 49.3854 35.5208 49.5505 35.6309 49.7451C35.7409 49.9398 35.8298 50.1471 35.8975 50.3672C35.9736 50.5872 36.0371 50.7861 36.0879 50.9639C36.3418 51.7594 36.5915 52.5592 36.8369 53.3633C37.0908 54.1673 37.3405 54.9629 37.5859 55.75L38.8428 50.6592L38.5254 49.6436L40.6582 48.9326L42.7402 56.3213L43.9336 53.5918C43.9844 53.4648 44.0267 53.304 44.0605 53.1094C44.0944 52.9062 44.1113 52.737 44.1113 52.6016C44.1113 52.0938 43.9801 51.6579 43.7178 51.2939C43.4639 50.93 43.1211 50.638 42.6895 50.418L44.1367 48.4121C44.6107 48.6491 44.9577 48.9707 45.1777 49.377C45.4062 49.7747 45.5205 50.236 45.5205 50.7607ZM55.9688 56.5244C55.6725 56.9053 55.3467 57.2607 54.9912 57.5908C54.6442 57.9209 54.2633 58.2087 53.8486 58.4541C53.4424 58.6995 53.0107 58.8942 52.5537 59.0381C52.0967 59.182 51.6227 59.2539 51.1318 59.2539C50.5055 59.2539 49.93 59.1439 49.4053 58.9238C48.8805 58.6953 48.4277 58.3864 48.0469 57.9971C47.666 57.5993 47.3698 57.1338 47.1582 56.6006C46.9466 56.0589 46.8408 55.4792 46.8408 54.8613C46.8408 54.3535 46.9128 53.8542 47.0566 53.3633C47.2005 52.8724 47.4036 52.4111 47.666 51.9795C47.9284 51.5479 48.2373 51.1501 48.5928 50.7861C48.9567 50.4137 49.3545 50.0964 49.7861 49.834C50.2178 49.5716 50.6748 49.3685 51.1572 49.2246C51.6396 49.0723 52.1348 48.9961 52.6426 48.9961C52.998 48.9961 53.3324 49.0384 53.6455 49.123C53.9671 49.2077 54.2507 49.3431 54.4961 49.5293C54.7415 49.707 54.9362 49.9398 55.0801 50.2275C55.224 50.5068 55.2959 50.8411 55.2959 51.2305C55.2959 51.5521 55.1986 51.8906 55.0039 52.2461C54.8177 52.6016 54.568 52.957 54.2549 53.3125C53.9502 53.668 53.6032 54.0192 53.2139 54.3662C52.8245 54.7048 52.4268 55.0221 52.0205 55.3184C51.6227 55.6061 51.2376 55.86 50.8652 56.0801C50.4928 56.3001 50.167 56.4694 49.8877 56.5879C50.2008 56.9772 50.5648 57.2946 50.9795 57.54C51.3942 57.7855 51.8343 57.9082 52.2998 57.9082C52.596 57.9082 52.8965 57.8532 53.2012 57.7432C53.5059 57.6247 53.7979 57.4766 54.0771 57.2988C54.3649 57.1211 54.6357 56.9264 54.8896 56.7148C55.152 56.5033 55.3848 56.3044 55.5879 56.1182L55.9688 56.5244ZM52.9092 51.7002C52.9092 51.5055 52.8753 51.3193 52.8076 51.1416C52.7484 50.9639 52.6595 50.8115 52.541 50.6846C52.4225 50.5492 52.2786 50.4434 52.1094 50.3672C51.9486 50.2826 51.7624 50.2402 51.5508 50.2402C51.1699 50.2402 50.8187 50.3757 50.4971 50.6465C50.1755 50.9089 49.8962 51.2347 49.6592 51.624C49.4307 52.0133 49.2487 52.4281 49.1133 52.8682C48.9863 53.2998 48.9229 53.6807 48.9229 54.0107C48.9229 54.3324 48.9736 54.6624 49.0752 55.001C49.1768 55.3395 49.3164 55.6654 49.4941 55.9785C49.8327 55.7923 50.2008 55.5342 50.5986 55.2041C50.9964 54.874 51.3646 54.5143 51.7031 54.125C52.0501 53.7272 52.3379 53.3167 52.5664 52.8936C52.7949 52.4704 52.9092 52.0726 52.9092 51.7002ZM66.4932 53.96C66.4932 54.5609 66.3451 55.1745 66.0488 55.8008C65.7611 56.4186 65.3802 56.9857 64.9062 57.502C64.4323 58.0182 63.8906 58.4414 63.2812 58.7715C62.6803 59.0931 62.0667 59.2539 61.4404 59.2539C60.8564 59.2539 60.3402 59.1566 59.8916 58.9619C59.443 58.7588 59.0664 58.4837 58.7617 58.1367C58.457 57.7812 58.2243 57.3665 58.0635 56.8926C57.9111 56.4102 57.835 55.8896 57.835 55.3311V41.6074L60.1709 40.7949V55.75C60.1709 56.0378 60.209 56.3213 60.2852 56.6006C60.3613 56.8799 60.4756 57.1338 60.6279 57.3623C60.7803 57.5824 60.9707 57.7643 61.1992 57.9082C61.4362 58.0436 61.7155 58.1113 62.0371 58.1113C62.4264 58.1113 62.765 58.0182 63.0527 57.832C63.349 57.6374 63.5944 57.3919 63.7891 57.0957C63.9922 56.791 64.1403 56.4609 64.2334 56.1055C64.335 55.75 64.3857 55.4072 64.3857 55.0771C64.3857 54.5863 64.2926 54.0911 64.1064 53.5918C63.9287 53.084 63.679 52.627 63.3574 52.2207C63.0358 51.8145 62.6592 51.4759 62.2275 51.2051C61.7959 50.9342 61.3346 50.7777 60.8438 50.7354L62.9512 49.1738C63.4082 49.3262 63.8483 49.5674 64.2715 49.8975C64.7031 50.2191 65.084 50.5957 65.4141 51.0273C65.7441 51.459 66.0065 51.9287 66.2012 52.4365C66.3958 52.9443 66.4932 53.4521 66.4932 53.96ZM84.0889 57.4893C83.9873 57.7093 83.8561 57.9167 83.6953 58.1113C83.5345 58.306 83.3568 58.4795 83.1621 58.6318C82.9674 58.7842 82.7516 58.9069 82.5146 59C82.2861 59.0846 82.0492 59.127 81.8037 59.127C81.1351 59.127 80.6484 58.945 80.3438 58.5811C80.0475 58.2087 79.8994 57.7051 79.8994 57.0703V56.8418C79.7555 57.1296 79.5905 57.4173 79.4043 57.7051C79.2181 57.9928 79.0023 58.251 78.7568 58.4795C78.5199 58.708 78.249 58.8942 77.9443 59.0381C77.6481 59.182 77.3138 59.2539 76.9414 59.2539C76.3743 59.2539 75.875 59.1439 75.4434 58.9238C75.0202 58.6953 74.6647 58.3949 74.377 58.0225C74.0892 57.6416 73.8691 57.2015 73.7168 56.7021C73.5729 56.2028 73.501 55.6781 73.501 55.1279C73.501 54.417 73.611 53.7018 73.8311 52.9824C74.0511 52.263 74.3727 51.6113 74.7959 51.0273C75.2191 50.4434 75.7396 49.9694 76.3574 49.6055C76.9753 49.2331 77.682 49.0469 78.4775 49.0469C78.9684 49.0469 79.4424 49.1654 79.8994 49.4023V41.6074L82.248 40.7949V57.1338C82.248 57.3031 82.2861 57.4596 82.3623 57.6035C82.4469 57.7389 82.5824 57.8066 82.7686 57.8066C82.9632 57.8066 83.1452 57.7305 83.3145 57.5781C83.4837 57.4173 83.6191 57.2565 83.7207 57.0957L84.0889 57.4893ZM79.8994 53.668V50.9639C79.7048 50.7692 79.4847 50.6084 79.2393 50.4814C79.0023 50.3545 78.7399 50.291 78.4521 50.291C77.9528 50.291 77.5296 50.4264 77.1826 50.6973C76.8356 50.9681 76.5521 51.3066 76.332 51.7129C76.112 52.1191 75.9512 52.5592 75.8496 53.0332C75.748 53.4987 75.6973 53.9346 75.6973 54.3408C75.6973 54.6624 75.7269 55.0264 75.7861 55.4326C75.8538 55.8304 75.9639 56.207 76.1162 56.5625C76.277 56.9095 76.4844 57.2057 76.7383 57.4512C77.0007 57.6882 77.3265 57.8066 77.7158 57.8066C78.029 57.8066 78.2998 57.7389 78.5283 57.6035C78.7653 57.4596 78.9642 57.2777 79.125 57.0576C79.2858 56.8291 79.417 56.571 79.5186 56.2832C79.6201 55.987 79.6963 55.6865 79.7471 55.3818C79.8063 55.0771 79.8444 54.7767 79.8613 54.4805C79.8867 54.1758 79.8994 53.9049 79.8994 53.668ZM94.1562 56.5244C93.86 56.9053 93.5342 57.2607 93.1787 57.5908C92.8317 57.9209 92.4508 58.2087 92.0361 58.4541C91.6299 58.6995 91.1982 58.8942 90.7412 59.0381C90.2842 59.182 89.8102 59.2539 89.3193 59.2539C88.693 59.2539 88.1175 59.1439 87.5928 58.9238C87.068 58.6953 86.6152 58.3864 86.2344 57.9971C85.8535 57.5993 85.5573 57.1338 85.3457 56.6006C85.1341 56.0589 85.0283 55.4792 85.0283 54.8613C85.0283 54.3535 85.1003 53.8542 85.2441 53.3633C85.388 52.8724 85.5911 52.4111 85.8535 51.9795C86.1159 51.5479 86.4248 51.1501 86.7803 50.7861C87.1442 50.4137 87.542 50.0964 87.9736 49.834C88.4053 49.5716 88.8623 49.3685 89.3447 49.2246C89.8271 49.0723 90.3223 48.9961 90.8301 48.9961C91.1855 48.9961 91.5199 49.0384 91.833 49.123C92.1546 49.2077 92.4382 49.3431 92.6836 49.5293C92.929 49.707 93.1237 49.9398 93.2676 50.2275C93.4115 50.5068 93.4834 50.8411 93.4834 51.2305C93.4834 51.5521 93.3861 51.8906 93.1914 52.2461C93.0052 52.6016 92.7555 52.957 92.4424 53.3125C92.1377 53.668 91.7907 54.0192 91.4014 54.3662C91.012 54.7048 90.6143 55.0221 90.208 55.3184C89.8102 55.6061 89.4251 55.86 89.0527 56.0801C88.6803 56.3001 88.3545 56.4694 88.0752 56.5879C88.3883 56.9772 88.7523 57.2946 89.167 57.54C89.5817 57.7855 90.0218 57.9082 90.4873 57.9082C90.7835 57.9082 91.084 57.8532 91.3887 57.7432C91.6934 57.6247 91.9854 57.4766 92.2646 57.2988C92.5524 57.1211 92.8232 56.9264 93.0771 56.7148C93.3395 56.5033 93.5723 56.3044 93.7754 56.1182L94.1562 56.5244ZM91.0967 51.7002C91.0967 51.5055 91.0628 51.3193 90.9951 51.1416C90.9359 50.9639 90.847 50.8115 90.7285 50.6846C90.61 50.5492 90.4661 50.4434 90.2969 50.3672C90.1361 50.2826 89.9499 50.2402 89.7383 50.2402C89.3574 50.2402 89.0062 50.3757 88.6846 50.6465C88.363 50.9089 88.0837 51.2347 87.8467 51.624C87.6182 52.0133 87.4362 52.4281 87.3008 52.8682C87.1738 53.2998 87.1104 53.6807 87.1104 54.0107C87.1104 54.3324 87.1611 54.6624 87.2627 55.001C87.3643 55.3395 87.5039 55.6654 87.6816 55.9785C88.0202 55.7923 88.3883 55.5342 88.7861 55.2041C89.1839 54.874 89.5521 54.5143 89.8906 54.125C90.2376 53.7272 90.5254 53.3167 90.7539 52.8936C90.9824 52.4704 91.0967 52.0726 91.0967 51.7002ZM101.583 55.4961C101.583 56.0208 101.486 56.5117 101.291 56.9688C101.096 57.4258 100.83 57.8236 100.491 58.1621C100.161 58.5007 99.7633 58.7673 99.2979 58.9619C98.8408 59.1566 98.3457 59.2539 97.8125 59.2539C97.584 59.2539 97.3343 59.2327 97.0635 59.1904C96.8011 59.1481 96.5387 59.0846 96.2764 59C96.014 58.9154 95.7643 58.8096 95.5273 58.6826C95.2988 58.5557 95.1084 58.4033 94.9561 58.2256L96.4541 56.2705C96.5557 56.4313 96.6784 56.609 96.8223 56.8037C96.9746 56.9899 97.1396 57.1634 97.3174 57.3242C97.5036 57.485 97.6982 57.6204 97.9014 57.7305C98.113 57.832 98.3245 57.8828 98.5361 57.8828C98.7816 57.8828 99.0101 57.8405 99.2217 57.7559C99.4417 57.6712 99.6322 57.5527 99.793 57.4004C99.9538 57.2396 100.081 57.0534 100.174 56.8418C100.267 56.6302 100.313 56.3975 100.313 56.1436C100.313 55.805 100.195 55.4961 99.958 55.2168C99.7295 54.929 99.4544 54.654 99.1328 54.3916C98.8197 54.1208 98.4896 53.8457 98.1426 53.5664C97.804 53.2786 97.529 52.9655 97.3174 52.627L95.9971 54.5566L95.502 54.1885L97.0254 52.0811C96.9069 51.8356 96.8138 51.5775 96.7461 51.3066C96.6784 51.0358 96.6445 50.765 96.6445 50.4941C96.6445 50.2656 96.6826 50.0244 96.7588 49.7705C96.835 49.5166 96.945 49.2839 97.0889 49.0723C97.2327 48.8607 97.4062 48.6872 97.6094 48.5518C97.821 48.4079 98.0622 48.3359 98.333 48.3359C98.5954 48.3359 98.8154 48.4163 98.9932 48.5771C99.1794 48.738 99.2725 48.9622 99.2725 49.25C99.2725 49.4023 99.2471 49.5547 99.1963 49.707C99.1455 49.8594 99.082 50.0117 99.0059 50.1641C98.9297 50.3164 98.8451 50.4645 98.752 50.6084C98.6589 50.7438 98.57 50.8708 98.4854 50.9893C98.6885 51.277 98.9085 51.5267 99.1455 51.7383C99.3825 51.9499 99.6152 52.1488 99.8438 52.335C100.072 52.5212 100.292 52.7074 100.504 52.8936C100.715 53.0798 100.897 53.2913 101.05 53.5283C101.211 53.7653 101.338 54.0404 101.431 54.3535C101.532 54.6667 101.583 55.0475 101.583 55.4961ZM98.7012 49.4785C98.7012 49.36 98.6589 49.2712 98.5742 49.2119C98.498 49.1527 98.4092 49.123 98.3076 49.123C98.1637 49.123 98.0622 49.1738 98.0029 49.2754C97.9437 49.3685 97.9141 49.4743 97.9141 49.5928C97.9141 49.762 97.9395 49.9271 97.9902 50.0879C98.0495 50.2487 98.1214 50.401 98.2061 50.5449C98.2399 50.4857 98.2822 50.4095 98.333 50.3164C98.3923 50.2233 98.4473 50.126 98.498 50.0244C98.5573 49.9144 98.6038 49.8128 98.6377 49.7197C98.68 49.6182 98.7012 49.5378 98.7012 49.4785ZM106.204 42.4326L105.531 47.0664L104.287 47.46L103.525 43.3467L106.204 42.4326ZM107.956 57.5146C107.761 57.9294 107.533 58.2467 107.271 58.4668C107.017 58.6868 106.771 58.8477 106.534 58.9492C106.255 59.0677 105.971 59.1354 105.684 59.1523C105.311 59.1523 105.002 59.0931 104.757 58.9746C104.511 58.8561 104.317 58.6995 104.173 58.5049C104.029 58.3102 103.927 58.0902 103.868 57.8447C103.817 57.5993 103.792 57.3496 103.792 57.0957V49.9736L106.128 49.1738V57.1592C106.128 57.3623 106.174 57.5231 106.268 57.6416C106.361 57.7601 106.479 57.8236 106.623 57.832C106.775 57.832 106.936 57.777 107.105 57.667C107.283 57.557 107.452 57.3792 107.613 57.1338L107.956 57.5146ZM117.604 58.0605C117.604 58.5599 117.537 59.0677 117.401 59.584C117.266 60.1087 117.071 60.6208 116.817 61.1201C116.572 61.6195 116.276 62.0892 115.929 62.5293C115.582 62.9779 115.192 63.3672 114.761 63.6973C114.338 64.0273 113.876 64.2897 113.377 64.4844C112.886 64.679 112.374 64.7764 111.841 64.7764C111.502 64.7764 111.176 64.7214 110.863 64.6113C110.559 64.5013 110.284 64.3278 110.038 64.0908L111.714 62.5039C111.892 62.7409 112.099 62.9313 112.336 63.0752C112.573 63.2191 112.84 63.291 113.136 63.291C113.567 63.291 113.919 63.2064 114.189 63.0371C114.46 62.8763 114.676 62.6562 114.837 62.377C114.998 62.1061 115.112 61.793 115.18 61.4375C115.247 61.0905 115.29 60.7308 115.307 60.3584C115.324 59.986 115.324 59.6221 115.307 59.2666C115.298 58.9111 115.294 58.5895 115.294 58.3018V56.8418C115.142 57.1296 114.968 57.4173 114.773 57.7051C114.587 57.9928 114.371 58.251 114.126 58.4795C113.889 58.708 113.622 58.8942 113.326 59.0381C113.03 59.182 112.7 59.2539 112.336 59.2539C111.786 59.2539 111.299 59.1481 110.876 58.9365C110.453 58.7249 110.097 58.4414 109.81 58.0859C109.522 57.722 109.306 57.2988 109.162 56.8164C109.018 56.334 108.946 55.8219 108.946 55.2803C108.946 54.7894 109.006 54.2943 109.124 53.7949C109.243 53.2871 109.408 52.8005 109.619 52.335C109.839 51.8695 110.106 51.4336 110.419 51.0273C110.741 50.6211 111.096 50.2699 111.485 49.9736C111.883 49.6689 112.319 49.432 112.793 49.2627C113.267 49.085 113.771 48.9961 114.304 48.9961C114.625 48.9961 114.947 49.0342 115.269 49.1104C115.59 49.1865 115.895 49.305 116.183 49.4658C116.479 49.6182 116.745 49.8086 116.982 50.0371C117.228 50.2656 117.427 50.5322 117.579 50.8369L115.688 51.6367C115.586 51.4759 115.467 51.3151 115.332 51.1543C115.205 50.985 115.061 50.8327 114.9 50.6973C114.748 50.5618 114.579 50.4518 114.393 50.3672C114.215 50.2826 114.029 50.2402 113.834 50.2402C113.546 50.2402 113.275 50.3079 113.021 50.4434C112.776 50.5788 112.548 50.7565 112.336 50.9766C112.133 51.1966 111.951 51.4505 111.79 51.7383C111.629 52.0176 111.494 52.3096 111.384 52.6143C111.274 52.9189 111.189 53.2194 111.13 53.5156C111.079 53.8118 111.054 54.0785 111.054 54.3154C111.054 54.637 111.083 55.001 111.143 55.4072C111.21 55.805 111.325 56.1816 111.485 56.5371C111.646 56.8926 111.858 57.193 112.12 57.4385C112.382 57.6839 112.713 57.8066 113.11 57.8066C113.424 57.8066 113.694 57.7389 113.923 57.6035C114.151 57.4596 114.346 57.2777 114.507 57.0576C114.668 56.8291 114.799 56.571 114.9 56.2832C115.01 55.987 115.091 55.6865 115.142 55.3818C115.201 55.0771 115.239 54.7767 115.256 54.4805C115.281 54.1758 115.294 53.9049 115.294 53.668V52.792L117.604 51.9795V58.0605ZM130.82 57.5146C130.719 57.7347 130.588 57.9421 130.427 58.1367C130.266 58.3314 130.084 58.5049 129.881 58.6572C129.686 58.8096 129.475 58.9281 129.246 59.0127C129.018 59.1058 128.781 59.1523 128.535 59.1523C127.867 59.1523 127.38 58.9704 127.075 58.6064C126.779 58.234 126.631 57.7305 126.631 57.0957V51.9287C126.631 51.8695 126.627 51.8018 126.618 51.7256C126.618 51.641 126.605 51.5648 126.58 51.4971C126.555 51.4209 126.521 51.3574 126.479 51.3066C126.436 51.2559 126.377 51.2305 126.301 51.2305C126.064 51.2305 125.823 51.3743 125.577 51.6621C125.34 51.9499 125.107 52.3223 124.879 52.7793C124.659 53.2363 124.451 53.7484 124.257 54.3154C124.071 54.8825 123.906 55.4453 123.762 56.0039C123.618 56.554 123.504 57.0703 123.419 57.5527C123.343 58.0352 123.305 58.4202 123.305 58.708L120.994 59.5205V50.9893C120.994 50.82 120.952 50.6676 120.867 50.5322C120.783 50.3883 120.651 50.3164 120.474 50.3164C120.262 50.3164 120.067 50.3968 119.89 50.5576C119.72 50.71 119.585 50.8623 119.483 51.0146L119.141 50.6338C119.242 50.4222 119.369 50.2191 119.521 50.0244C119.682 49.8213 119.86 49.6436 120.055 49.4912C120.258 49.3389 120.474 49.2204 120.702 49.1357C120.939 49.0426 121.185 48.9961 121.438 48.9961C122.099 48.9961 122.573 49.1823 122.86 49.5547C123.157 49.9186 123.305 50.4137 123.305 51.04V55.1787C123.381 54.8317 123.482 54.4382 123.609 53.998C123.745 53.5495 123.906 53.0967 124.092 52.6396C124.278 52.1826 124.485 51.7383 124.714 51.3066C124.951 50.8665 125.209 50.4772 125.488 50.1387C125.768 49.7917 126.072 49.5166 126.402 49.3135C126.732 49.1019 127.088 48.9961 127.469 48.9961C127.867 48.9961 128.167 49.085 128.37 49.2627C128.573 49.432 128.717 49.652 128.802 49.9229C128.895 50.1852 128.946 50.4772 128.954 50.7988C128.963 51.1204 128.967 51.4294 128.967 51.7256V57.1592C128.967 57.3285 129.009 57.485 129.094 57.6289C129.178 57.7643 129.31 57.832 129.487 57.832C129.682 57.832 129.864 57.7559 130.033 57.6035C130.211 57.4427 130.351 57.2861 130.452 57.1338L130.82 57.5146ZM140.85 56.5244C140.553 56.9053 140.228 57.2607 139.872 57.5908C139.525 57.9209 139.144 58.2087 138.729 58.4541C138.323 58.6995 137.892 58.8942 137.435 59.0381C136.978 59.182 136.504 59.2539 136.013 59.2539C135.386 59.2539 134.811 59.1439 134.286 58.9238C133.761 58.6953 133.309 58.3864 132.928 57.9971C132.547 57.5993 132.251 57.1338 132.039 56.6006C131.827 56.0589 131.722 55.4792 131.722 54.8613C131.722 54.3535 131.794 53.8542 131.938 53.3633C132.081 52.8724 132.285 52.4111 132.547 51.9795C132.809 51.5479 133.118 51.1501 133.474 50.7861C133.838 50.4137 134.235 50.0964 134.667 49.834C135.099 49.5716 135.556 49.3685 136.038 49.2246C136.521 49.0723 137.016 48.9961 137.523 48.9961C137.879 48.9961 138.213 49.0384 138.526 49.123C138.848 49.2077 139.132 49.3431 139.377 49.5293C139.622 49.707 139.817 49.9398 139.961 50.2275C140.105 50.5068 140.177 50.8411 140.177 51.2305C140.177 51.5521 140.079 51.8906 139.885 52.2461C139.699 52.6016 139.449 52.957 139.136 53.3125C138.831 53.668 138.484 54.0192 138.095 54.3662C137.705 54.7048 137.308 55.0221 136.901 55.3184C136.504 55.6061 136.118 55.86 135.746 56.0801C135.374 56.3001 135.048 56.4694 134.769 56.5879C135.082 56.9772 135.446 57.2946 135.86 57.54C136.275 57.7855 136.715 57.9082 137.181 57.9082C137.477 57.9082 137.777 57.8532 138.082 57.7432C138.387 57.6247 138.679 57.4766 138.958 57.2988C139.246 57.1211 139.517 56.9264 139.771 56.7148C140.033 56.5033 140.266 56.3044 140.469 56.1182L140.85 56.5244ZM137.79 51.7002C137.79 51.5055 137.756 51.3193 137.688 51.1416C137.629 50.9639 137.54 50.8115 137.422 50.6846C137.303 50.5492 137.16 50.4434 136.99 50.3672C136.829 50.2826 136.643 50.2402 136.432 50.2402C136.051 50.2402 135.7 50.3757 135.378 50.6465C135.056 50.9089 134.777 51.2347 134.54 51.624C134.312 52.0133 134.13 52.4281 133.994 52.8682C133.867 53.2998 133.804 53.6807 133.804 54.0107C133.804 54.3324 133.854 54.6624 133.956 55.001C134.058 55.3395 134.197 55.6654 134.375 55.9785C134.714 55.7923 135.082 55.5342 135.479 55.2041C135.877 54.874 136.245 54.5143 136.584 54.125C136.931 53.7272 137.219 53.3167 137.447 52.8936C137.676 52.4704 137.79 52.0726 137.79 51.7002ZM149.571 57.6162C149.419 57.8532 149.233 58.069 149.013 58.2637C148.793 58.4499 148.551 58.6107 148.289 58.7461C148.027 58.8815 147.752 58.9873 147.464 59.0635C147.176 59.1396 146.893 59.1777 146.613 59.1777C146.241 59.1777 145.919 59.11 145.648 58.9746C145.386 58.8307 145.17 58.6445 145.001 58.416C144.832 58.1875 144.705 57.9209 144.62 57.6162C144.544 57.3115 144.506 56.9941 144.506 56.6641C144.506 56.2324 144.569 55.7712 144.696 55.2803C144.832 54.7809 145.009 54.29 145.229 53.8076C145.458 53.3252 145.716 52.8766 146.004 52.4619C146.292 52.0472 146.596 51.7044 146.918 51.4336C146.622 51.6283 146.296 51.7806 145.94 51.8906C145.593 52.0007 145.238 52.0557 144.874 52.0557C144.612 52.0557 144.383 52.0345 144.188 51.9922C143.994 51.9499 143.778 51.8695 143.541 51.751L142.221 54.5059L141.675 54.29L143.046 51.4844C142.902 51.3828 142.745 51.2559 142.576 51.1035C142.415 50.9427 142.297 50.7861 142.221 50.6338L143.985 48.6533C144.062 48.8818 144.167 49.1146 144.303 49.3516C144.438 49.5801 144.595 49.7874 144.772 49.9736C144.959 50.1514 145.162 50.2995 145.382 50.418C145.61 50.5365 145.856 50.5957 146.118 50.5957C146.567 50.5957 147.003 50.5153 147.426 50.3545C147.849 50.1852 148.243 49.9821 148.606 49.7451L148.949 50.0879C148.628 50.3841 148.302 50.7142 147.972 51.0781C147.65 51.4336 147.358 51.8145 147.096 52.2207C146.833 52.627 146.622 53.0544 146.461 53.5029C146.3 53.9515 146.22 54.4043 146.22 54.8613C146.22 55.1237 146.254 55.4199 146.321 55.75C146.397 56.0716 146.512 56.3805 146.664 56.6768C146.816 56.9645 147.007 57.21 147.235 57.4131C147.464 57.6077 147.739 57.7051 148.061 57.7051C148.281 57.7051 148.492 57.667 148.695 57.5908C148.907 57.5062 149.097 57.4046 149.267 57.2861L149.571 57.6162Z" fill="#F8B739"/>
</svg>
